<svg version="1.1" xmlns="http://www.w3.org/2000/svg" xmlns:xlink="http://www.w3.org/1999/xlink" width="927.74462890625" height="652"><defs/><g><text fill="#eeeeee" stroke="none" font-family="Arial" font-size="24px" font-style="normal" font-weight="normal" text-decoration="none" x="0" y="0"></text><text fill="#eeeeee" stroke="none" font-family="Arial" font-size="24px" font-style="normal" font-weight="normal" text-decoration="none" x="0" y="30"></text><text fill="#eeeeee" stroke="none" font-family="Arial" font-size="24px" font-style="normal" font-weight="normal" text-decoration="none" x="0" y="60"></text><text fill="#eeeeee" stroke="none" font-family="Arial" font-size="24px" font-style="normal" font-weight="normal" text-decoration="none" x="0" y="90"></text><text fill="#eeeeee" stroke="none" font-family="Arial" font-size="24px" font-style="normal" font-weight="normal" text-decoration="none" x="0" y="120"></text><text fill="#eeeeee" stroke="none" font-family="Arial" font-size="24px" font-style="normal" font-weight="normal" text-decoration="none" x="0" y="150"></text><text fill="#eeeeee" stroke="none" font-family="Arial" font-size="24px" font-style="normal" font-weight="normal" text-decoration="none" x="0" y="180"></text><text fill="#eeeeee" stroke="none" font-family="Arial" font-size="24px" font-style="normal" font-weight="normal" text-decoration="none" x="0" y="210"></text><text fill="#eeeeee" stroke="none" font-family="Arial" font-size="24px" font-style="normal" font-weight="normal" text-decoration="none" x="0" y="240"></text><text fill="#eeeeee" stroke="none" font-family="Arial" font-size="24px" font-style="normal" font-weight="normal" text-decoration="none" x="0" y="270"></text><text fill="#eeeeee" stroke="none" font-family="Arial" font-size="24px" font-style="normal" font-weight="normal" text-decoration="none" x="0" y="300"></text><text fill="#eeeeee" stroke="none" font-family="Arial" font-size="24px" font-style="normal" font-weight="normal" text-decoration="none" x="0" y="330"></text><text fill="#eeeeee" stroke="none" font-family="Arial" font-size="24px" font-style="normal" font-weight="normal" text-decoration="none" x="0" y="360"></text><text fill="#eeeeee" stroke="none" font-family="Arial" font-size="24px" font-style="normal" font-weight="normal" text-decoration="none" x="0" y="390"></text><text fill="#eeeeee" stroke="none" font-family="Arial" font-size="24px" font-style="normal" font-weight="normal" text-decoration="none" x="0" y="420"></text><text fill="#eeeeee" stroke="none" font-family="Arial" font-size="24px" font-style="normal" font-weight="normal" text-decoration="none" x="0" y="450"></text><text fill="#eeeeee" stroke="none" font-family="Arial" font-size="24px" font-style="normal" font-weight="normal" text-decoration="none" x="0" y="480"></text><text fill="#eeeeee" stroke="none" font-family="Arial" font-size="24px" font-style="normal" font-weight="normal" text-decoration="none" x="0" y="510"></text><text fill="#eeeeee" stroke="none" font-family="Arial" font-size="24px" font-style="normal" font-weight="normal" text-decoration="none" x="0" y="540"></text><text fill="#eeeeee" stroke="none" font-family="Arial" font-size="24px" font-style="normal" font-weight="normal" text-decoration="none" x="0" y="570"></text><text fill="#eeeeee" stroke="none" font-family="Arial" font-size="24px" font-style="normal" font-weight="normal" text-decoration="none" x="0" y="600"></text><text fill="#eeeeee" stroke="none" font-family="Arial" font-size="24px" font-style="normal" font-weight="normal" text-decoration="none" x="0" y="630"></text><text fill="#eeeeee" stroke="none" font-family="Arial" font-size="24px" font-style="normal" font-weight="normal" text-decoration="none" x="200" y="0"></text><text fill="#eeeeee" stroke="none" font-family="Arial" font-size="24px" font-style="normal" font-weight="normal" text-decoration="none" x="200" y="30"></text><text fill="#eeeeee" stroke="none" font-family="Arial" font-size="24px" font-style="normal" font-weight="normal" text-decoration="none" x="200" y="60"></text><text fill="#eeeeee" stroke="none" font-family="Arial" font-size="24px" font-style="normal" font-weight="normal" text-decoration="none" x="200" y="90"></text><text fill="#eeeeee" stroke="none" font-family="Arial" font-size="24px" font-style="normal" font-weight="normal" text-decoration="none" x="200" y="120"></text><text fill="#eeeeee" stroke="none" font-family="Arial" font-size="24px" font-style="normal" font-weight="normal" text-decoration="none" x="200" y="150"></text><text fill="#eeeeee" stroke="none" font-family="Arial" font-size="24px" font-style="normal" font-weight="normal" text-decoration="none" x="200" y="180"></text><text fill="#eeeeee" stroke="none" font-family="Arial" font-size="24px" font-style="normal" font-weight="normal" text-decoration="none" x="200" y="210"></text><text fill="#eeeeee" stroke="none" font-family="Arial" font-size="24px" font-style="normal" font-weight="normal" text-decoration="none" x="200" y="240"></text><text fill="#eeeeee" stroke="none" font-family="Arial" font-size="24px" font-style="normal" font-weight="normal" text-decoration="none" x="200" y="270"></text><text fill="#eeeeee" stroke="none" font-family="Arial" font-size="24px" font-style="normal" font-weight="normal" text-decoration="none" x="200" y="300"></text><text fill="#eeeeee" stroke="none" font-family="Arial" font-size="24px" font-style="normal" font-weight="normal" text-decoration="none" x="200" y="330"></text><text fill="#eeeeee" stroke="none" font-family="Arial" font-size="24px" font-style="normal" font-weight="normal" text-decoration="none" x="200" y="360"></text><text fill="#eeeeee" stroke="none" font-family="Arial" font-size="24px" font-style="normal" font-weight="normal" text-decoration="none" x="200" y="390"></text><text fill="#eeeeee" stroke="none" font-family="Arial" font-size="24px" font-style="normal" font-weight="normal" text-decoration="none" x="200" y="420"></text><text fill="#eeeeee" stroke="none" font-family="Arial" font-size="24px" font-style="normal" font-weight="normal" text-decoration="none" x="200" y="450"></text><text fill="#eeeeee" stroke="none" font-family="Arial" font-size="24px" font-style="normal" font-weight="normal" text-decoration="none" x="200" y="480"></text><text fill="#eeeeee" stroke="none" font-family="Arial" font-size="24px" font-style="normal" font-weight="normal" text-decoration="none" x="200" y="510"></text><text fill="#eeeeee" stroke="none" font-family="Arial" font-size="24px" font-style="normal" font-weight="normal" text-decoration="none" x="200" y="540"></text><text fill="#eeeeee" stroke="none" font-family="Arial" font-size="24px" font-style="normal" font-weight="normal" text-decoration="none" x="200" y="570"></text><text fill="#eeeeee" stroke="none" font-family="Arial" font-size="24px" font-style="normal" font-weight="normal" text-decoration="none" x="200" y="600"></text><text fill="#eeeeee" stroke="none" font-family="Arial" font-size="24px" font-style="normal" font-weight="normal" text-decoration="none" x="200" y="630"></text><text fill="#eeeeee" stroke="none" font-family="Arial" font-size="24px" font-style="normal" font-weight="normal" text-decoration="none" x="400" y="0"></text><text fill="#eeeeee" stroke="none" font-family="Arial" font-size="24px" font-style="normal" font-weight="normal" text-decoration="none" x="400" y="30"></text><text fill="#eeeeee" stroke="none" font-family="Arial" font-size="24px" font-style="normal" font-weight="normal" text-decoration="none" x="400" y="60"></text><text fill="#eeeeee" stroke="none" font-family="Arial" font-size="24px" font-style="normal" font-weight="normal" text-decoration="none" x="400" y="90"></text><text fill="#eeeeee" stroke="none" font-family="Arial" font-size="24px" font-style="normal" font-weight="normal" text-decoration="none" x="400" y="120"></text><text fill="#eeeeee" stroke="none" font-family="Arial" font-size="24px" font-style="normal" font-weight="normal" text-decoration="none" x="400" y="150"></text><text fill="#eeeeee" stroke="none" font-family="Arial" font-size="24px" font-style="normal" font-weight="normal" text-decoration="none" x="400" y="180"></text><text fill="#eeeeee" stroke="none" font-family="Arial" font-size="24px" font-style="normal" font-weight="normal" text-decoration="none" x="400" y="210"></text><text fill="#eeeeee" stroke="none" font-family="Arial" font-size="24px" font-style="normal" font-weight="normal" text-decoration="none" x="400" y="240"></text><text fill="#eeeeee" stroke="none" font-family="Arial" font-size="24px" font-style="normal" font-weight="normal" text-decoration="none" x="400" y="270"></text><text fill="#eeeeee" stroke="none" font-family="Arial" font-size="24px" font-style="normal" font-weight="normal" text-decoration="none" x="400" y="300"></text><text fill="#eeeeee" stroke="none" font-family="Arial" font-size="24px" font-style="normal" font-weight="normal" text-decoration="none" x="400" y="330"></text><text fill="#eeeeee" stroke="none" font-family="Arial" font-size="24px" font-style="normal" font-weight="normal" text-decoration="none" x="400" y="360"></text><text fill="#eeeeee" stroke="none" font-family="Arial" font-size="24px" font-style="normal" font-weight="normal" text-decoration="none" x="400" y="390"></text><text fill="#eeeeee" stroke="none" font-family="Arial" font-size="24px" font-style="normal" font-weight="normal" text-decoration="none" x="400" y="420"></text><text fill="#eeeeee" stroke="none" font-family="Arial" font-size="24px" font-style="normal" font-weight="normal" text-decoration="none" x="400" y="450"></text><text fill="#eeeeee" stroke="none" font-family="Arial" font-size="24px" font-style="normal" font-weight="normal" text-decoration="none" x="400" y="480"></text><text fill="#eeeeee" stroke="none" font-family="Arial" font-size="24px" font-style="normal" font-weight="normal" text-decoration="none" x="400" y="510"></text><text fill="#eeeeee" stroke="none" font-family="Arial" font-size="24px" font-style="normal" font-weight="normal" text-decoration="none" x="400" y="540"></text><text fill="#eeeeee" stroke="none" font-family="Arial" font-size="24px" font-style="normal" font-weight="normal" text-decoration="none" x="400" y="570"></text><text fill="#eeeeee" stroke="none" font-family="Arial" font-size="24px" font-style="normal" font-weight="normal" text-decoration="none" x="400" y="600"></text><text fill="#eeeeee" stroke="none" font-family="Arial" font-size="24px" font-style="normal" font-weight="normal" text-decoration="none" x="400" y="630"></text><text fill="#eeeeee" stroke="none" font-family="Arial" font-size="24px" font-style="normal" font-weight="normal" text-decoration="none" x="600" y="0"></text><text fill="#eeeeee" stroke="none" font-family="Arial" font-size="24px" font-style="normal" font-weight="normal" text-decoration="none" x="600" y="30"></text><text fill="#eeeeee" stroke="none" font-family="Arial" font-size="24px" font-style="normal" font-weight="normal" text-decoration="none" x="600" y="60"></text><text fill="#eeeeee" stroke="none" font-family="Arial" font-size="24px" font-style="normal" font-weight="normal" text-decoration="none" x="600" y="90"></text><text fill="#eeeeee" stroke="none" font-family="Arial" font-size="24px" font-style="normal" font-weight="normal" text-decoration="none" x="600" y="120"></text><text fill="#eeeeee" stroke="none" font-family="Arial" font-size="24px" font-style="normal" font-weight="normal" text-decoration="none" x="600" y="150"></text><text fill="#eeeeee" stroke="none" font-family="Arial" font-size="24px" font-style="normal" font-weight="normal" text-decoration="none" x="600" y="180"></text><text fill="#eeeeee" stroke="none" font-family="Arial" font-size="24px" font-style="normal" font-weight="normal" text-decoration="none" x="600" y="210"></text><text fill="#eeeeee" stroke="none" font-family="Arial" font-size="24px" font-style="normal" font-weight="normal" text-decoration="none" x="600" y="240"></text><text fill="#eeeeee" stroke="none" font-family="Arial" font-size="24px" font-style="normal" font-weight="normal" text-decoration="none" x="600" y="270"></text><text fill="#eeeeee" stroke="none" font-family="Arial" font-size="24px" font-style="normal" font-weight="normal" text-decoration="none" x="600" y="300"></text><text fill="#eeeeee" stroke="none" font-family="Arial" font-size="24px" font-style="normal" font-weight="normal" text-decoration="none" x="600" y="330"></text><text fill="#eeeeee" stroke="none" font-family="Arial" font-size="24px" font-style="normal" font-weight="normal" text-decoration="none" x="600" y="360"></text><text fill="#eeeeee" stroke="none" font-family="Arial" font-size="24px" font-style="normal" font-weight="normal" text-decoration="none" x="600" y="390"></text><text fill="#eeeeee" stroke="none" font-family="Arial" font-size="24px" font-style="normal" font-weight="normal" text-decoration="none" x="600" y="420"></text><text fill="#eeeeee" stroke="none" font-family="Arial" font-size="24px" font-style="normal" font-weight="normal" text-decoration="none" x="600" y="450"></text><text fill="#eeeeee" stroke="none" font-family="Arial" font-size="24px" font-style="normal" font-weight="normal" text-decoration="none" x="600" y="480"></text><text fill="#eeeeee" stroke="none" font-family="Arial" font-size="24px" font-style="normal" font-weight="normal" text-decoration="none" x="600" y="510"></text><text fill="#eeeeee" stroke="none" font-family="Arial" font-size="24px" font-style="normal" font-weight="normal" text-decoration="none" x="600" y="540"></text><text fill="#eeeeee" stroke="none" font-family="Arial" font-size="24px" font-style="normal" font-weight="normal" text-decoration="none" x="600" y="570"></text><text fill="#eeeeee" stroke="none" font-family="Arial" font-size="24px" font-style="normal" font-weight="normal" text-decoration="none" x="600" y="600"></text><text fill="#eeeeee" stroke="none" font-family="Arial" font-size="24px" font-style="normal" font-weight="normal" text-decoration="none" x="600" y="630"></text><text fill="#eeeeee" stroke="none" font-family="Arial" font-size="24px" font-style="normal" font-weight="normal" text-decoration="none" x="800" y="0"></text><text fill="#eeeeee" stroke="none" font-family="Arial" font-size="24px" font-style="normal" font-weight="normal" text-decoration="none" x="800" y="30"></text><text fill="#eeeeee" stroke="none" font-family="Arial" font-size="24px" font-style="normal" font-weight="normal" text-decoration="none" x="800" y="60"></text><text fill="#eeeeee" stroke="none" font-family="Arial" font-size="24px" font-style="normal" font-weight="normal" text-decoration="none" x="800" y="90"></text><text fill="#eeeeee" stroke="none" font-family="Arial" font-size="24px" font-style="normal" font-weight="normal" text-decoration="none" x="800" y="120"></text><text fill="#eeeeee" stroke="none" font-family="Arial" font-size="24px" font-style="normal" font-weight="normal" text-decoration="none" x="800" y="150"></text><text fill="#eeeeee" stroke="none" font-family="Arial" font-size="24px" font-style="normal" font-weight="normal" text-decoration="none" x="800" y="180"></text><text fill="#eeeeee" stroke="none" font-family="Arial" font-size="24px" font-style="normal" font-weight="normal" text-decoration="none" x="800" y="210"></text><text fill="#eeeeee" stroke="none" font-family="Arial" font-size="24px" font-style="normal" font-weight="normal" text-decoration="none" x="800" y="240"></text><text fill="#eeeeee" stroke="none" font-family="Arial" font-size="24px" font-style="normal" font-weight="normal" text-decoration="none" x="800" y="270"></text><text fill="#eeeeee" stroke="none" font-family="Arial" font-size="24px" font-style="normal" font-weight="normal" text-decoration="none" x="800" y="300"></text><text fill="#eeeeee" stroke="none" font-family="Arial" font-size="24px" font-style="normal" font-weight="normal" text-decoration="none" x="800" y="330"></text><text fill="#eeeeee" stroke="none" font-family="Arial" font-size="24px" font-style="normal" font-weight="normal" text-decoration="none" x="800" y="360"></text><text fill="#eeeeee" stroke="none" font-family="Arial" font-size="24px" font-style="normal" font-weight="normal" text-decoration="none" x="800" y="390"></text><text fill="#eeeeee" stroke="none" font-family="Arial" font-size="24px" font-style="normal" font-weight="normal" text-decoration="none" x="800" y="420"></text><text fill="#eeeeee" stroke="none" font-family="Arial" font-size="24px" font-style="normal" font-weight="normal" text-decoration="none" x="800" y="450"></text><text fill="#eeeeee" stroke="none" font-family="Arial" font-size="24px" font-style="normal" font-weight="normal" text-decoration="none" x="800" y="480"></text><text fill="#eeeeee" stroke="none" font-family="Arial" font-size="24px" font-style="normal" font-weight="normal" text-decoration="none" x="800" y="510"></text><text fill="#eeeeee" stroke="none" font-family="Arial" font-size="24px" font-style="normal" font-weight="normal" text-decoration="none" x="800" y="540"></text><text fill="#eeeeee" stroke="none" font-family="Arial" font-size="24px" font-style="normal" font-weight="normal" text-decoration="none" x="800" y="570"></text><text fill="#eeeeee" stroke="none" font-family="Arial" font-size="24px" font-style="normal" font-weight="normal" text-decoration="none" x="800" y="600"></text><text fill="#eeeeee" stroke="none" font-family="Arial" font-size="24px" font-style="normal" font-weight="normal" text-decoration="none" x="800" y="630"></text><g transform="translate(-382,-78) scale(1,1)"><path fill="#C0C0C0" stroke="none" d="M 639 248.5 C 639 243.2532944 643.2532944 239 648.5 239 C 653.7467056 239 658 243.2532944 658 248.5 C 658 253.7467056 653.7467056 258 648.5 258 C 643.2532944 258 639 253.7467056 639 248.5 Z" opacity="0.2"/></g><g transform="translate(-382,-78) scale(1,1)"><path fill="#000000" stroke="none" d="M 632 241.5 C 632 236.2532944 636.2532944 232 641.5 232 C 646.7467056 232 651 236.2532944 651 241.5 C 651 246.7467056 646.7467056 251 641.5 251 C 636.2532944 251 632 246.7467056 632 241.5 Z"/></g><g transform="translate(-382,-78) scale(1,1)"><path fill="#C0C0C0" stroke="none" d="M 625 367 L 665.2763671875 367 Q 675.2763671875 367 675.2763671875 377 L 675.2763671875 397 Q 675.2763671875 407 665.2763671875 407 L 625 407 Q 615 407 615 397 L 615 377 Q 615 367 625 367 Z" opacity="0.2"/></g><g transform="translate(-382,-78) scale(1,1)"><path fill="#ffffff" stroke="none" d="M 618 360 L 658.2763671875 360 Q 668.2763671875 360 668.2763671875 370 L 668.2763671875 390 Q 668.2763671875 400 658.2763671875 400 L 618 400 Q 608 400 608 390 L 608 370 Q 608 360 618 360 Z"/></g><g transform="translate(-382,-78) scale(1,1)"><path fill="none" stroke="#000000" d="M 618 360 L 658.2763671875 360 Q 668.2763671875 360 668.2763671875 370 L 668.2763671875 390 Q 668.2763671875 400 658.2763671875 400 L 618 400 Q 608 400 608 390 L 608 370 Q 608 360 618 360 Z" stroke-miterlimit="10"/></g><g transform="translate(-382,-78) scale(1,1)"><g><path fill="none" stroke="none"/><text fill="#000000" stroke="none" font-family="Arial" font-size="13px" font-style="normal" font-weight="bold" text-decoration="none" x="612.5" y="377.5">Fill form</text></g></g><g transform="translate(-382,-78) scale(1,1)"><path fill="#C0C0C0" stroke="none" d="M 639 635.5 C 639 628.59644 644.59644 623 651.5 623 C 658.40356 623 664 628.59644 664 635.5 C 664 642.40356 658.40356 648 651.5 648 C 644.59644 648 639 642.40356 639 635.5 Z" opacity="0.2"/></g><g transform="translate(-382,-78) scale(1,1)"><path fill="none" stroke="#000000" d="M 632 628.5 C 632 621.59644 637.59644 616 644.5 616 C 651.40356 616 657 621.59644 657 628.5 C 657 635.40356 651.40356 641 644.5 641 C 637.59644 641 632 635.40356 632 628.5 Z" stroke-miterlimit="10"/></g><g transform="translate(-382,-78) scale(1,1)"><path fill="#000000" stroke="none" d="M 637 628.5 C 637 624.357864 640.357864 621 644.5 621 C 648.642136 621 652 624.357864 652 628.5 C 652 632.642136 648.642136 636 644.5 636 C 640.357864 636 637 632.642136 637 628.5 Z"/></g><g transform="translate(-382,-78) scale(1,1)"><path fill="none" stroke="#000000" d="M 641 251 L 641 360" stroke-miterlimit="10"/></g><g transform="translate(-382,-78) scale(1,1)"><path fill="none" stroke="#000000" d="M 636.790482243984 349.83732514237585 L 641 360 L 645.209517756016 349.83732514237585" stroke-miterlimit="10"/></g><g transform="translate(-382,-78) scale(1,1)"><path fill="#C0C0C0" stroke="none" d="M 639 552.5 L 650.5 543 L 661 552.5 L 650.5 561 L 639 552.5" opacity="0.2"/></g><g transform="translate(-382,-78) scale(1,1)"><path fill="#ffffff" stroke="none" d="M 632 545 L 643 536 L 654 545 L 643 554 L 632 545"/></g><g transform="translate(-382,-78) scale(1,1)"><path fill="none" stroke="#000000" d="M 632 545 L 643 536 L 654 545 L 643 554 L 632 545 L 632 545" stroke-miterlimit="10"/></g><g transform="translate(-382,-78) scale(1,1)"><path fill="none" stroke="#000000" d="M 643 400 L 643 448 L 760 448" stroke-miterlimit="10"/></g><g transform="translate(-382,-78) scale(1,1)"><path fill="none" stroke="#000000" d="M 749.8373251423759 452.209517756016 L 760 448 L 749.8373251423758 443.790482243984" stroke-miterlimit="10"/></g><g transform="translate(-382,-78) scale(1,1)"><path fill="none" stroke="#000000" d="M 632 553 L 504 553 L 504 384 L 608 384" stroke-miterlimit="10"/></g><g transform="translate(-382,-78) scale(1,1)"><path fill="none" stroke="#000000" d="M 597.8373251423759 388.209517756016 L 608 384 L 597.8373251423758 379.790482243984" stroke-miterlimit="10"/></g><g transform="translate(-382,-78) scale(1,1)"><g><path fill="none" stroke="none"/><text fill="#000000" stroke="none" font-family="Arial" font-size="13px" font-style="normal" font-weight="normal" text-decoration="none" x="407.37646484375" y="449.5">wrong username or password</text></g></g><g transform="translate(-382,-78) scale(1,1)"><path fill="none" stroke="#000000" d="M 643 555 L 644 615" stroke-miterlimit="10"/></g><g transform="translate(-382,-78) scale(1,1)"><path fill="none" stroke="#000000" d="M 639.6217123829697 604.9088852180466 L 644 615 L 648.0395788280638 604.7685874439617" stroke-miterlimit="10"/></g><g transform="translate(-382,-78) scale(1,1)"><g><path fill="none" stroke="none"/><text fill="#000000" stroke="none" font-family="Arial" font-size="13px" font-style="normal" font-weight="normal" text-decoration="none" x="461.5" y="593.5">username and password valid</text></g></g><g transform="translate(-382,-78) scale(1,1)"><path fill="#C0C0C0" stroke="none" d="M 1223 240.5 C 1223 235.2532944 1227.2532944 231 1232.5 231 C 1237.7467056 231 1242 235.2532944 1242 240.5 C 1242 245.7467056 1237.7467056 250 1232.5 250 C 1227.2532944 250 1223 245.7467056 1223 240.5 Z" opacity="0.2"/></g><g transform="translate(-382,-78) scale(1,1)"><path fill="#000000" stroke="none" d="M 1216 233.5 C 1216 228.2532944 1220.2532944 224 1225.5 224 C 1230.7467056 224 1235 228.2532944 1235 233.5 C 1235 238.7467056 1230.7467056 243 1225.5 243 C 1220.2532944 243 1216 238.7467056 1216 233.5 Z"/></g><g transform="translate(-382,-78) scale(1,1)"><path fill="#C0C0C0" stroke="none" d="M 1223 459.5 C 1223 452.59644 1228.59644 447 1235.5 447 C 1242.40356 447 1248 452.59644 1248 459.5 C 1248 466.40356 1242.40356 472 1235.5 472 C 1228.59644 472 1223 466.40356 1223 459.5 Z" opacity="0.2"/></g><g transform="translate(-382,-78) scale(1,1)"><path fill="none" stroke="#000000" d="M 1216 452.5 C 1216 445.59644 1221.59644 440 1228.5 440 C 1235.40356 440 1241 445.59644 1241 452.5 C 1241 459.40356 1235.40356 465 1228.5 465 C 1221.59644 465 1216 459.40356 1216 452.5 Z" stroke-miterlimit="10"/></g><g transform="translate(-382,-78) scale(1,1)"><path fill="#000000" stroke="none" d="M 1221 452.5 C 1221 448.357864 1224.357864 445 1228.5 445 C 1232.642136 445 1236 448.357864 1236 452.5 C 1236 456.642136 1232.642136 460 1228.5 460 C 1224.357864 460 1221 456.642136 1221 452.5 Z"/></g><g transform="translate(-382,-78) scale(1,1)"><path fill="#C0C0C0" stroke="none" d="M 1185 351 L 1296.74462890625 351 Q 1306.74462890625 351 1306.74462890625 361 L 1306.74462890625 381 Q 1306.74462890625 391 1296.74462890625 391 L 1185 391 Q 1175 391 1175 381 L 1175 361 Q 1175 351 1185 351 Z" opacity="0.2"/></g><g transform="translate(-382,-78) scale(1,1)"><path fill="#ffffff" stroke="none" d="M 1178 344 L 1289.74462890625 344 Q 1299.74462890625 344 1299.74462890625 354 L 1299.74462890625 374 Q 1299.74462890625 384 1289.74462890625 384 L 1178 384 Q 1168 384 1168 374 L 1168 354 Q 1168 344 1178 344 Z"/></g><g transform="translate(-382,-78) scale(1,1)"><path fill="none" stroke="#000000" d="M 1178 344 L 1289.74462890625 344 Q 1299.74462890625 344 1299.74462890625 354 L 1299.74462890625 374 Q 1299.74462890625 384 1289.74462890625 384 L 1178 384 Q 1168 384 1168 374 L 1168 354 Q 1168 344 1178 344 Z" stroke-miterlimit="10"/></g><g transform="translate(-382,-78) scale(1,1)"><g><path fill="none" stroke="none"/><text fill="#000000" stroke="none" font-family="Arial" font-size="13px" font-style="normal" font-weight="bold" text-decoration="none" x="1172.5" y="361.5">Push button log out</text></g></g><g transform="translate(-382,-78) scale(1,1)"><path fill="none" stroke="#000000" d="M 1226 243 L 1226 344" stroke-miterlimit="10"/></g><g transform="translate(-382,-78) scale(1,1)"><path fill="none" stroke="#000000" d="M 1221.7904822439841 333.83732514237585 L 1226 344 L 1230.2095177560159 333.83732514237585" stroke-miterlimit="10"/></g><g transform="translate(-382,-78) scale(1,1)"><path fill="none" stroke="#000000" d="M 1232 385 L 1229 439" stroke-miterlimit="10"/></g><g transform="translate(-382,-78) scale(1,1)"><path fill="none" stroke="#000000" d="M 1225.3606871882735 428.6194700396173 L 1229 439 L 1233.7667603592658 429.0864741046724" stroke-miterlimit="10"/></g><g transform="translate(-382,-78) scale(1,1)"><rect fill="#ffffff" stroke="none" x="456" y="88" width="264" height="21"/></g><g transform="translate(-382,-78) scale(1,1)"><path fill="none" stroke="#000000" d="M 456 88 L 720 88 L 720 109 L 456 109 L 456 88 Z Z" stroke-miterlimit="10" stroke-width="2"/></g><g transform="translate(-382,-78) scale(1,1)"><path fill="none" stroke="#000000" d="M 456 720 L 456 88 L 720 88 L 720 720" stroke-miterlimit="10" stroke-width="2"/></g><g transform="translate(-382,-78) scale(1,1)"><g><path fill="none" stroke="none"/><text fill="#000000" stroke="none" font-family="Arial" font-size="13px" font-style="normal" font-weight="normal" text-decoration="none" x="574.2763671875" y="101">User</text></g></g><g transform="translate(-382,-78) scale(1,1)"><rect fill="#ffffff" stroke="none" x="720" y="88" width="232" height="21"/></g><g transform="translate(-382,-78) scale(1,1)"><path fill="none" stroke="#000000" d="M 720 88 L 952 88 L 952 109 L 720 109 L 720 88 Z Z" stroke-miterlimit="10" stroke-width="2"/></g><g transform="translate(-382,-78) scale(1,1)"><path fill="none" stroke="#000000" d="M 720 720 L 720 88 L 952 88 L 952 720" stroke-miterlimit="10" stroke-width="2"/></g><g transform="translate(-382,-78) scale(1,1)"><g><path fill="none" stroke="none"/><text fill="#000000" stroke="none" font-family="Arial" font-size="13px" font-style="normal" font-weight="normal" text-decoration="none" x="806.3818359375" y="101">REST API</text></g></g><g transform="translate(-382,-78) scale(1,1)"><path fill="#C0C0C0" stroke="none" d="M 777 431 L 833.92626953125 431 Q 843.92626953125 431 843.92626953125 441 L 843.92626953125 461 Q 843.92626953125 471 833.92626953125 471 L 777 471 Q 767 471 767 461 L 767 441 Q 767 431 777 431 Z" opacity="0.2"/></g><g transform="translate(-382,-78) scale(1,1)"><path fill="#ffffff" stroke="none" d="M 770 424 L 826.92626953125 424 Q 836.92626953125 424 836.92626953125 434 L 836.92626953125 454 Q 836.92626953125 464 826.92626953125 464 L 770 464 Q 760 464 760 454 L 760 434 Q 760 424 770 424 Z"/></g><g transform="translate(-382,-78) scale(1,1)"><path fill="none" stroke="#000000" d="M 770 424 L 826.92626953125 424 Q 836.92626953125 424 836.92626953125 434 L 836.92626953125 454 Q 836.92626953125 464 826.92626953125 464 L 770 464 Q 760 464 760 454 L 760 434 Q 760 424 770 424 Z" stroke-miterlimit="10"/></g><g transform="translate(-382,-78) scale(1,1)"><g><path fill="none" stroke="none"/><text fill="#000000" stroke="none" font-family="Arial" font-size="13px" font-style="normal" font-weight="bold" text-decoration="none" x="764.5" y="441.5">CheckUser</text></g></g><g transform="translate(-382,-78) scale(1,1)"><path fill="none" stroke="#000000" d="M 798 464 L 798 512 L 640 512 L 640 536" stroke-miterlimit="10"/></g><g transform="translate(-382,-78) scale(1,1)"><path fill="none" stroke="#000000" d="M 635.790482243984 525.8373251423759 L 640 536 L 644.209517756016 525.8373251423759" stroke-miterlimit="10"/></g></g></svg>