<svg version="1.1" xmlns="http://www.w3.org/2000/svg" xmlns:xlink="http://www.w3.org/1999/xlink" width="1109" height="828"><defs/><g><text fill="#eeeeee" stroke="none" font-family="Arial" font-size="24px" font-style="normal" font-weight="normal" text-decoration="none" x="0" y="0"></text><text fill="#eeeeee" stroke="none" font-family="Arial" font-size="24px" font-style="normal" font-weight="normal" text-decoration="none" x="0" y="30"></text><text fill="#eeeeee" stroke="none" font-family="Arial" font-size="24px" font-style="normal" font-weight="normal" text-decoration="none" x="0" y="60"></text><text fill="#eeeeee" stroke="none" font-family="Arial" font-size="24px" font-style="normal" font-weight="normal" text-decoration="none" x="0" y="90"></text><text fill="#eeeeee" stroke="none" font-family="Arial" font-size="24px" font-style="normal" font-weight="normal" text-decoration="none" x="0" y="120"></text><text fill="#eeeeee" stroke="none" font-family="Arial" font-size="24px" font-style="normal" font-weight="normal" text-decoration="none" x="0" y="150"></text><text fill="#eeeeee" stroke="none" font-family="Arial" font-size="24px" font-style="normal" font-weight="normal" text-decoration="none" x="0" y="180"></text><text fill="#eeeeee" stroke="none" font-family="Arial" font-size="24px" font-style="normal" font-weight="normal" text-decoration="none" x="0" y="210"></text><text fill="#eeeeee" stroke="none" font-family="Arial" font-size="24px" font-style="normal" font-weight="normal" text-decoration="none" x="0" y="240"></text><text fill="#eeeeee" stroke="none" font-family="Arial" font-size="24px" font-style="normal" font-weight="normal" text-decoration="none" x="0" y="270"></text><text fill="#eeeeee" stroke="none" font-family="Arial" font-size="24px" font-style="normal" font-weight="normal" text-decoration="none" x="0" y="300"></text><text fill="#eeeeee" stroke="none" font-family="Arial" font-size="24px" font-style="normal" font-weight="normal" text-decoration="none" x="0" y="330"></text><text fill="#eeeeee" stroke="none" font-family="Arial" font-size="24px" font-style="normal" font-weight="normal" text-decoration="none" x="0" y="360"></text><text fill="#eeeeee" stroke="none" font-family="Arial" font-size="24px" font-style="normal" font-weight="normal" text-decoration="none" x="0" y="390"></text><text fill="#eeeeee" stroke="none" font-family="Arial" font-size="24px" font-style="normal" font-weight="normal" text-decoration="none" x="0" y="420"></text><text fill="#eeeeee" stroke="none" font-family="Arial" font-size="24px" font-style="normal" font-weight="normal" text-decoration="none" x="0" y="450"></text><text fill="#eeeeee" stroke="none" font-family="Arial" font-size="24px" font-style="normal" font-weight="normal" text-decoration="none" x="0" y="480"></text><text fill="#eeeeee" stroke="none" font-family="Arial" font-size="24px" font-style="normal" font-weight="normal" text-decoration="none" x="0" y="510"></text><text fill="#eeeeee" stroke="none" font-family="Arial" font-size="24px" font-style="normal" font-weight="normal" text-decoration="none" x="0" y="540"></text><text fill="#eeeeee" stroke="none" font-family="Arial" font-size="24px" font-style="normal" font-weight="normal" text-decoration="none" x="0" y="570"></text><text fill="#eeeeee" stroke="none" font-family="Arial" font-size="24px" font-style="normal" font-weight="normal" text-decoration="none" x="0" y="600"></text><text fill="#eeeeee" stroke="none" font-family="Arial" font-size="24px" font-style="normal" font-weight="normal" text-decoration="none" x="0" y="630"></text><text fill="#eeeeee" stroke="none" font-family="Arial" font-size="24px" font-style="normal" font-weight="normal" text-decoration="none" x="0" y="660"></text><text fill="#eeeeee" stroke="none" font-family="Arial" font-size="24px" font-style="normal" font-weight="normal" text-decoration="none" x="0" y="690"></text><text fill="#eeeeee" stroke="none" font-family="Arial" font-size="24px" font-style="normal" font-weight="normal" text-decoration="none" x="0" y="720"></text><text fill="#eeeeee" stroke="none" font-family="Arial" font-size="24px" font-style="normal" font-weight="normal" text-decoration="none" x="0" y="750"></text><text fill="#eeeeee" stroke="none" font-family="Arial" font-size="24px" font-style="normal" font-weight="normal" text-decoration="none" x="0" y="780"></text><text fill="#eeeeee" stroke="none" font-family="Arial" font-size="24px" font-style="normal" font-weight="normal" text-decoration="none" x="0" y="810"></text><text fill="#eeeeee" stroke="none" font-family="Arial" font-size="24px" font-style="normal" font-weight="normal" text-decoration="none" x="200" y="0"></text><text fill="#eeeeee" stroke="none" font-family="Arial" font-size="24px" font-style="normal" font-weight="normal" text-decoration="none" x="200" y="30"></text><text fill="#eeeeee" stroke="none" font-family="Arial" font-size="24px" font-style="normal" font-weight="normal" text-decoration="none" x="200" y="60"></text><text fill="#eeeeee" stroke="none" font-family="Arial" font-size="24px" font-style="normal" font-weight="normal" text-decoration="none" x="200" y="90"></text><text fill="#eeeeee" stroke="none" font-family="Arial" font-size="24px" font-style="normal" font-weight="normal" text-decoration="none" x="200" y="120"></text><text fill="#eeeeee" stroke="none" font-family="Arial" font-size="24px" font-style="normal" font-weight="normal" text-decoration="none" x="200" y="150"></text><text fill="#eeeeee" stroke="none" font-family="Arial" font-size="24px" font-style="normal" font-weight="normal" text-decoration="none" x="200" y="180"></text><text fill="#eeeeee" stroke="none" font-family="Arial" font-size="24px" font-style="normal" font-weight="normal" text-decoration="none" x="200" y="210"></text><text fill="#eeeeee" stroke="none" font-family="Arial" font-size="24px" font-style="normal" font-weight="normal" text-decoration="none" x="200" y="240"></text><text fill="#eeeeee" stroke="none" font-family="Arial" font-size="24px" font-style="normal" font-weight="normal" text-decoration="none" x="200" y="270"></text><text fill="#eeeeee" stroke="none" font-family="Arial" font-size="24px" font-style="normal" font-weight="normal" text-decoration="none" x="200" y="300"></text><text fill="#eeeeee" stroke="none" font-family="Arial" font-size="24px" font-style="normal" font-weight="normal" text-decoration="none" x="200" y="330"></text><text fill="#eeeeee" stroke="none" font-family="Arial" font-size="24px" font-style="normal" font-weight="normal" text-decoration="none" x="200" y="360"></text><text fill="#eeeeee" stroke="none" font-family="Arial" font-size="24px" font-style="normal" font-weight="normal" text-decoration="none" x="200" y="390"></text><text fill="#eeeeee" stroke="none" font-family="Arial" font-size="24px" font-style="normal" font-weight="normal" text-decoration="none" x="200" y="420"></text><text fill="#eeeeee" stroke="none" font-family="Arial" font-size="24px" font-style="normal" font-weight="normal" text-decoration="none" x="200" y="450"></text><text fill="#eeeeee" stroke="none" font-family="Arial" font-size="24px" font-style="normal" font-weight="normal" text-decoration="none" x="200" y="480"></text><text fill="#eeeeee" stroke="none" font-family="Arial" font-size="24px" font-style="normal" font-weight="normal" text-decoration="none" x="200" y="510"></text><text fill="#eeeeee" stroke="none" font-family="Arial" font-size="24px" font-style="normal" font-weight="normal" text-decoration="none" x="200" y="540"></text><text fill="#eeeeee" stroke="none" font-family="Arial" font-size="24px" font-style="normal" font-weight="normal" text-decoration="none" x="200" y="570"></text><text fill="#eeeeee" stroke="none" font-family="Arial" font-size="24px" font-style="normal" font-weight="normal" text-decoration="none" x="200" y="600"></text><text fill="#eeeeee" stroke="none" font-family="Arial" font-size="24px" font-style="normal" font-weight="normal" text-decoration="none" x="200" y="630"></text><text fill="#eeeeee" stroke="none" font-family="Arial" font-size="24px" font-style="normal" font-weight="normal" text-decoration="none" x="200" y="660"></text><text fill="#eeeeee" stroke="none" font-family="Arial" font-size="24px" font-style="normal" font-weight="normal" text-decoration="none" x="200" y="690"></text><text fill="#eeeeee" stroke="none" font-family="Arial" font-size="24px" font-style="normal" font-weight="normal" text-decoration="none" x="200" y="720"></text><text fill="#eeeeee" stroke="none" font-family="Arial" font-size="24px" font-style="normal" font-weight="normal" text-decoration="none" x="200" y="750"></text><text fill="#eeeeee" stroke="none" font-family="Arial" font-size="24px" font-style="normal" font-weight="normal" text-decoration="none" x="200" y="780"></text><text fill="#eeeeee" stroke="none" font-family="Arial" font-size="24px" font-style="normal" font-weight="normal" text-decoration="none" x="200" y="810"></text><text fill="#eeeeee" stroke="none" font-family="Arial" font-size="24px" font-style="normal" font-weight="normal" text-decoration="none" x="400" y="0"></text><text fill="#eeeeee" stroke="none" font-family="Arial" font-size="24px" font-style="normal" font-weight="normal" text-decoration="none" x="400" y="30"></text><text fill="#eeeeee" stroke="none" font-family="Arial" font-size="24px" font-style="normal" font-weight="normal" text-decoration="none" x="400" y="60"></text><text fill="#eeeeee" stroke="none" font-family="Arial" font-size="24px" font-style="normal" font-weight="normal" text-decoration="none" x="400" y="90"></text><text fill="#eeeeee" stroke="none" font-family="Arial" font-size="24px" font-style="normal" font-weight="normal" text-decoration="none" x="400" y="120"></text><text fill="#eeeeee" stroke="none" font-family="Arial" font-size="24px" font-style="normal" font-weight="normal" text-decoration="none" x="400" y="150"></text><text fill="#eeeeee" stroke="none" font-family="Arial" font-size="24px" font-style="normal" font-weight="normal" text-decoration="none" x="400" y="180"></text><text fill="#eeeeee" stroke="none" font-family="Arial" font-size="24px" font-style="normal" font-weight="normal" text-decoration="none" x="400" y="210"></text><text fill="#eeeeee" stroke="none" font-family="Arial" font-size="24px" font-style="normal" font-weight="normal" text-decoration="none" x="400" y="240"></text><text fill="#eeeeee" stroke="none" font-family="Arial" font-size="24px" font-style="normal" font-weight="normal" text-decoration="none" x="400" y="270"></text><text fill="#eeeeee" stroke="none" font-family="Arial" font-size="24px" font-style="normal" font-weight="normal" text-decoration="none" x="400" y="300"></text><text fill="#eeeeee" stroke="none" font-family="Arial" font-size="24px" font-style="normal" font-weight="normal" text-decoration="none" x="400" y="330"></text><text fill="#eeeeee" stroke="none" font-family="Arial" font-size="24px" font-style="normal" font-weight="normal" text-decoration="none" x="400" y="360"></text><text fill="#eeeeee" stroke="none" font-family="Arial" font-size="24px" font-style="normal" font-weight="normal" text-decoration="none" x="400" y="390"></text><text fill="#eeeeee" stroke="none" font-family="Arial" font-size="24px" font-style="normal" font-weight="normal" text-decoration="none" x="400" y="420"></text><text fill="#eeeeee" stroke="none" font-family="Arial" font-size="24px" font-style="normal" font-weight="normal" text-decoration="none" x="400" y="450"></text><text fill="#eeeeee" stroke="none" font-family="Arial" font-size="24px" font-style="normal" font-weight="normal" text-decoration="none" x="400" y="480"></text><text fill="#eeeeee" stroke="none" font-family="Arial" font-size="24px" font-style="normal" font-weight="normal" text-decoration="none" x="400" y="510"></text><text fill="#eeeeee" stroke="none" font-family="Arial" font-size="24px" font-style="normal" font-weight="normal" text-decoration="none" x="400" y="540"></text><text fill="#eeeeee" stroke="none" font-family="Arial" font-size="24px" font-style="normal" font-weight="normal" text-decoration="none" x="400" y="570"></text><text fill="#eeeeee" stroke="none" font-family="Arial" font-size="24px" font-style="normal" font-weight="normal" text-decoration="none" x="400" y="600"></text><text fill="#eeeeee" stroke="none" font-family="Arial" font-size="24px" font-style="normal" font-weight="normal" text-decoration="none" x="400" y="630"></text><text fill="#eeeeee" stroke="none" font-family="Arial" font-size="24px" font-style="normal" font-weight="normal" text-decoration="none" x="400" y="660"></text><text fill="#eeeeee" stroke="none" font-family="Arial" font-size="24px" font-style="normal" font-weight="normal" text-decoration="none" x="400" y="690"></text><text fill="#eeeeee" stroke="none" font-family="Arial" font-size="24px" font-style="normal" font-weight="normal" text-decoration="none" x="400" y="720"></text><text fill="#eeeeee" stroke="none" font-family="Arial" font-size="24px" font-style="normal" font-weight="normal" text-decoration="none" x="400" y="750"></text><text fill="#eeeeee" stroke="none" font-family="Arial" font-size="24px" font-style="normal" font-weight="normal" text-decoration="none" x="400" y="780"></text><text fill="#eeeeee" stroke="none" font-family="Arial" font-size="24px" font-style="normal" font-weight="normal" text-decoration="none" x="400" y="810"></text><text fill="#eeeeee" stroke="none" font-family="Arial" font-size="24px" font-style="normal" font-weight="normal" text-decoration="none" x="600" y="0"></text><text fill="#eeeeee" stroke="none" font-family="Arial" font-size="24px" font-style="normal" font-weight="normal" text-decoration="none" x="600" y="30"></text><text fill="#eeeeee" stroke="none" font-family="Arial" font-size="24px" font-style="normal" font-weight="normal" text-decoration="none" x="600" y="60"></text><text fill="#eeeeee" stroke="none" font-family="Arial" font-size="24px" font-style="normal" font-weight="normal" text-decoration="none" x="600" y="90"></text><text fill="#eeeeee" stroke="none" font-family="Arial" font-size="24px" font-style="normal" font-weight="normal" text-decoration="none" x="600" y="120"></text><text fill="#eeeeee" stroke="none" font-family="Arial" font-size="24px" font-style="normal" font-weight="normal" text-decoration="none" x="600" y="150"></text><text fill="#eeeeee" stroke="none" font-family="Arial" font-size="24px" font-style="normal" font-weight="normal" text-decoration="none" x="600" y="180"></text><text fill="#eeeeee" stroke="none" font-family="Arial" font-size="24px" font-style="normal" font-weight="normal" text-decoration="none" x="600" y="210"></text><text fill="#eeeeee" stroke="none" font-family="Arial" font-size="24px" font-style="normal" font-weight="normal" text-decoration="none" x="600" y="240"></text><text fill="#eeeeee" stroke="none" font-family="Arial" font-size="24px" font-style="normal" font-weight="normal" text-decoration="none" x="600" y="270"></text><text fill="#eeeeee" stroke="none" font-family="Arial" font-size="24px" font-style="normal" font-weight="normal" text-decoration="none" x="600" y="300"></text><text fill="#eeeeee" stroke="none" font-family="Arial" font-size="24px" font-style="normal" font-weight="normal" text-decoration="none" x="600" y="330"></text><text fill="#eeeeee" stroke="none" font-family="Arial" font-size="24px" font-style="normal" font-weight="normal" text-decoration="none" x="600" y="360"></text><text fill="#eeeeee" stroke="none" font-family="Arial" font-size="24px" font-style="normal" font-weight="normal" text-decoration="none" x="600" y="390"></text><text fill="#eeeeee" stroke="none" font-family="Arial" font-size="24px" font-style="normal" font-weight="normal" text-decoration="none" x="600" y="420"></text><text fill="#eeeeee" stroke="none" font-family="Arial" font-size="24px" font-style="normal" font-weight="normal" text-decoration="none" x="600" y="450"></text><text fill="#eeeeee" stroke="none" font-family="Arial" font-size="24px" font-style="normal" font-weight="normal" text-decoration="none" x="600" y="480"></text><text fill="#eeeeee" stroke="none" font-family="Arial" font-size="24px" font-style="normal" font-weight="normal" text-decoration="none" x="600" y="510"></text><text fill="#eeeeee" stroke="none" font-family="Arial" font-size="24px" font-style="normal" font-weight="normal" text-decoration="none" x="600" y="540"></text><text fill="#eeeeee" stroke="none" font-family="Arial" font-size="24px" font-style="normal" font-weight="normal" text-decoration="none" x="600" y="570"></text><text fill="#eeeeee" stroke="none" font-family="Arial" font-size="24px" font-style="normal" font-weight="normal" text-decoration="none" x="600" y="600"></text><text fill="#eeeeee" stroke="none" font-family="Arial" font-size="24px" font-style="normal" font-weight="normal" text-decoration="none" x="600" y="630"></text><text fill="#eeeeee" stroke="none" font-family="Arial" font-size="24px" font-style="normal" font-weight="normal" text-decoration="none" x="600" y="660"></text><text fill="#eeeeee" stroke="none" font-family="Arial" font-size="24px" font-style="normal" font-weight="normal" text-decoration="none" x="600" y="690"></text><text fill="#eeeeee" stroke="none" font-family="Arial" font-size="24px" font-style="normal" font-weight="normal" text-decoration="none" x="600" y="720"></text><text fill="#eeeeee" stroke="none" font-family="Arial" font-size="24px" font-style="normal" font-weight="normal" text-decoration="none" x="600" y="750"></text><text fill="#eeeeee" stroke="none" font-family="Arial" font-size="24px" font-style="normal" font-weight="normal" text-decoration="none" x="600" y="780"></text><text fill="#eeeeee" stroke="none" font-family="Arial" font-size="24px" font-style="normal" font-weight="normal" text-decoration="none" x="600" y="810"></text><text fill="#eeeeee" stroke="none" font-family="Arial" font-size="24px" font-style="normal" font-weight="normal" text-decoration="none" x="800" y="0"></text><text fill="#eeeeee" stroke="none" font-family="Arial" font-size="24px" font-style="normal" font-weight="normal" text-decoration="none" x="800" y="30"></text><text fill="#eeeeee" stroke="none" font-family="Arial" font-size="24px" font-style="normal" font-weight="normal" text-decoration="none" x="800" y="60"></text><text fill="#eeeeee" stroke="none" font-family="Arial" font-size="24px" font-style="normal" font-weight="normal" text-decoration="none" x="800" y="90"></text><text fill="#eeeeee" stroke="none" font-family="Arial" font-size="24px" font-style="normal" font-weight="normal" text-decoration="none" x="800" y="120"></text><text fill="#eeeeee" stroke="none" font-family="Arial" font-size="24px" font-style="normal" font-weight="normal" text-decoration="none" x="800" y="150"></text><text fill="#eeeeee" stroke="none" font-family="Arial" font-size="24px" font-style="normal" font-weight="normal" text-decoration="none" x="800" y="180"></text><text fill="#eeeeee" stroke="none" font-family="Arial" font-size="24px" font-style="normal" font-weight="normal" text-decoration="none" x="800" y="210"></text><text fill="#eeeeee" stroke="none" font-family="Arial" font-size="24px" font-style="normal" font-weight="normal" text-decoration="none" x="800" y="240"></text><text fill="#eeeeee" stroke="none" font-family="Arial" font-size="24px" font-style="normal" font-weight="normal" text-decoration="none" x="800" y="270"></text><text fill="#eeeeee" stroke="none" font-family="Arial" font-size="24px" font-style="normal" font-weight="normal" text-decoration="none" x="800" y="300"></text><text fill="#eeeeee" stroke="none" font-family="Arial" font-size="24px" font-style="normal" font-weight="normal" text-decoration="none" x="800" y="330"></text><text fill="#eeeeee" stroke="none" font-family="Arial" font-size="24px" font-style="normal" font-weight="normal" text-decoration="none" x="800" y="360"></text><text fill="#eeeeee" stroke="none" font-family="Arial" font-size="24px" font-style="normal" font-weight="normal" text-decoration="none" x="800" y="390"></text><text fill="#eeeeee" stroke="none" font-family="Arial" font-size="24px" font-style="normal" font-weight="normal" text-decoration="none" x="800" y="420"></text><text fill="#eeeeee" stroke="none" font-family="Arial" font-size="24px" font-style="normal" font-weight="normal" text-decoration="none" x="800" y="450"></text><text fill="#eeeeee" stroke="none" font-family="Arial" font-size="24px" font-style="normal" font-weight="normal" text-decoration="none" x="800" y="480"></text><text fill="#eeeeee" stroke="none" font-family="Arial" font-size="24px" font-style="normal" font-weight="normal" text-decoration="none" x="800" y="510"></text><text fill="#eeeeee" stroke="none" font-family="Arial" font-size="24px" font-style="normal" font-weight="normal" text-decoration="none" x="800" y="540"></text><text fill="#eeeeee" stroke="none" font-family="Arial" font-size="24px" font-style="normal" font-weight="normal" text-decoration="none" x="800" y="570"></text><text fill="#eeeeee" stroke="none" font-family="Arial" font-size="24px" font-style="normal" font-weight="normal" text-decoration="none" x="800" y="600"></text><text fill="#eeeeee" stroke="none" font-family="Arial" font-size="24px" font-style="normal" font-weight="normal" text-decoration="none" x="800" y="630"></text><text fill="#eeeeee" stroke="none" font-family="Arial" font-size="24px" font-style="normal" font-weight="normal" text-decoration="none" x="800" y="660"></text><text fill="#eeeeee" stroke="none" font-family="Arial" font-size="24px" font-style="normal" font-weight="normal" text-decoration="none" x="800" y="690"></text><text fill="#eeeeee" stroke="none" font-family="Arial" font-size="24px" font-style="normal" font-weight="normal" text-decoration="none" x="800" y="720"></text><text fill="#eeeeee" stroke="none" font-family="Arial" font-size="24px" font-style="normal" font-weight="normal" text-decoration="none" x="800" y="750"></text><text fill="#eeeeee" stroke="none" font-family="Arial" font-size="24px" font-style="normal" font-weight="normal" text-decoration="none" x="800" y="780"></text><text fill="#eeeeee" stroke="none" font-family="Arial" font-size="24px" font-style="normal" font-weight="normal" text-decoration="none" x="800" y="810"></text><text fill="#eeeeee" stroke="none" font-family="Arial" font-size="24px" font-style="normal" font-weight="normal" text-decoration="none" x="1000" y="0"></text><text fill="#eeeeee" stroke="none" font-family="Arial" font-size="24px" font-style="normal" font-weight="normal" text-decoration="none" x="1000" y="30"></text><text fill="#eeeeee" stroke="none" font-family="Arial" font-size="24px" font-style="normal" font-weight="normal" text-decoration="none" x="1000" y="60"></text><text fill="#eeeeee" stroke="none" font-family="Arial" font-size="24px" font-style="normal" font-weight="normal" text-decoration="none" x="1000" y="90"></text><text fill="#eeeeee" stroke="none" font-family="Arial" font-size="24px" font-style="normal" font-weight="normal" text-decoration="none" x="1000" y="120"></text><text fill="#eeeeee" stroke="none" font-family="Arial" font-size="24px" font-style="normal" font-weight="normal" text-decoration="none" x="1000" y="150"></text><text fill="#eeeeee" stroke="none" font-family="Arial" font-size="24px" font-style="normal" font-weight="normal" text-decoration="none" x="1000" y="180"></text><text fill="#eeeeee" stroke="none" font-family="Arial" font-size="24px" font-style="normal" font-weight="normal" text-decoration="none" x="1000" y="210"></text><text fill="#eeeeee" stroke="none" font-family="Arial" font-size="24px" font-style="normal" font-weight="normal" text-decoration="none" x="1000" y="240"></text><text fill="#eeeeee" stroke="none" font-family="Arial" font-size="24px" font-style="normal" font-weight="normal" text-decoration="none" x="1000" y="270"></text><text fill="#eeeeee" stroke="none" font-family="Arial" font-size="24px" font-style="normal" font-weight="normal" text-decoration="none" x="1000" y="300"></text><text fill="#eeeeee" stroke="none" font-family="Arial" font-size="24px" font-style="normal" font-weight="normal" text-decoration="none" x="1000" y="330"></text><text fill="#eeeeee" stroke="none" font-family="Arial" font-size="24px" font-style="normal" font-weight="normal" text-decoration="none" x="1000" y="360"></text><text fill="#eeeeee" stroke="none" font-family="Arial" font-size="24px" font-style="normal" font-weight="normal" text-decoration="none" x="1000" y="390"></text><text fill="#eeeeee" stroke="none" font-family="Arial" font-size="24px" font-style="normal" font-weight="normal" text-decoration="none" x="1000" y="420"></text><text fill="#eeeeee" stroke="none" font-family="Arial" font-size="24px" font-style="normal" font-weight="normal" text-decoration="none" x="1000" y="450"></text><text fill="#eeeeee" stroke="none" font-family="Arial" font-size="24px" font-style="normal" font-weight="normal" text-decoration="none" x="1000" y="480"></text><text fill="#eeeeee" stroke="none" font-family="Arial" font-size="24px" font-style="normal" font-weight="normal" text-decoration="none" x="1000" y="510"></text><text fill="#eeeeee" stroke="none" font-family="Arial" font-size="24px" font-style="normal" font-weight="normal" text-decoration="none" x="1000" y="540"></text><text fill="#eeeeee" stroke="none" font-family="Arial" font-size="24px" font-style="normal" font-weight="normal" text-decoration="none" x="1000" y="570"></text><text fill="#eeeeee" stroke="none" font-family="Arial" font-size="24px" font-style="normal" font-weight="normal" text-decoration="none" x="1000" y="600"></text><text fill="#eeeeee" stroke="none" font-family="Arial" font-size="24px" font-style="normal" font-weight="normal" text-decoration="none" x="1000" y="630"></text><text fill="#eeeeee" stroke="none" font-family="Arial" font-size="24px" font-style="normal" font-weight="normal" text-decoration="none" x="1000" y="660"></text><text fill="#eeeeee" stroke="none" font-family="Arial" font-size="24px" font-style="normal" font-weight="normal" text-decoration="none" x="1000" y="690"></text><text fill="#eeeeee" stroke="none" font-family="Arial" font-size="24px" font-style="normal" font-weight="normal" text-decoration="none" x="1000" y="720"></text><text fill="#eeeeee" stroke="none" font-family="Arial" font-size="24px" font-style="normal" font-weight="normal" text-decoration="none" x="1000" y="750"></text><text fill="#eeeeee" stroke="none" font-family="Arial" font-size="24px" font-style="normal" font-weight="normal" text-decoration="none" x="1000" y="780"></text><text fill="#eeeeee" stroke="none" font-family="Arial" font-size="24px" font-style="normal" font-weight="normal" text-decoration="none" x="1000" y="810"></text><g transform="translate(-21,-38) scale(1,1)"><rect fill="#ffffff" stroke="none" x="144" y="48" width="256" height="21"/></g><g transform="translate(-21,-38) scale(1,1)"><path fill="none" stroke="#000000" d="M 144 48 L 400 48 L 400 69 L 144 69 L 144 48 Z Z" stroke-miterlimit="10" stroke-width="2"/></g><g transform="translate(-21,-38) scale(1,1)"><path fill="none" stroke="#000000" d="M 144 856 L 144 48 L 400 48 L 400 856" stroke-miterlimit="10" stroke-width="2"/></g><g transform="translate(-21,-38) scale(1,1)"><g><path fill="none" stroke="none"/><text fill="#000000" stroke="none" font-family="Arial" font-size="13px" font-style="normal" font-weight="normal" text-decoration="none" x="258.2763671875" y="61">User</text></g></g><g transform="translate(-21,-38) scale(1,1)"><rect fill="#ffffff" stroke="none" x="400" y="48" width="256" height="21"/></g><g transform="translate(-21,-38) scale(1,1)"><path fill="none" stroke="#000000" d="M 400 48 L 656 48 L 656 69 L 400 69 L 400 48 Z Z" stroke-miterlimit="10" stroke-width="2"/></g><g transform="translate(-21,-38) scale(1,1)"><path fill="none" stroke="#000000" d="M 400 856 L 400 48 L 656 48 L 656 856" stroke-miterlimit="10" stroke-width="2"/></g><g transform="translate(-21,-38) scale(1,1)"><g><path fill="none" stroke="none"/><text fill="#000000" stroke="none" font-family="Arial" font-size="13px" font-style="normal" font-weight="normal" text-decoration="none" x="509.569580078125" y="61">optour</text></g></g><g transform="translate(-21,-38) scale(1,1)"><rect fill="#ffffff" stroke="none" x="656" y="48" width="240" height="21"/></g><g transform="translate(-21,-38) scale(1,1)"><path fill="none" stroke="#000000" d="M 656 48 L 896 48 L 896 69 L 656 69 L 656 48 Z Z" stroke-miterlimit="10" stroke-width="2"/></g><g transform="translate(-21,-38) scale(1,1)"><path fill="none" stroke="#000000" d="M 656 856 L 656 48 L 896 48 L 896 856" stroke-miterlimit="10" stroke-width="2"/></g><g transform="translate(-21,-38) scale(1,1)"><g><path fill="none" stroke="none"/><text fill="#000000" stroke="none" font-family="Arial" font-size="13px" font-style="normal" font-weight="normal" text-decoration="none" x="746.3818359375" y="61">REST API</text></g></g><g transform="translate(-21,-38) scale(1,1)"><rect fill="#ffffff" stroke="none" x="896" y="48" width="224" height="21"/></g><g transform="translate(-21,-38) scale(1,1)"><path fill="none" stroke="#000000" d="M 896 48 L 1120 48 L 1120 69 L 896 69 L 896 48 Z Z" stroke-miterlimit="10" stroke-width="2"/></g><g transform="translate(-21,-38) scale(1,1)"><path fill="none" stroke="#000000" d="M 896 856 L 896 48 L 1120 48 L 1120 856" stroke-miterlimit="10" stroke-width="2"/></g><g transform="translate(-21,-38) scale(1,1)"><g><path fill="none" stroke="none"/><text fill="#000000" stroke="none" font-family="Arial" font-size="13px" font-style="normal" font-weight="normal" text-decoration="none" x="979.82275390625" y="61">Maps API</text></g></g><g transform="translate(-21,-38) scale(1,1)"><path fill="#C0C0C0" stroke="none" d="M 255 120.5 C 255 115.2532944 259.2532944 111 264.5 111 C 269.7467056 111 274 115.2532944 274 120.5 C 274 125.7467056 269.7467056 130 264.5 130 C 259.2532944 130 255 125.7467056 255 120.5 Z" opacity="0.2"/></g><g transform="translate(-21,-38) scale(1,1)"><path fill="#000000" stroke="none" d="M 248 113.5 C 248 108.2532944 252.2532944 104 257.5 104 C 262.7467056 104 267 108.2532944 267 113.5 C 267 118.7467056 262.7467056 123 257.5 123 C 252.2532944 123 248 118.7467056 248 113.5 Z"/></g><g transform="translate(-21,-38) scale(1,1)"><path fill="#C0C0C0" stroke="none" d="M 225 159 L 324.48095703125 159 Q 334.48095703125 159 334.48095703125 169 L 334.48095703125 189 Q 334.48095703125 199 324.48095703125 199 L 225 199 Q 215 199 215 189 L 215 169 Q 215 159 225 159 Z" opacity="0.2"/></g><g transform="translate(-21,-38) scale(1,1)"><path fill="#ffffff" stroke="none" d="M 218 152 L 317.48095703125 152 Q 327.48095703125 152 327.48095703125 162 L 327.48095703125 182 Q 327.48095703125 192 317.48095703125 192 L 218 192 Q 208 192 208 182 L 208 162 Q 208 152 218 152 Z"/></g><g transform="translate(-21,-38) scale(1,1)"><path fill="none" stroke="#000000" d="M 218 152 L 317.48095703125 152 Q 327.48095703125 152 327.48095703125 162 L 327.48095703125 182 Q 327.48095703125 192 317.48095703125 192 L 218 192 Q 208 192 208 182 L 208 162 Q 208 152 218 152 Z" stroke-miterlimit="10"/></g><g transform="translate(-21,-38) scale(1,1)"><g><path fill="none" stroke="none"/><text fill="#000000" stroke="none" font-family="Arial" font-size="13px" font-style="normal" font-weight="bold" text-decoration="none" x="212.5" y="169.5">Add point on map</text></g></g><g transform="translate(-21,-38) scale(1,1)"><path fill="#C0C0C0" stroke="none" d="M 201 439 L 326.51904296875 439 Q 336.51904296875 439 336.51904296875 449 L 336.51904296875 469 Q 336.51904296875 479 326.51904296875 479 L 201 479 Q 191 479 191 469 L 191 449 Q 191 439 201 439 Z" opacity="0.2"/></g><g transform="translate(-21,-38) scale(1,1)"><path fill="#ffffff" stroke="none" d="M 194 432 L 319.51904296875 432 Q 329.51904296875 432 329.51904296875 442 L 329.51904296875 462 Q 329.51904296875 472 319.51904296875 472 L 194 472 Q 184 472 184 462 L 184 442 Q 184 432 194 432 Z"/></g><g transform="translate(-21,-38) scale(1,1)"><path fill="none" stroke="#000000" d="M 194 432 L 319.51904296875 432 Q 329.51904296875 432 329.51904296875 442 L 329.51904296875 462 Q 329.51904296875 472 319.51904296875 472 L 194 472 Q 184 472 184 462 L 184 442 Q 184 432 194 432 Z" stroke-miterlimit="10"/></g><g transform="translate(-21,-38) scale(1,1)"><g><path fill="none" stroke="none"/><text fill="#000000" stroke="none" font-family="Arial" font-size="13px" font-style="normal" font-weight="bold" text-decoration="none" x="219.91455078125" y="449.5">Validate trip</text></g></g><g transform="translate(-21,-38) scale(1,1)"><path fill="none" stroke="#000000" d="M 264 123 L 264 152" stroke-miterlimit="10"/></g><g transform="translate(-21,-38) scale(1,1)"><path fill="none" stroke="#000000" d="M 259.790482243984 141.83732514237585 L 264 152 L 268.209517756016 141.83732514237585" stroke-miterlimit="10"/></g><g transform="translate(-21,-38) scale(1,1)"><path fill="#C0C0C0" stroke="none" d="M 263 344.5 L 274.5 335 L 285 344.5 L 274.5 353 L 263 344.5" opacity="0.2"/></g><g transform="translate(-21,-38) scale(1,1)"><path fill="#ffffff" stroke="none" d="M 256 337 L 267 328 L 278 337 L 267 346 L 256 337"/></g><g transform="translate(-21,-38) scale(1,1)"><path fill="none" stroke="#000000" d="M 256 337 L 267 328 L 278 337 L 267 346 L 256 337 L 256 337" stroke-miterlimit="10"/></g><g transform="translate(-21,-38) scale(1,1)"><path fill="none" stroke="#000000" d="M 472 208 L 267 208 L 267 328" stroke-miterlimit="10"/></g><g transform="translate(-21,-38) scale(1,1)"><path fill="none" stroke="#000000" d="M 262.790482243984 317.83732514237585 L 267 328 L 271.209517756016 317.83732514237585" stroke-miterlimit="10"/></g><g transform="translate(-21,-38) scale(1,1)"><path fill="none" stroke="#000000" d="M 256 337 L 192 337 L 192 336 L 160 336 L 160 289 L 352 289" stroke-miterlimit="10"/></g><g transform="translate(-21,-38) scale(1,1)"><path fill="none" stroke="#000000" d="M 341.83732514237585 293.209517756016 L 352 289 L 341.83732514237585 284.790482243984" stroke-miterlimit="10"/></g><g transform="translate(-21,-38) scale(1,1)"><g><path fill="none" stroke="none"/><text fill="#000000" stroke="none" font-family="Arial" font-size="13px" font-style="normal" font-weight="normal" text-decoration="none" x="45.686767578125" y="272.5">not all point</text></g></g><g transform="translate(-21,-38) scale(1,1)"><path fill="none" stroke="#000000" d="M 266 346 L 266 432" stroke-miterlimit="10"/></g><g transform="translate(-21,-38) scale(1,1)"><path fill="none" stroke="#000000" d="M 261.790482243984 421.83732514237585 L 266 432 L 270.209517756016 421.83732514237585" stroke-miterlimit="10"/></g><g transform="translate(-21,-38) scale(1,1)"><g><path fill="none" stroke="none"/><text fill="#000000" stroke="none" font-family="Arial" font-size="13px" font-style="normal" font-weight="normal" text-decoration="none" x="150.5" y="392.5">points are all there</text></g></g><g transform="translate(-21,-38) scale(1,1)"><path fill="#C0C0C0" stroke="none" d="M 937 439 L 1081.314453125 439 Q 1091.314453125 439 1091.314453125 449 L 1091.314453125 469 Q 1091.314453125 479 1081.314453125 479 L 937 479 Q 927 479 927 469 L 927 449 Q 927 439 937 439 Z" opacity="0.2"/></g><g transform="translate(-21,-38) scale(1,1)"><path fill="#ffffff" stroke="none" d="M 930 432 L 1074.314453125 432 Q 1084.314453125 432 1084.314453125 442 L 1084.314453125 462 Q 1084.314453125 472 1074.314453125 472 L 930 472 Q 920 472 920 462 L 920 442 Q 920 432 930 432 Z"/></g><g transform="translate(-21,-38) scale(1,1)"><path fill="none" stroke="#000000" d="M 930 432 L 1074.314453125 432 Q 1084.314453125 432 1084.314453125 442 L 1084.314453125 462 Q 1084.314453125 472 1074.314453125 472 L 930 472 Q 920 472 920 462 L 920 442 Q 920 432 930 432 Z" stroke-miterlimit="10"/></g><g transform="translate(-21,-38) scale(1,1)"><g><path fill="none" stroke="none"/><text fill="#000000" stroke="none" font-family="Arial" font-size="13px" font-style="normal" font-weight="bold" text-decoration="none" x="924.5" y="449.5">Compute distance matrix</text></g></g><g transform="translate(-21,-38) scale(1,1)"><path fill="none" stroke="#000000" d="M 331 452 L 919 452" stroke-miterlimit="10"/></g><g transform="translate(-21,-38) scale(1,1)"><path fill="none" stroke="#000000" d="M 908.8373251423759 456.209517756016 L 919 452 L 908.8373251423758 447.790482243984" stroke-miterlimit="10"/></g><g transform="translate(-21,-38) scale(1,1)"><path fill="#C0C0C0" stroke="none" d="M 457 543 L 597.658203125 543 Q 607.658203125 543 607.658203125 553 L 607.658203125 573 Q 607.658203125 583 597.658203125 583 L 457 583 Q 447 583 447 573 L 447 553 Q 447 543 457 543 Z" opacity="0.2"/></g><g transform="translate(-21,-38) scale(1,1)"><path fill="#ffffff" stroke="none" d="M 450 536 L 590.658203125 536 Q 600.658203125 536 600.658203125 546 L 600.658203125 566 Q 600.658203125 576 590.658203125 576 L 450 576 Q 440 576 440 566 L 440 546 Q 440 536 450 536 Z"/></g><g transform="translate(-21,-38) scale(1,1)"><path fill="none" stroke="#000000" d="M 450 536 L 590.658203125 536 Q 600.658203125 536 600.658203125 546 L 600.658203125 566 Q 600.658203125 576 590.658203125 576 L 450 576 Q 440 576 440 566 L 440 546 Q 440 536 450 536 Z" stroke-miterlimit="10"/></g><g transform="translate(-21,-38) scale(1,1)"><g><path fill="none" stroke="none"/><text fill="#000000" stroke="none" font-family="Arial" font-size="13px" font-style="normal" font-weight="bold" text-decoration="none" x="444.5" y="553.5">Compute order of points</text></g></g><g transform="translate(-21,-38) scale(1,1)"><path fill="#C0C0C0" stroke="none" d="M 753 639 L 804.84814453125 639 Q 814.84814453125 639 814.84814453125 649 L 814.84814453125 669 Q 814.84814453125 679 804.84814453125 679 L 753 679 Q 743 679 743 669 L 743 649 Q 743 639 753 639 Z" opacity="0.2"/></g><g transform="translate(-21,-38) scale(1,1)"><path fill="#ffffff" stroke="none" d="M 746 632 L 797.84814453125 632 Q 807.84814453125 632 807.84814453125 642 L 807.84814453125 662 Q 807.84814453125 672 797.84814453125 672 L 746 672 Q 736 672 736 662 L 736 642 Q 736 632 746 632 Z"/></g><g transform="translate(-21,-38) scale(1,1)"><path fill="none" stroke="#000000" d="M 746 632 L 797.84814453125 632 Q 807.84814453125 632 807.84814453125 642 L 807.84814453125 662 Q 807.84814453125 672 797.84814453125 672 L 746 672 Q 736 672 736 662 L 736 642 Q 736 632 746 632 Z" stroke-miterlimit="10"/></g><g transform="translate(-21,-38) scale(1,1)"><g><path fill="none" stroke="none"/><text fill="#000000" stroke="none" font-family="Arial" font-size="13px" font-style="normal" font-weight="bold" text-decoration="none" x="740.5" y="649.5">Insert Trip</text></g></g><g transform="translate(-21,-38) scale(1,1)"><path fill="none" stroke="#000000" d="M 1002 472 L 1002 552 L 1000 552 L 1000 555 L 601 555" stroke-miterlimit="10"/></g><g transform="translate(-21,-38) scale(1,1)"><path fill="none" stroke="#000000" d="M 611.1626748576241 550.790482243984 L 601 555 L 611.1626748576241 559.209517756016" stroke-miterlimit="10"/></g><g transform="translate(-21,-38) scale(1,1)"><path fill="none" stroke="#000000" d="M 520 576 L 520 656 L 736 656" stroke-miterlimit="10"/></g><g transform="translate(-21,-38) scale(1,1)"><path fill="none" stroke="#000000" d="M 725.8373251423759 660.209517756016 L 736 656 L 725.8373251423758 651.790482243984" stroke-miterlimit="10"/></g><g transform="translate(-21,-38) scale(1,1)"><path fill="#C0C0C0" stroke="none" d="M 519 811.5 C 519 804.59644 524.59644 799 531.5 799 C 538.40356 799 544 804.59644 544 811.5 C 544 818.40356 538.40356 824 531.5 824 C 524.59644 824 519 818.40356 519 811.5 Z" opacity="0.2"/></g><g transform="translate(-21,-38) scale(1,1)"><path fill="none" stroke="#000000" d="M 512 804.5 C 512 797.59644 517.59644 792 524.5 792 C 531.40356 792 537 797.59644 537 804.5 C 537 811.40356 531.40356 817 524.5 817 C 517.59644 817 512 811.40356 512 804.5 Z" stroke-miterlimit="10"/></g><g transform="translate(-21,-38) scale(1,1)"><path fill="#000000" stroke="none" d="M 517 804.5 C 517 800.357864 520.357864 797 524.5 797 C 528.642136 797 532 800.357864 532 804.5 C 532 808.642136 528.642136 812 524.5 812 C 520.357864 812 517 808.642136 517 804.5 Z"/></g><g transform="translate(-21,-38) scale(1,1)"><path fill="none" stroke="#000000" d="M 771 672 L 771 800 L 768 800 L 768 804 L 537 804" stroke-miterlimit="10"/></g><g transform="translate(-21,-38) scale(1,1)"><path fill="none" stroke="#000000" d="M 547.1626748576241 799.790482243984 L 537 804 L 547.1626748576241 808.209517756016" stroke-miterlimit="10"/></g><g transform="translate(-21,-38) scale(1,1)"><path fill="#C0C0C0" stroke="none" d="M 457 327 L 527.62451171875 327 Q 537.62451171875 327 537.62451171875 337 L 537.62451171875 357 Q 537.62451171875 367 527.62451171875 367 L 457 367 Q 447 367 447 357 L 447 337 Q 447 327 457 327 Z" opacity="0.2"/></g><g transform="translate(-21,-38) scale(1,1)"><path fill="#ffffff" stroke="none" d="M 450 320 L 520.62451171875 320 Q 530.62451171875 320 530.62451171875 330 L 530.62451171875 350 Q 530.62451171875 360 520.62451171875 360 L 450 360 Q 440 360 440 350 L 440 330 Q 440 320 450 320 Z"/></g><g transform="translate(-21,-38) scale(1,1)"><path fill="none" stroke="#000000" d="M 450 320 L 520.62451171875 320 Q 530.62451171875 320 530.62451171875 330 L 530.62451171875 350 Q 530.62451171875 360 520.62451171875 360 L 450 360 Q 440 360 440 350 L 440 330 Q 440 320 450 320 Z" stroke-miterlimit="10"/></g><g transform="translate(-21,-38) scale(1,1)"><g><path fill="none" stroke="none"/><text fill="#000000" stroke="none" font-family="Arial" font-size="13px" font-style="normal" font-weight="bold" text-decoration="none" x="444.5" y="337.5">remove point</text></g></g><g transform="translate(-21,-38) scale(1,1)"><path fill="#C0C0C0" stroke="none" d="M 359 296.5 L 370.5 287 L 381 296.5 L 370.5 305 L 359 296.5" opacity="0.2"/></g><g transform="translate(-21,-38) scale(1,1)"><path fill="#ffffff" stroke="none" d="M 352 289 L 363 280 L 374 289 L 363 298 L 352 289"/></g><g transform="translate(-21,-38) scale(1,1)"><path fill="none" stroke="#000000" d="M 352 289 L 363 280 L 374 289 L 363 298 L 352 289 L 352 289" stroke-miterlimit="10"/></g><g transform="translate(-21,-38) scale(1,1)"><path fill="none" stroke="#000000" d="M 374 289 L 496 289 L 496 320" stroke-miterlimit="10"/></g><g transform="translate(-21,-38) scale(1,1)"><path fill="none" stroke="#000000" d="M 491.790482243984 309.83732514237585 L 496 320 L 500.209517756016 309.83732514237585" stroke-miterlimit="10"/></g><g transform="translate(-21,-38) scale(1,1)"><g><path fill="none" stroke="none"/><text fill="#000000" stroke="none" font-family="Arial" font-size="13px" font-style="normal" font-weight="normal" text-decoration="none" x="429.5" y="275.5">a point to remove</text></g></g><g transform="translate(-21,-38) scale(1,1)"><path fill="none" stroke="#000000" d="M 439 339 L 279 337" stroke-miterlimit="10"/></g><g transform="translate(-21,-38) scale(1,1)"><path fill="none" stroke="#000000" d="M 289.2144958532555 332.91783458642044 L 279 337 L 289.10926613010616 341.3362124383716" stroke-miterlimit="10"/></g><g transform="translate(-21,-38) scale(1,1)"><path fill="#C0C0C0" stroke="none" d="M 953 159 L 1051.8017578125 159 Q 1061.8017578125 159 1061.8017578125 169 L 1061.8017578125 189 Q 1061.8017578125 199 1051.8017578125 199 L 953 199 Q 943 199 943 189 L 943 169 Q 943 159 953 159 Z" opacity="0.2"/></g><g transform="translate(-21,-38) scale(1,1)"><path fill="#ffffff" stroke="none" d="M 946 152 L 1044.8017578125 152 Q 1054.8017578125 152 1054.8017578125 162 L 1054.8017578125 182 Q 1054.8017578125 192 1044.8017578125 192 L 946 192 Q 936 192 936 182 L 936 162 Q 936 152 946 152 Z"/></g><g transform="translate(-21,-38) scale(1,1)"><path fill="none" stroke="#000000" d="M 946 152 L 1044.8017578125 152 Q 1054.8017578125 152 1054.8017578125 162 L 1054.8017578125 182 Q 1054.8017578125 192 1044.8017578125 192 L 946 192 Q 936 192 936 182 L 936 162 Q 936 152 946 152 Z" stroke-miterlimit="10"/></g><g transform="translate(-21,-38) scale(1,1)"><g><path fill="none" stroke="none"/><text fill="#000000" stroke="none" font-family="Arial" font-size="13px" font-style="normal" font-weight="bold" text-decoration="none" x="940.5" y="169.5">Compute address</text></g></g><g transform="translate(-21,-38) scale(1,1)"><path fill="none" stroke="#000000" d="M 327 171 L 936 171" stroke-miterlimit="10"/></g><g transform="translate(-21,-38) scale(1,1)"><path fill="none" stroke="#000000" d="M 925.8373251423759 175.209517756016 L 936 171 L 925.8373251423758 166.790482243984" stroke-miterlimit="10"/></g><g transform="translate(-21,-38) scale(1,1)"><path fill="#C0C0C0" stroke="none" d="M 489 199 L 545.18994140625 199 Q 555.18994140625 199 555.18994140625 209 L 555.18994140625 229 Q 555.18994140625 239 545.18994140625 239 L 489 239 Q 479 239 479 229 L 479 209 Q 479 199 489 199 Z" opacity="0.2"/></g><g transform="translate(-21,-38) scale(1,1)"><path fill="#ffffff" stroke="none" d="M 482 192 L 538.18994140625 192 Q 548.18994140625 192 548.18994140625 202 L 548.18994140625 222 Q 548.18994140625 232 538.18994140625 232 L 482 232 Q 472 232 472 222 L 472 202 Q 472 192 482 192 Z"/></g><g transform="translate(-21,-38) scale(1,1)"><path fill="none" stroke="#000000" d="M 482 192 L 538.18994140625 192 Q 548.18994140625 192 548.18994140625 202 L 548.18994140625 222 Q 548.18994140625 232 538.18994140625 232 L 482 232 Q 472 232 472 222 L 472 202 Q 472 192 482 192 Z" stroke-miterlimit="10"/></g><g transform="translate(-21,-38) scale(1,1)"><g><path fill="none" stroke="none"/><text fill="#000000" stroke="none" font-family="Arial" font-size="13px" font-style="normal" font-weight="bold" text-decoration="none" x="476.5" y="209.5">put marker</text></g></g><g transform="translate(-21,-38) scale(1,1)"><path fill="none" stroke="#000000" d="M 998 193 L 1000 208 L 549 212" stroke-miterlimit="10"/></g><g transform="translate(-21,-38) scale(1,1)"><path fill="none" stroke="#000000" d="M 559.1249416706075 207.70051675584193 L 549 212 L 559.1996086719469 216.1192211568627" stroke-miterlimit="10"/></g><g transform="translate(-21,-38) scale(1,1)"><path fill="none" stroke="#000000" d="M 360 280 L 360 251 L 160 251 L 160 170 L 208 170" stroke-miterlimit="10"/></g><g transform="translate(-21,-38) scale(1,1)"><path fill="none" stroke="#000000" d="M 197.83732514237585 174.209517756016 L 208 170 L 197.83732514237585 165.790482243984" stroke-miterlimit="10"/></g></g></svg>