<svg version="1.1" xmlns="http://www.w3.org/2000/svg" xmlns:xlink="http://www.w3.org/1999/xlink" width="1084" height="892"><defs/><g><text fill="#eeeeee" stroke="none" font-family="Arial" font-size="24px" font-style="normal" font-weight="normal" text-decoration="none" x="0" y="0"></text><text fill="#eeeeee" stroke="none" font-family="Arial" font-size="24px" font-style="normal" font-weight="normal" text-decoration="none" x="0" y="30"></text><text fill="#eeeeee" stroke="none" font-family="Arial" font-size="24px" font-style="normal" font-weight="normal" text-decoration="none" x="0" y="60"></text><text fill="#eeeeee" stroke="none" font-family="Arial" font-size="24px" font-style="normal" font-weight="normal" text-decoration="none" x="0" y="90"></text><text fill="#eeeeee" stroke="none" font-family="Arial" font-size="24px" font-style="normal" font-weight="normal" text-decoration="none" x="0" y="120"></text><text fill="#eeeeee" stroke="none" font-family="Arial" font-size="24px" font-style="normal" font-weight="normal" text-decoration="none" x="0" y="150"></text><text fill="#eeeeee" stroke="none" font-family="Arial" font-size="24px" font-style="normal" font-weight="normal" text-decoration="none" x="0" y="180"></text><text fill="#eeeeee" stroke="none" font-family="Arial" font-size="24px" font-style="normal" font-weight="normal" text-decoration="none" x="0" y="210"></text><text fill="#eeeeee" stroke="none" font-family="Arial" font-size="24px" font-style="normal" font-weight="normal" text-decoration="none" x="0" y="240"></text><text fill="#eeeeee" stroke="none" font-family="Arial" font-size="24px" font-style="normal" font-weight="normal" text-decoration="none" x="0" y="270"></text><text fill="#eeeeee" stroke="none" font-family="Arial" font-size="24px" font-style="normal" font-weight="normal" text-decoration="none" x="0" y="300"></text><text fill="#eeeeee" stroke="none" font-family="Arial" font-size="24px" font-style="normal" font-weight="normal" text-decoration="none" x="0" y="330"></text><text fill="#eeeeee" stroke="none" font-family="Arial" font-size="24px" font-style="normal" font-weight="normal" text-decoration="none" x="0" y="360"></text><text fill="#eeeeee" stroke="none" font-family="Arial" font-size="24px" font-style="normal" font-weight="normal" text-decoration="none" x="0" y="390"></text><text fill="#eeeeee" stroke="none" font-family="Arial" font-size="24px" font-style="normal" font-weight="normal" text-decoration="none" x="0" y="420"></text><text fill="#eeeeee" stroke="none" font-family="Arial" font-size="24px" font-style="normal" font-weight="normal" text-decoration="none" x="0" y="450"></text><text fill="#eeeeee" stroke="none" font-family="Arial" font-size="24px" font-style="normal" font-weight="normal" text-decoration="none" x="0" y="480"></text><text fill="#eeeeee" stroke="none" font-family="Arial" font-size="24px" font-style="normal" font-weight="normal" text-decoration="none" x="0" y="510"></text><text fill="#eeeeee" stroke="none" font-family="Arial" font-size="24px" font-style="normal" font-weight="normal" text-decoration="none" x="0" y="540"></text><text fill="#eeeeee" stroke="none" font-family="Arial" font-size="24px" font-style="normal" font-weight="normal" text-decoration="none" x="0" y="570"></text><text fill="#eeeeee" stroke="none" font-family="Arial" font-size="24px" font-style="normal" font-weight="normal" text-decoration="none" x="0" y="600"></text><text fill="#eeeeee" stroke="none" font-family="Arial" font-size="24px" font-style="normal" font-weight="normal" text-decoration="none" x="0" y="630"></text><text fill="#eeeeee" stroke="none" font-family="Arial" font-size="24px" font-style="normal" font-weight="normal" text-decoration="none" x="0" y="660"></text><text fill="#eeeeee" stroke="none" font-family="Arial" font-size="24px" font-style="normal" font-weight="normal" text-decoration="none" x="0" y="690"></text><text fill="#eeeeee" stroke="none" font-family="Arial" font-size="24px" font-style="normal" font-weight="normal" text-decoration="none" x="0" y="720"></text><text fill="#eeeeee" stroke="none" font-family="Arial" font-size="24px" font-style="normal" font-weight="normal" text-decoration="none" x="0" y="750"></text><text fill="#eeeeee" stroke="none" font-family="Arial" font-size="24px" font-style="normal" font-weight="normal" text-decoration="none" x="0" y="780"></text><text fill="#eeeeee" stroke="none" font-family="Arial" font-size="24px" font-style="normal" font-weight="normal" text-decoration="none" x="0" y="810"></text><text fill="#eeeeee" stroke="none" font-family="Arial" font-size="24px" font-style="normal" font-weight="normal" text-decoration="none" x="0" y="840"></text><text fill="#eeeeee" stroke="none" font-family="Arial" font-size="24px" font-style="normal" font-weight="normal" text-decoration="none" x="0" y="870"></text><text fill="#eeeeee" stroke="none" font-family="Arial" font-size="24px" font-style="normal" font-weight="normal" text-decoration="none" x="200" y="0"></text><text fill="#eeeeee" stroke="none" font-family="Arial" font-size="24px" font-style="normal" font-weight="normal" text-decoration="none" x="200" y="30"></text><text fill="#eeeeee" stroke="none" font-family="Arial" font-size="24px" font-style="normal" font-weight="normal" text-decoration="none" x="200" y="60"></text><text fill="#eeeeee" stroke="none" font-family="Arial" font-size="24px" font-style="normal" font-weight="normal" text-decoration="none" x="200" y="90"></text><text fill="#eeeeee" stroke="none" font-family="Arial" font-size="24px" font-style="normal" font-weight="normal" text-decoration="none" x="200" y="120"></text><text fill="#eeeeee" stroke="none" font-family="Arial" font-size="24px" font-style="normal" font-weight="normal" text-decoration="none" x="200" y="150"></text><text fill="#eeeeee" stroke="none" font-family="Arial" font-size="24px" font-style="normal" font-weight="normal" text-decoration="none" x="200" y="180"></text><text fill="#eeeeee" stroke="none" font-family="Arial" font-size="24px" font-style="normal" font-weight="normal" text-decoration="none" x="200" y="210"></text><text fill="#eeeeee" stroke="none" font-family="Arial" font-size="24px" font-style="normal" font-weight="normal" text-decoration="none" x="200" y="240"></text><text fill="#eeeeee" stroke="none" font-family="Arial" font-size="24px" font-style="normal" font-weight="normal" text-decoration="none" x="200" y="270"></text><text fill="#eeeeee" stroke="none" font-family="Arial" font-size="24px" font-style="normal" font-weight="normal" text-decoration="none" x="200" y="300"></text><text fill="#eeeeee" stroke="none" font-family="Arial" font-size="24px" font-style="normal" font-weight="normal" text-decoration="none" x="200" y="330"></text><text fill="#eeeeee" stroke="none" font-family="Arial" font-size="24px" font-style="normal" font-weight="normal" text-decoration="none" x="200" y="360"></text><text fill="#eeeeee" stroke="none" font-family="Arial" font-size="24px" font-style="normal" font-weight="normal" text-decoration="none" x="200" y="390"></text><text fill="#eeeeee" stroke="none" font-family="Arial" font-size="24px" font-style="normal" font-weight="normal" text-decoration="none" x="200" y="420"></text><text fill="#eeeeee" stroke="none" font-family="Arial" font-size="24px" font-style="normal" font-weight="normal" text-decoration="none" x="200" y="450"></text><text fill="#eeeeee" stroke="none" font-family="Arial" font-size="24px" font-style="normal" font-weight="normal" text-decoration="none" x="200" y="480"></text><text fill="#eeeeee" stroke="none" font-family="Arial" font-size="24px" font-style="normal" font-weight="normal" text-decoration="none" x="200" y="510"></text><text fill="#eeeeee" stroke="none" font-family="Arial" font-size="24px" font-style="normal" font-weight="normal" text-decoration="none" x="200" y="540"></text><text fill="#eeeeee" stroke="none" font-family="Arial" font-size="24px" font-style="normal" font-weight="normal" text-decoration="none" x="200" y="570"></text><text fill="#eeeeee" stroke="none" font-family="Arial" font-size="24px" font-style="normal" font-weight="normal" text-decoration="none" x="200" y="600"></text><text fill="#eeeeee" stroke="none" font-family="Arial" font-size="24px" font-style="normal" font-weight="normal" text-decoration="none" x="200" y="630"></text><text fill="#eeeeee" stroke="none" font-family="Arial" font-size="24px" font-style="normal" font-weight="normal" text-decoration="none" x="200" y="660"></text><text fill="#eeeeee" stroke="none" font-family="Arial" font-size="24px" font-style="normal" font-weight="normal" text-decoration="none" x="200" y="690"></text><text fill="#eeeeee" stroke="none" font-family="Arial" font-size="24px" font-style="normal" font-weight="normal" text-decoration="none" x="200" y="720"></text><text fill="#eeeeee" stroke="none" font-family="Arial" font-size="24px" font-style="normal" font-weight="normal" text-decoration="none" x="200" y="750"></text><text fill="#eeeeee" stroke="none" font-family="Arial" font-size="24px" font-style="normal" font-weight="normal" text-decoration="none" x="200" y="780"></text><text fill="#eeeeee" stroke="none" font-family="Arial" font-size="24px" font-style="normal" font-weight="normal" text-decoration="none" x="200" y="810"></text><text fill="#eeeeee" stroke="none" font-family="Arial" font-size="24px" font-style="normal" font-weight="normal" text-decoration="none" x="200" y="840"></text><text fill="#eeeeee" stroke="none" font-family="Arial" font-size="24px" font-style="normal" font-weight="normal" text-decoration="none" x="200" y="870"></text><text fill="#eeeeee" stroke="none" font-family="Arial" font-size="24px" font-style="normal" font-weight="normal" text-decoration="none" x="400" y="0"></text><text fill="#eeeeee" stroke="none" font-family="Arial" font-size="24px" font-style="normal" font-weight="normal" text-decoration="none" x="400" y="30"></text><text fill="#eeeeee" stroke="none" font-family="Arial" font-size="24px" font-style="normal" font-weight="normal" text-decoration="none" x="400" y="60"></text><text fill="#eeeeee" stroke="none" font-family="Arial" font-size="24px" font-style="normal" font-weight="normal" text-decoration="none" x="400" y="90"></text><text fill="#eeeeee" stroke="none" font-family="Arial" font-size="24px" font-style="normal" font-weight="normal" text-decoration="none" x="400" y="120"></text><text fill="#eeeeee" stroke="none" font-family="Arial" font-size="24px" font-style="normal" font-weight="normal" text-decoration="none" x="400" y="150"></text><text fill="#eeeeee" stroke="none" font-family="Arial" font-size="24px" font-style="normal" font-weight="normal" text-decoration="none" x="400" y="180"></text><text fill="#eeeeee" stroke="none" font-family="Arial" font-size="24px" font-style="normal" font-weight="normal" text-decoration="none" x="400" y="210"></text><text fill="#eeeeee" stroke="none" font-family="Arial" font-size="24px" font-style="normal" font-weight="normal" text-decoration="none" x="400" y="240"></text><text fill="#eeeeee" stroke="none" font-family="Arial" font-size="24px" font-style="normal" font-weight="normal" text-decoration="none" x="400" y="270"></text><text fill="#eeeeee" stroke="none" font-family="Arial" font-size="24px" font-style="normal" font-weight="normal" text-decoration="none" x="400" y="300"></text><text fill="#eeeeee" stroke="none" font-family="Arial" font-size="24px" font-style="normal" font-weight="normal" text-decoration="none" x="400" y="330"></text><text fill="#eeeeee" stroke="none" font-family="Arial" font-size="24px" font-style="normal" font-weight="normal" text-decoration="none" x="400" y="360"></text><text fill="#eeeeee" stroke="none" font-family="Arial" font-size="24px" font-style="normal" font-weight="normal" text-decoration="none" x="400" y="390"></text><text fill="#eeeeee" stroke="none" font-family="Arial" font-size="24px" font-style="normal" font-weight="normal" text-decoration="none" x="400" y="420"></text><text fill="#eeeeee" stroke="none" font-family="Arial" font-size="24px" font-style="normal" font-weight="normal" text-decoration="none" x="400" y="450"></text><text fill="#eeeeee" stroke="none" font-family="Arial" font-size="24px" font-style="normal" font-weight="normal" text-decoration="none" x="400" y="480"></text><text fill="#eeeeee" stroke="none" font-family="Arial" font-size="24px" font-style="normal" font-weight="normal" text-decoration="none" x="400" y="510"></text><text fill="#eeeeee" stroke="none" font-family="Arial" font-size="24px" font-style="normal" font-weight="normal" text-decoration="none" x="400" y="540"></text><text fill="#eeeeee" stroke="none" font-family="Arial" font-size="24px" font-style="normal" font-weight="normal" text-decoration="none" x="400" y="570"></text><text fill="#eeeeee" stroke="none" font-family="Arial" font-size="24px" font-style="normal" font-weight="normal" text-decoration="none" x="400" y="600"></text><text fill="#eeeeee" stroke="none" font-family="Arial" font-size="24px" font-style="normal" font-weight="normal" text-decoration="none" x="400" y="630"></text><text fill="#eeeeee" stroke="none" font-family="Arial" font-size="24px" font-style="normal" font-weight="normal" text-decoration="none" x="400" y="660"></text><text fill="#eeeeee" stroke="none" font-family="Arial" font-size="24px" font-style="normal" font-weight="normal" text-decoration="none" x="400" y="690"></text><text fill="#eeeeee" stroke="none" font-family="Arial" font-size="24px" font-style="normal" font-weight="normal" text-decoration="none" x="400" y="720"></text><text fill="#eeeeee" stroke="none" font-family="Arial" font-size="24px" font-style="normal" font-weight="normal" text-decoration="none" x="400" y="750"></text><text fill="#eeeeee" stroke="none" font-family="Arial" font-size="24px" font-style="normal" font-weight="normal" text-decoration="none" x="400" y="780"></text><text fill="#eeeeee" stroke="none" font-family="Arial" font-size="24px" font-style="normal" font-weight="normal" text-decoration="none" x="400" y="810"></text><text fill="#eeeeee" stroke="none" font-family="Arial" font-size="24px" font-style="normal" font-weight="normal" text-decoration="none" x="400" y="840"></text><text fill="#eeeeee" stroke="none" font-family="Arial" font-size="24px" font-style="normal" font-weight="normal" text-decoration="none" x="400" y="870"></text><text fill="#eeeeee" stroke="none" font-family="Arial" font-size="24px" font-style="normal" font-weight="normal" text-decoration="none" x="600" y="0"></text><text fill="#eeeeee" stroke="none" font-family="Arial" font-size="24px" font-style="normal" font-weight="normal" text-decoration="none" x="600" y="30"></text><text fill="#eeeeee" stroke="none" font-family="Arial" font-size="24px" font-style="normal" font-weight="normal" text-decoration="none" x="600" y="60"></text><text fill="#eeeeee" stroke="none" font-family="Arial" font-size="24px" font-style="normal" font-weight="normal" text-decoration="none" x="600" y="90"></text><text fill="#eeeeee" stroke="none" font-family="Arial" font-size="24px" font-style="normal" font-weight="normal" text-decoration="none" x="600" y="120"></text><text fill="#eeeeee" stroke="none" font-family="Arial" font-size="24px" font-style="normal" font-weight="normal" text-decoration="none" x="600" y="150"></text><text fill="#eeeeee" stroke="none" font-family="Arial" font-size="24px" font-style="normal" font-weight="normal" text-decoration="none" x="600" y="180"></text><text fill="#eeeeee" stroke="none" font-family="Arial" font-size="24px" font-style="normal" font-weight="normal" text-decoration="none" x="600" y="210"></text><text fill="#eeeeee" stroke="none" font-family="Arial" font-size="24px" font-style="normal" font-weight="normal" text-decoration="none" x="600" y="240"></text><text fill="#eeeeee" stroke="none" font-family="Arial" font-size="24px" font-style="normal" font-weight="normal" text-decoration="none" x="600" y="270"></text><text fill="#eeeeee" stroke="none" font-family="Arial" font-size="24px" font-style="normal" font-weight="normal" text-decoration="none" x="600" y="300"></text><text fill="#eeeeee" stroke="none" font-family="Arial" font-size="24px" font-style="normal" font-weight="normal" text-decoration="none" x="600" y="330"></text><text fill="#eeeeee" stroke="none" font-family="Arial" font-size="24px" font-style="normal" font-weight="normal" text-decoration="none" x="600" y="360"></text><text fill="#eeeeee" stroke="none" font-family="Arial" font-size="24px" font-style="normal" font-weight="normal" text-decoration="none" x="600" y="390"></text><text fill="#eeeeee" stroke="none" font-family="Arial" font-size="24px" font-style="normal" font-weight="normal" text-decoration="none" x="600" y="420"></text><text fill="#eeeeee" stroke="none" font-family="Arial" font-size="24px" font-style="normal" font-weight="normal" text-decoration="none" x="600" y="450"></text><text fill="#eeeeee" stroke="none" font-family="Arial" font-size="24px" font-style="normal" font-weight="normal" text-decoration="none" x="600" y="480"></text><text fill="#eeeeee" stroke="none" font-family="Arial" font-size="24px" font-style="normal" font-weight="normal" text-decoration="none" x="600" y="510"></text><text fill="#eeeeee" stroke="none" font-family="Arial" font-size="24px" font-style="normal" font-weight="normal" text-decoration="none" x="600" y="540"></text><text fill="#eeeeee" stroke="none" font-family="Arial" font-size="24px" font-style="normal" font-weight="normal" text-decoration="none" x="600" y="570"></text><text fill="#eeeeee" stroke="none" font-family="Arial" font-size="24px" font-style="normal" font-weight="normal" text-decoration="none" x="600" y="600"></text><text fill="#eeeeee" stroke="none" font-family="Arial" font-size="24px" font-style="normal" font-weight="normal" text-decoration="none" x="600" y="630"></text><text fill="#eeeeee" stroke="none" font-family="Arial" font-size="24px" font-style="normal" font-weight="normal" text-decoration="none" x="600" y="660"></text><text fill="#eeeeee" stroke="none" font-family="Arial" font-size="24px" font-style="normal" font-weight="normal" text-decoration="none" x="600" y="690"></text><text fill="#eeeeee" stroke="none" font-family="Arial" font-size="24px" font-style="normal" font-weight="normal" text-decoration="none" x="600" y="720"></text><text fill="#eeeeee" stroke="none" font-family="Arial" font-size="24px" font-style="normal" font-weight="normal" text-decoration="none" x="600" y="750"></text><text fill="#eeeeee" stroke="none" font-family="Arial" font-size="24px" font-style="normal" font-weight="normal" text-decoration="none" x="600" y="780"></text><text fill="#eeeeee" stroke="none" font-family="Arial" font-size="24px" font-style="normal" font-weight="normal" text-decoration="none" x="600" y="810"></text><text fill="#eeeeee" stroke="none" font-family="Arial" font-size="24px" font-style="normal" font-weight="normal" text-decoration="none" x="600" y="840"></text><text fill="#eeeeee" stroke="none" font-family="Arial" font-size="24px" font-style="normal" font-weight="normal" text-decoration="none" x="600" y="870"></text><text fill="#eeeeee" stroke="none" font-family="Arial" font-size="24px" font-style="normal" font-weight="normal" text-decoration="none" x="800" y="0"></text><text fill="#eeeeee" stroke="none" font-family="Arial" font-size="24px" font-style="normal" font-weight="normal" text-decoration="none" x="800" y="30"></text><text fill="#eeeeee" stroke="none" font-family="Arial" font-size="24px" font-style="normal" font-weight="normal" text-decoration="none" x="800" y="60"></text><text fill="#eeeeee" stroke="none" font-family="Arial" font-size="24px" font-style="normal" font-weight="normal" text-decoration="none" x="800" y="90"></text><text fill="#eeeeee" stroke="none" font-family="Arial" font-size="24px" font-style="normal" font-weight="normal" text-decoration="none" x="800" y="120"></text><text fill="#eeeeee" stroke="none" font-family="Arial" font-size="24px" font-style="normal" font-weight="normal" text-decoration="none" x="800" y="150"></text><text fill="#eeeeee" stroke="none" font-family="Arial" font-size="24px" font-style="normal" font-weight="normal" text-decoration="none" x="800" y="180"></text><text fill="#eeeeee" stroke="none" font-family="Arial" font-size="24px" font-style="normal" font-weight="normal" text-decoration="none" x="800" y="210"></text><text fill="#eeeeee" stroke="none" font-family="Arial" font-size="24px" font-style="normal" font-weight="normal" text-decoration="none" x="800" y="240"></text><text fill="#eeeeee" stroke="none" font-family="Arial" font-size="24px" font-style="normal" font-weight="normal" text-decoration="none" x="800" y="270"></text><text fill="#eeeeee" stroke="none" font-family="Arial" font-size="24px" font-style="normal" font-weight="normal" text-decoration="none" x="800" y="300"></text><text fill="#eeeeee" stroke="none" font-family="Arial" font-size="24px" font-style="normal" font-weight="normal" text-decoration="none" x="800" y="330"></text><text fill="#eeeeee" stroke="none" font-family="Arial" font-size="24px" font-style="normal" font-weight="normal" text-decoration="none" x="800" y="360"></text><text fill="#eeeeee" stroke="none" font-family="Arial" font-size="24px" font-style="normal" font-weight="normal" text-decoration="none" x="800" y="390"></text><text fill="#eeeeee" stroke="none" font-family="Arial" font-size="24px" font-style="normal" font-weight="normal" text-decoration="none" x="800" y="420"></text><text fill="#eeeeee" stroke="none" font-family="Arial" font-size="24px" font-style="normal" font-weight="normal" text-decoration="none" x="800" y="450"></text><text fill="#eeeeee" stroke="none" font-family="Arial" font-size="24px" font-style="normal" font-weight="normal" text-decoration="none" x="800" y="480"></text><text fill="#eeeeee" stroke="none" font-family="Arial" font-size="24px" font-style="normal" font-weight="normal" text-decoration="none" x="800" y="510"></text><text fill="#eeeeee" stroke="none" font-family="Arial" font-size="24px" font-style="normal" font-weight="normal" text-decoration="none" x="800" y="540"></text><text fill="#eeeeee" stroke="none" font-family="Arial" font-size="24px" font-style="normal" font-weight="normal" text-decoration="none" x="800" y="570"></text><text fill="#eeeeee" stroke="none" font-family="Arial" font-size="24px" font-style="normal" font-weight="normal" text-decoration="none" x="800" y="600"></text><text fill="#eeeeee" stroke="none" font-family="Arial" font-size="24px" font-style="normal" font-weight="normal" text-decoration="none" x="800" y="630"></text><text fill="#eeeeee" stroke="none" font-family="Arial" font-size="24px" font-style="normal" font-weight="normal" text-decoration="none" x="800" y="660"></text><text fill="#eeeeee" stroke="none" font-family="Arial" font-size="24px" font-style="normal" font-weight="normal" text-decoration="none" x="800" y="690"></text><text fill="#eeeeee" stroke="none" font-family="Arial" font-size="24px" font-style="normal" font-weight="normal" text-decoration="none" x="800" y="720"></text><text fill="#eeeeee" stroke="none" font-family="Arial" font-size="24px" font-style="normal" font-weight="normal" text-decoration="none" x="800" y="750"></text><text fill="#eeeeee" stroke="none" font-family="Arial" font-size="24px" font-style="normal" font-weight="normal" text-decoration="none" x="800" y="780"></text><text fill="#eeeeee" stroke="none" font-family="Arial" font-size="24px" font-style="normal" font-weight="normal" text-decoration="none" x="800" y="810"></text><text fill="#eeeeee" stroke="none" font-family="Arial" font-size="24px" font-style="normal" font-weight="normal" text-decoration="none" x="800" y="840"></text><text fill="#eeeeee" stroke="none" font-family="Arial" font-size="24px" font-style="normal" font-weight="normal" text-decoration="none" x="800" y="870"></text><text fill="#eeeeee" stroke="none" font-family="Arial" font-size="24px" font-style="normal" font-weight="normal" text-decoration="none" x="1000" y="0"></text><text fill="#eeeeee" stroke="none" font-family="Arial" font-size="24px" font-style="normal" font-weight="normal" text-decoration="none" x="1000" y="30"></text><text fill="#eeeeee" stroke="none" font-family="Arial" font-size="24px" font-style="normal" font-weight="normal" text-decoration="none" x="1000" y="60"></text><text fill="#eeeeee" stroke="none" font-family="Arial" font-size="24px" font-style="normal" font-weight="normal" text-decoration="none" x="1000" y="90"></text><text fill="#eeeeee" stroke="none" font-family="Arial" font-size="24px" font-style="normal" font-weight="normal" text-decoration="none" x="1000" y="120"></text><text fill="#eeeeee" stroke="none" font-family="Arial" font-size="24px" font-style="normal" font-weight="normal" text-decoration="none" x="1000" y="150"></text><text fill="#eeeeee" stroke="none" font-family="Arial" font-size="24px" font-style="normal" font-weight="normal" text-decoration="none" x="1000" y="180"></text><text fill="#eeeeee" stroke="none" font-family="Arial" font-size="24px" font-style="normal" font-weight="normal" text-decoration="none" x="1000" y="210"></text><text fill="#eeeeee" stroke="none" font-family="Arial" font-size="24px" font-style="normal" font-weight="normal" text-decoration="none" x="1000" y="240"></text><text fill="#eeeeee" stroke="none" font-family="Arial" font-size="24px" font-style="normal" font-weight="normal" text-decoration="none" x="1000" y="270"></text><text fill="#eeeeee" stroke="none" font-family="Arial" font-size="24px" font-style="normal" font-weight="normal" text-decoration="none" x="1000" y="300"></text><text fill="#eeeeee" stroke="none" font-family="Arial" font-size="24px" font-style="normal" font-weight="normal" text-decoration="none" x="1000" y="330"></text><text fill="#eeeeee" stroke="none" font-family="Arial" font-size="24px" font-style="normal" font-weight="normal" text-decoration="none" x="1000" y="360"></text><text fill="#eeeeee" stroke="none" font-family="Arial" font-size="24px" font-style="normal" font-weight="normal" text-decoration="none" x="1000" y="390"></text><text fill="#eeeeee" stroke="none" font-family="Arial" font-size="24px" font-style="normal" font-weight="normal" text-decoration="none" x="1000" y="420"></text><text fill="#eeeeee" stroke="none" font-family="Arial" font-size="24px" font-style="normal" font-weight="normal" text-decoration="none" x="1000" y="450"></text><text fill="#eeeeee" stroke="none" font-family="Arial" font-size="24px" font-style="normal" font-weight="normal" text-decoration="none" x="1000" y="480"></text><text fill="#eeeeee" stroke="none" font-family="Arial" font-size="24px" font-style="normal" font-weight="normal" text-decoration="none" x="1000" y="510"></text><text fill="#eeeeee" stroke="none" font-family="Arial" font-size="24px" font-style="normal" font-weight="normal" text-decoration="none" x="1000" y="540"></text><text fill="#eeeeee" stroke="none" font-family="Arial" font-size="24px" font-style="normal" font-weight="normal" text-decoration="none" x="1000" y="570"></text><text fill="#eeeeee" stroke="none" font-family="Arial" font-size="24px" font-style="normal" font-weight="normal" text-decoration="none" x="1000" y="600"></text><text fill="#eeeeee" stroke="none" font-family="Arial" font-size="24px" font-style="normal" font-weight="normal" text-decoration="none" x="1000" y="630"></text><text fill="#eeeeee" stroke="none" font-family="Arial" font-size="24px" font-style="normal" font-weight="normal" text-decoration="none" x="1000" y="660"></text><text fill="#eeeeee" stroke="none" font-family="Arial" font-size="24px" font-style="normal" font-weight="normal" text-decoration="none" x="1000" y="690"></text><text fill="#eeeeee" stroke="none" font-family="Arial" font-size="24px" font-style="normal" font-weight="normal" text-decoration="none" x="1000" y="720"></text><text fill="#eeeeee" stroke="none" font-family="Arial" font-size="24px" font-style="normal" font-weight="normal" text-decoration="none" x="1000" y="750"></text><text fill="#eeeeee" stroke="none" font-family="Arial" font-size="24px" font-style="normal" font-weight="normal" text-decoration="none" x="1000" y="780"></text><text fill="#eeeeee" stroke="none" font-family="Arial" font-size="24px" font-style="normal" font-weight="normal" text-decoration="none" x="1000" y="810"></text><text fill="#eeeeee" stroke="none" font-family="Arial" font-size="24px" font-style="normal" font-weight="normal" text-decoration="none" x="1000" y="840"></text><text fill="#eeeeee" stroke="none" font-family="Arial" font-size="24px" font-style="normal" font-weight="normal" text-decoration="none" x="1000" y="870"></text><g transform="translate(2,-214) scale(1,1)"><rect fill="#ffffff" stroke="none" x="120" y="224" width="232" height="21"/></g><g transform="translate(2,-214) scale(1,1)"><path fill="none" stroke="#000000" d="M 120 224 L 352 224 L 352 245 L 120 245 L 120 224 Z Z" stroke-miterlimit="10" stroke-width="2"/></g><g transform="translate(2,-214) scale(1,1)"><path fill="none" stroke="#000000" d="M 120 1088 L 120 224 L 352 224 L 352 1088" stroke-miterlimit="10" stroke-width="2"/></g><g transform="translate(2,-214) scale(1,1)"><g><path fill="none" stroke="none"/><text fill="#000000" stroke="none" font-family="Arial" font-size="13px" font-style="normal" font-weight="normal" text-decoration="none" x="222.2763671875" y="237">User</text></g></g><g transform="translate(2,-214) scale(1,1)"><rect fill="#ffffff" stroke="none" x="352" y="224" width="240" height="21"/></g><g transform="translate(2,-214) scale(1,1)"><path fill="none" stroke="#000000" d="M 352 224 L 592 224 L 592 245 L 352 245 L 352 224 Z Z" stroke-miterlimit="10" stroke-width="2"/></g><g transform="translate(2,-214) scale(1,1)"><path fill="none" stroke="#000000" d="M 352 1096 L 352 224 L 592 224 L 592 1096" stroke-miterlimit="10" stroke-width="2"/></g><g transform="translate(2,-214) scale(1,1)"><g><path fill="none" stroke="none"/><text fill="#000000" stroke="none" font-family="Arial" font-size="13px" font-style="normal" font-weight="normal" text-decoration="none" x="452.128662109375" y="237">Optour</text></g></g><g transform="translate(2,-214) scale(1,1)"><rect fill="#ffffff" stroke="none" x="592" y="224" width="240" height="21"/></g><g transform="translate(2,-214) scale(1,1)"><path fill="none" stroke="#000000" d="M 592 224 L 832 224 L 832 245 L 592 245 L 592 224 Z Z" stroke-miterlimit="10" stroke-width="2"/></g><g transform="translate(2,-214) scale(1,1)"><path fill="none" stroke="#000000" d="M 592 1088 L 592 224 L 832 224 L 832 1088" stroke-miterlimit="10" stroke-width="2"/></g><g transform="translate(2,-214) scale(1,1)"><g><path fill="none" stroke="none"/><text fill="#000000" stroke="none" font-family="Arial" font-size="13px" font-style="normal" font-weight="normal" text-decoration="none" x="684.1845703125" y="237">REST api</text></g></g><g transform="translate(2,-214) scale(1,1)"><rect fill="#ffffff" stroke="none" x="832" y="224" width="240" height="21"/></g><g transform="translate(2,-214) scale(1,1)"><path fill="none" stroke="#000000" d="M 832 224 L 1072 224 L 1072 245 L 832 245 L 832 224 Z Z" stroke-miterlimit="10" stroke-width="2"/></g><g transform="translate(2,-214) scale(1,1)"><path fill="none" stroke="#000000" d="M 832 1088 L 832 224 L 1072 224 L 1072 1088" stroke-miterlimit="10" stroke-width="2"/></g><g transform="translate(2,-214) scale(1,1)"><g><path fill="none" stroke="none"/><text fill="#000000" stroke="none" font-family="Arial" font-size="13px" font-style="normal" font-weight="normal" text-decoration="none" x="923.82275390625" y="237">Maps API</text></g></g><g transform="translate(2,-214) scale(1,1)"><path fill="#C0C0C0" stroke="none" d="M 215 296.5 C 215 291.2532944 219.2532944 287 224.5 287 C 229.7467056 287 234 291.2532944 234 296.5 C 234 301.7467056 229.7467056 306 224.5 306 C 219.2532944 306 215 301.7467056 215 296.5 Z" opacity="0.2"/></g><g transform="translate(2,-214) scale(1,1)"><path fill="#000000" stroke="none" d="M 208 289.5 C 208 284.2532944 212.2532944 280 217.5 280 C 222.7467056 280 227 284.2532944 227 289.5 C 227 294.7467056 222.7467056 299 217.5 299 C 212.2532944 299 208 294.7467056 208 289.5 Z"/></g><g transform="translate(2,-214) scale(1,1)"><path fill="#C0C0C0" stroke="none" d="M 177 399 L 289.53173828125 399 Q 299.53173828125 399 299.53173828125 409 L 299.53173828125 429 Q 299.53173828125 439 289.53173828125 439 L 177 439 Q 167 439 167 429 L 167 409 Q 167 399 177 399 Z" opacity="0.2"/></g><g transform="translate(2,-214) scale(1,1)"><path fill="#ffffff" stroke="none" d="M 170 392 L 282.53173828125 392 Q 292.53173828125 392 292.53173828125 402 L 292.53173828125 422 Q 292.53173828125 432 282.53173828125 432 L 170 432 Q 160 432 160 422 L 160 402 Q 160 392 170 392 Z"/></g><g transform="translate(2,-214) scale(1,1)"><path fill="none" stroke="#000000" d="M 170 392 L 282.53173828125 392 Q 292.53173828125 392 292.53173828125 402 L 292.53173828125 422 Q 292.53173828125 432 282.53173828125 432 L 170 432 Q 160 432 160 422 L 160 402 Q 160 392 170 392 Z" stroke-miterlimit="10"/></g><g transform="translate(2,-214) scale(1,1)"><g><path fill="none" stroke="none"/><text fill="#000000" stroke="none" font-family="Arial" font-size="13px" font-style="normal" font-weight="bold" text-decoration="none" x="164.5" y="409.5">Display lists of trips</text></g></g><g transform="translate(2,-214) scale(1,1)"><path fill="#C0C0C0" stroke="none" d="M 193 543 L 280.947265625 543 Q 290.947265625 543 290.947265625 553 L 290.947265625 573 Q 290.947265625 583 280.947265625 583 L 193 583 Q 183 583 183 573 L 183 553 Q 183 543 193 543 Z" opacity="0.2"/></g><g transform="translate(2,-214) scale(1,1)"><path fill="#ffffff" stroke="none" d="M 186 536 L 273.947265625 536 Q 283.947265625 536 283.947265625 546 L 283.947265625 566 Q 283.947265625 576 273.947265625 576 L 186 576 Q 176 576 176 566 L 176 546 Q 176 536 186 536 Z"/></g><g transform="translate(2,-214) scale(1,1)"><path fill="none" stroke="#000000" d="M 186 536 L 273.947265625 536 Q 283.947265625 536 283.947265625 546 L 283.947265625 566 Q 283.947265625 576 273.947265625 576 L 186 576 Q 176 576 176 566 L 176 546 Q 176 536 186 536 Z" stroke-miterlimit="10"/></g><g transform="translate(2,-214) scale(1,1)"><g><path fill="none" stroke="none"/><text fill="#000000" stroke="none" font-family="Arial" font-size="13px" font-style="normal" font-weight="bold" text-decoration="none" x="180.5" y="553.5">Choose one trip</text></g></g><g transform="translate(2,-214) scale(1,1)"><path fill="none" stroke="#000000" d="M 218 299 L 218 392" stroke-miterlimit="10"/></g><g transform="translate(2,-214) scale(1,1)"><path fill="none" stroke="#000000" d="M 213.790482243984 381.83732514237585 L 218 392 L 222.209517756016 381.83732514237585" stroke-miterlimit="10"/></g><g transform="translate(2,-214) scale(1,1)"><path fill="none" stroke="#000000" d="M 226 432 L 226 536" stroke-miterlimit="10"/></g><g transform="translate(2,-214) scale(1,1)"><path fill="none" stroke="#000000" d="M 221.790482243984 525.8373251423759 L 226 536 L 230.209517756016 525.8373251423759" stroke-miterlimit="10"/></g><g transform="translate(2,-214) scale(1,1)"><path fill="#C0C0C0" stroke="none" d="M 689 639 L 771.91357421875 639 Q 781.91357421875 639 781.91357421875 649 L 781.91357421875 669 Q 781.91357421875 679 771.91357421875 679 L 689 679 Q 679 679 679 669 L 679 649 Q 679 639 689 639 Z" opacity="0.2"/></g><g transform="translate(2,-214) scale(1,1)"><path fill="#ffffff" stroke="none" d="M 682 632 L 764.91357421875 632 Q 774.91357421875 632 774.91357421875 642 L 774.91357421875 662 Q 774.91357421875 672 764.91357421875 672 L 682 672 Q 672 672 672 662 L 672 642 Q 672 632 682 632 Z"/></g><g transform="translate(2,-214) scale(1,1)"><path fill="none" stroke="#000000" d="M 682 632 L 764.91357421875 632 Q 774.91357421875 632 774.91357421875 642 L 774.91357421875 662 Q 774.91357421875 672 764.91357421875 672 L 682 672 Q 672 672 672 662 L 672 642 Q 672 632 682 632 Z" stroke-miterlimit="10"/></g><g transform="translate(2,-214) scale(1,1)"><g><path fill="none" stroke="none"/><text fill="#000000" stroke="none" font-family="Arial" font-size="13px" font-style="normal" font-weight="bold" text-decoration="none" x="676.5" y="649.5">Get Trip details</text></g></g><g transform="translate(2,-214) scale(1,1)"><path fill="#C0C0C0" stroke="none" d="M 937 703 L 1013.4072265625 703 Q 1023.4072265625 703 1023.4072265625 713 L 1023.4072265625 733 Q 1023.4072265625 743 1013.4072265625 743 L 937 743 Q 927 743 927 733 L 927 713 Q 927 703 937 703 Z" opacity="0.2"/></g><g transform="translate(2,-214) scale(1,1)"><path fill="#ffffff" stroke="none" d="M 930 696 L 1006.4072265625 696 Q 1016.4072265625 696 1016.4072265625 706 L 1016.4072265625 726 Q 1016.4072265625 736 1006.4072265625 736 L 930 736 Q 920 736 920 726 L 920 706 Q 920 696 930 696 Z"/></g><g transform="translate(2,-214) scale(1,1)"><path fill="none" stroke="#000000" d="M 930 696 L 1006.4072265625 696 Q 1016.4072265625 696 1016.4072265625 706 L 1016.4072265625 726 Q 1016.4072265625 736 1006.4072265625 736 L 930 736 Q 920 736 920 726 L 920 706 Q 920 696 930 696 Z" stroke-miterlimit="10"/></g><g transform="translate(2,-214) scale(1,1)"><g><path fill="none" stroke="none"/><text fill="#000000" stroke="none" font-family="Arial" font-size="13px" font-style="normal" font-weight="bold" text-decoration="none" x="924.5" y="713.5">Get directions</text></g></g><g transform="translate(2,-214) scale(1,1)"><path fill="none" stroke="#000000" d="M 228 576 L 228 656 L 672 656" stroke-miterlimit="10"/></g><g transform="translate(2,-214) scale(1,1)"><path fill="none" stroke="#000000" d="M 661.8373251423759 660.209517756016 L 672 656 L 661.8373251423758 651.790482243984" stroke-miterlimit="10"/></g><g transform="translate(2,-214) scale(1,1)"><path fill="none" stroke="#000000" d="M 702 672 L 702 712 L 704 712 L 704 715 L 920 715" stroke-miterlimit="10"/></g><g transform="translate(2,-214) scale(1,1)"><path fill="none" stroke="#000000" d="M 909.8373251423759 719.209517756016 L 920 715 L 909.8373251423758 710.790482243984" stroke-miterlimit="10"/></g><g transform="translate(2,-214) scale(1,1)"><path fill="#C0C0C0" stroke="none" d="M 441 799 L 500.79541015625 799 Q 510.79541015625 799 510.79541015625 809 L 510.79541015625 829 Q 510.79541015625 839 500.79541015625 839 L 441 839 Q 431 839 431 829 L 431 809 Q 431 799 441 799 Z" opacity="0.2"/></g><g transform="translate(2,-214) scale(1,1)"><path fill="#ffffff" stroke="none" d="M 434 792 L 493.79541015625 792 Q 503.79541015625 792 503.79541015625 802 L 503.79541015625 822 Q 503.79541015625 832 493.79541015625 832 L 434 832 Q 424 832 424 822 L 424 802 Q 424 792 434 792 Z"/></g><g transform="translate(2,-214) scale(1,1)"><path fill="none" stroke="#000000" d="M 434 792 L 493.79541015625 792 Q 503.79541015625 792 503.79541015625 802 L 503.79541015625 822 Q 503.79541015625 832 493.79541015625 832 L 434 832 Q 424 832 424 822 L 424 802 Q 424 792 434 792 Z" stroke-miterlimit="10"/></g><g transform="translate(2,-214) scale(1,1)"><g><path fill="none" stroke="none"/><text fill="#000000" stroke="none" font-family="Arial" font-size="13px" font-style="normal" font-weight="bold" text-decoration="none" x="428.5" y="809.5">Display trip</text></g></g><g transform="translate(2,-214) scale(1,1)"><path fill="none" stroke="#000000" d="M 968 736 L 968 812 L 504 812" stroke-miterlimit="10"/></g><g transform="translate(2,-214) scale(1,1)"><path fill="none" stroke="#000000" d="M 514.1626748576241 807.790482243984 L 504 812 L 514.1626748576241 816.209517756016" stroke-miterlimit="10"/></g><g transform="translate(2,-214) scale(1,1)"><path fill="none" stroke="#0000d1" d="M 424 811 L 166 811 L 166 880" stroke-miterlimit="10"/></g><g transform="translate(2,-214) scale(1,1)"><path fill="none" stroke="#0000d1" d="M 161.790482243984 869.8373251423759 L 166 880 L 170.209517756016 869.8373251423759" stroke-miterlimit="10"/></g><g transform="translate(2,-214) scale(1,1)"><path fill="none" stroke="#0000d1" d="M 173 920 L 173 1000" stroke-miterlimit="10"/></g><g transform="translate(2,-214) scale(1,1)"><path fill="none" stroke="#0000d1" d="M 168.790482243984 989.8373251423759 L 173 1000 L 177.209517756016 989.8373251423759" stroke-miterlimit="10"/></g><g transform="translate(2,-214) scale(1,1)"><path fill="#ffffff" stroke="none" d="M 8 864 L 117 864 L 127 874 L 127 952 L 8 952 L 8 864"/></g><g transform="translate(2,-214) scale(1,1)"><path fill="none" stroke="#000000" d="M 8 864 L 117 864 L 127 874 L 127 952 L 8 952 L 8 864 L 8 864" stroke-miterlimit="10"/></g><g transform="translate(2,-214) scale(1,1)"><path fill="none" stroke="#000000" d="M 117 864 L 117 874 L 127 874 L 117 864" stroke-miterlimit="10"/></g><g transform="translate(2,-214) scale(1,1)"><g><path fill="none" stroke="none"/><text fill="#000000" stroke="none" font-family="Arial" font-size="13px" font-style="normal" font-weight="normal" text-decoration="none" x="13" y="878">Go back create trip</text><text fill="#000000" stroke="none" font-family="Arial" font-size="13px" font-style="normal" font-weight="normal" text-decoration="none" x="13" y="891">: points already</text><text fill="#000000" stroke="none" font-family="Arial" font-size="13px" font-style="normal" font-weight="normal" text-decoration="none" x="13" y="904">placed</text></g></g><g transform="translate(2,-214) scale(1,1)"><path fill="none" stroke="#000000" d="M 111 954 L 153 999" stroke-miterlimit="10" stroke-dasharray="3"/></g><g transform="translate(2,-214) scale(1,1)"><path fill="#C0C0C0" stroke="none" d="M 153 887 L 194 887 Q 204 887 204 897 L 204 917 Q 204 927 194 927 L 153 927 Q 143 927 143 917 L 143 897 Q 143 887 153 887 Z" opacity="0.2"/></g><g transform="translate(2,-214) scale(1,1)"><path fill="#ffffff" stroke="none" d="M 146 880 L 187 880 Q 197 880 197 890 L 197 910 Q 197 920 187 920 L 146 920 Q 136 920 136 910 L 136 890 Q 136 880 146 880 Z"/></g><g transform="translate(2,-214) scale(1,1)"><path fill="none" stroke="#0000d1" d="M 146 880 L 187 880 Q 197 880 197 890 L 197 910 Q 197 920 187 920 L 146 920 Q 136 920 136 910 L 136 890 Q 136 880 146 880 Z" stroke-miterlimit="10"/></g><g transform="translate(2,-214) scale(1,1)"><g><path fill="none" stroke="none"/><text fill="#0000d1" stroke="none" font-family="Arial" font-size="13px" font-style="normal" font-weight="bold" text-decoration="none" x="140.5" y="897.5">Edit Trip</text></g></g><g transform="translate(2,-214) scale(1,1)"><path fill="#C0C0C0" stroke="none" d="M 153 1007 L 207.01904296875 1007 Q 217.01904296875 1007 217.01904296875 1017 L 217.01904296875 1037 Q 217.01904296875 1047 207.01904296875 1047 L 153 1047 Q 143 1047 143 1037 L 143 1017 Q 143 1007 153 1007 Z" opacity="0.2"/></g><g transform="translate(2,-214) scale(1,1)"><path fill="#ffffff" stroke="none" d="M 146 1000 L 200.01904296875 1000 Q 210.01904296875 1000 210.01904296875 1010 L 210.01904296875 1030 Q 210.01904296875 1040 200.01904296875 1040 L 146 1040 Q 136 1040 136 1030 L 136 1010 Q 136 1000 146 1000 Z"/></g><g transform="translate(2,-214) scale(1,1)"><path fill="none" stroke="#0000d1" d="M 146 1000 L 200.01904296875 1000 Q 210.01904296875 1000 210.01904296875 1010 L 210.01904296875 1030 Q 210.01904296875 1040 200.01904296875 1040 L 146 1040 Q 136 1040 136 1030 L 136 1010 Q 136 1000 146 1000 Z" stroke-miterlimit="10"/></g><g transform="translate(2,-214) scale(1,1)"><g><path fill="none" stroke="none"/><text fill="#0000d1" stroke="none" font-family="Arial" font-size="13px" font-style="normal" font-weight="bold" text-decoration="none" x="140.5" y="1017.5">Create trip</text></g></g><g transform="translate(2,-214) scale(1,1)"><path fill="#C0C0C0" stroke="none" d="M 273 887 L 325.57177734375 887 Q 335.57177734375 887 335.57177734375 897 L 335.57177734375 917 Q 335.57177734375 927 325.57177734375 927 L 273 927 Q 263 927 263 917 L 263 897 Q 263 887 273 887 Z" opacity="0.2"/></g><g transform="translate(2,-214) scale(1,1)"><path fill="#ffffff" stroke="none" d="M 266 880 L 318.57177734375 880 Q 328.57177734375 880 328.57177734375 890 L 328.57177734375 910 Q 328.57177734375 920 318.57177734375 920 L 266 920 Q 256 920 256 910 L 256 890 Q 256 880 266 880 Z"/></g><g transform="translate(2,-214) scale(1,1)"><path fill="none" stroke="#00ffd4" d="M 266 880 L 318.57177734375 880 Q 328.57177734375 880 328.57177734375 890 L 328.57177734375 910 Q 328.57177734375 920 318.57177734375 920 L 266 920 Q 256 920 256 910 L 256 890 Q 256 880 266 880 Z" stroke-miterlimit="10"/></g><g transform="translate(2,-214) scale(1,1)"><g><path fill="none" stroke="none"/><text fill="#00ffd4" stroke="none" font-family="Arial" font-size="13px" font-style="normal" font-weight="bold" text-decoration="none" x="260.5" y="897.5">Delete trip</text></g></g><g transform="translate(2,-214) scale(1,1)"><path fill="#C0C0C0" stroke="none" d="M 657 951 L 747.12451171875 951 Q 757.12451171875 951 757.12451171875 961 L 757.12451171875 981 Q 757.12451171875 991 747.12451171875 991 L 657 991 Q 647 991 647 981 L 647 961 Q 647 951 657 951 Z" opacity="0.2"/></g><g transform="translate(2,-214) scale(1,1)"><path fill="#ffffff" stroke="none" d="M 650 944 L 740.12451171875 944 Q 750.12451171875 944 750.12451171875 954 L 750.12451171875 974 Q 750.12451171875 984 740.12451171875 984 L 650 984 Q 640 984 640 974 L 640 954 Q 640 944 650 944 Z"/></g><g transform="translate(2,-214) scale(1,1)"><path fill="none" stroke="#00ffd4" d="M 650 944 L 740.12451171875 944 Q 750.12451171875 944 750.12451171875 954 L 750.12451171875 974 Q 750.12451171875 984 740.12451171875 984 L 650 984 Q 640 984 640 974 L 640 954 Q 640 944 650 944 Z" stroke-miterlimit="10"/></g><g transform="translate(2,-214) scale(1,1)"><g><path fill="none" stroke="none"/><text fill="#00ffd4" stroke="none" font-family="Arial" font-size="13px" font-style="normal" font-weight="bold" text-decoration="none" x="644.5" y="961.5">Delete trip in DB</text></g></g><g transform="translate(2,-214) scale(1,1)"><path fill="none" stroke="#00ffd4" d="M 463 832 L 463 896 L 464 896 L 464 899 L 329 899" stroke-miterlimit="10"/></g><g transform="translate(2,-214) scale(1,1)"><path fill="none" stroke="#00ffd4" d="M 339.16267485762415 894.790482243984 L 329 899 L 339.16267485762415 903.209517756016" stroke-miterlimit="10"/></g><g transform="translate(2,-214) scale(1,1)"><path fill="none" stroke="#00ffd4" d="M 277 920 L 277 960 L 280 960 L 280 963 L 640 963" stroke-miterlimit="10"/></g><g transform="translate(2,-214) scale(1,1)"><path fill="none" stroke="#00ffd4" d="M 629.8373251423759 967.209517756016 L 640 963 L 629.8373251423758 958.790482243984" stroke-miterlimit="10"/></g></g></svg>