<svg version="1.1" xmlns="http://www.w3.org/2000/svg" xmlns:xlink="http://www.w3.org/1999/xlink" width="924" height="828"><defs/><g><text fill="#eeeeee" stroke="none" font-family="Arial" font-size="24px" font-style="normal" font-weight="normal" text-decoration="none" x="0" y="0"></text><text fill="#eeeeee" stroke="none" font-family="Arial" font-size="24px" font-style="normal" font-weight="normal" text-decoration="none" x="0" y="30"></text><text fill="#eeeeee" stroke="none" font-family="Arial" font-size="24px" font-style="normal" font-weight="normal" text-decoration="none" x="0" y="60"></text><text fill="#eeeeee" stroke="none" font-family="Arial" font-size="24px" font-style="normal" font-weight="normal" text-decoration="none" x="0" y="90"></text><text fill="#eeeeee" stroke="none" font-family="Arial" font-size="24px" font-style="normal" font-weight="normal" text-decoration="none" x="0" y="120"></text><text fill="#eeeeee" stroke="none" font-family="Arial" font-size="24px" font-style="normal" font-weight="normal" text-decoration="none" x="0" y="150"></text><text fill="#eeeeee" stroke="none" font-family="Arial" font-size="24px" font-style="normal" font-weight="normal" text-decoration="none" x="0" y="180"></text><text fill="#eeeeee" stroke="none" font-family="Arial" font-size="24px" font-style="normal" font-weight="normal" text-decoration="none" x="0" y="210"></text><text fill="#eeeeee" stroke="none" font-family="Arial" font-size="24px" font-style="normal" font-weight="normal" text-decoration="none" x="0" y="240"></text><text fill="#eeeeee" stroke="none" font-family="Arial" font-size="24px" font-style="normal" font-weight="normal" text-decoration="none" x="0" y="270"></text><text fill="#eeeeee" stroke="none" font-family="Arial" font-size="24px" font-style="normal" font-weight="normal" text-decoration="none" x="0" y="300"></text><text fill="#eeeeee" stroke="none" font-family="Arial" font-size="24px" font-style="normal" font-weight="normal" text-decoration="none" x="0" y="330"></text><text fill="#eeeeee" stroke="none" font-family="Arial" font-size="24px" font-style="normal" font-weight="normal" text-decoration="none" x="0" y="360"></text><text fill="#eeeeee" stroke="none" font-family="Arial" font-size="24px" font-style="normal" font-weight="normal" text-decoration="none" x="0" y="390"></text><text fill="#eeeeee" stroke="none" font-family="Arial" font-size="24px" font-style="normal" font-weight="normal" text-decoration="none" x="0" y="420"></text><text fill="#eeeeee" stroke="none" font-family="Arial" font-size="24px" font-style="normal" font-weight="normal" text-decoration="none" x="0" y="450"></text><text fill="#eeeeee" stroke="none" font-family="Arial" font-size="24px" font-style="normal" font-weight="normal" text-decoration="none" x="0" y="480"></text><text fill="#eeeeee" stroke="none" font-family="Arial" font-size="24px" font-style="normal" font-weight="normal" text-decoration="none" x="0" y="510"></text><text fill="#eeeeee" stroke="none" font-family="Arial" font-size="24px" font-style="normal" font-weight="normal" text-decoration="none" x="0" y="540"></text><text fill="#eeeeee" stroke="none" font-family="Arial" font-size="24px" font-style="normal" font-weight="normal" text-decoration="none" x="0" y="570"></text><text fill="#eeeeee" stroke="none" font-family="Arial" font-size="24px" font-style="normal" font-weight="normal" text-decoration="none" x="0" y="600"></text><text fill="#eeeeee" stroke="none" font-family="Arial" font-size="24px" font-style="normal" font-weight="normal" text-decoration="none" x="0" y="630"></text><text fill="#eeeeee" stroke="none" font-family="Arial" font-size="24px" font-style="normal" font-weight="normal" text-decoration="none" x="0" y="660"></text><text fill="#eeeeee" stroke="none" font-family="Arial" font-size="24px" font-style="normal" font-weight="normal" text-decoration="none" x="0" y="690"></text><text fill="#eeeeee" stroke="none" font-family="Arial" font-size="24px" font-style="normal" font-weight="normal" text-decoration="none" x="0" y="720"></text><text fill="#eeeeee" stroke="none" font-family="Arial" font-size="24px" font-style="normal" font-weight="normal" text-decoration="none" x="0" y="750"></text><text fill="#eeeeee" stroke="none" font-family="Arial" font-size="24px" font-style="normal" font-weight="normal" text-decoration="none" x="0" y="780"></text><text fill="#eeeeee" stroke="none" font-family="Arial" font-size="24px" font-style="normal" font-weight="normal" text-decoration="none" x="0" y="810"></text><text fill="#eeeeee" stroke="none" font-family="Arial" font-size="24px" font-style="normal" font-weight="normal" text-decoration="none" x="200" y="0"></text><text fill="#eeeeee" stroke="none" font-family="Arial" font-size="24px" font-style="normal" font-weight="normal" text-decoration="none" x="200" y="30"></text><text fill="#eeeeee" stroke="none" font-family="Arial" font-size="24px" font-style="normal" font-weight="normal" text-decoration="none" x="200" y="60"></text><text fill="#eeeeee" stroke="none" font-family="Arial" font-size="24px" font-style="normal" font-weight="normal" text-decoration="none" x="200" y="90"></text><text fill="#eeeeee" stroke="none" font-family="Arial" font-size="24px" font-style="normal" font-weight="normal" text-decoration="none" x="200" y="120"></text><text fill="#eeeeee" stroke="none" font-family="Arial" font-size="24px" font-style="normal" font-weight="normal" text-decoration="none" x="200" y="150"></text><text fill="#eeeeee" stroke="none" font-family="Arial" font-size="24px" font-style="normal" font-weight="normal" text-decoration="none" x="200" y="180"></text><text fill="#eeeeee" stroke="none" font-family="Arial" font-size="24px" font-style="normal" font-weight="normal" text-decoration="none" x="200" y="210"></text><text fill="#eeeeee" stroke="none" font-family="Arial" font-size="24px" font-style="normal" font-weight="normal" text-decoration="none" x="200" y="240"></text><text fill="#eeeeee" stroke="none" font-family="Arial" font-size="24px" font-style="normal" font-weight="normal" text-decoration="none" x="200" y="270"></text><text fill="#eeeeee" stroke="none" font-family="Arial" font-size="24px" font-style="normal" font-weight="normal" text-decoration="none" x="200" y="300"></text><text fill="#eeeeee" stroke="none" font-family="Arial" font-size="24px" font-style="normal" font-weight="normal" text-decoration="none" x="200" y="330"></text><text fill="#eeeeee" stroke="none" font-family="Arial" font-size="24px" font-style="normal" font-weight="normal" text-decoration="none" x="200" y="360"></text><text fill="#eeeeee" stroke="none" font-family="Arial" font-size="24px" font-style="normal" font-weight="normal" text-decoration="none" x="200" y="390"></text><text fill="#eeeeee" stroke="none" font-family="Arial" font-size="24px" font-style="normal" font-weight="normal" text-decoration="none" x="200" y="420"></text><text fill="#eeeeee" stroke="none" font-family="Arial" font-size="24px" font-style="normal" font-weight="normal" text-decoration="none" x="200" y="450"></text><text fill="#eeeeee" stroke="none" font-family="Arial" font-size="24px" font-style="normal" font-weight="normal" text-decoration="none" x="200" y="480"></text><text fill="#eeeeee" stroke="none" font-family="Arial" font-size="24px" font-style="normal" font-weight="normal" text-decoration="none" x="200" y="510"></text><text fill="#eeeeee" stroke="none" font-family="Arial" font-size="24px" font-style="normal" font-weight="normal" text-decoration="none" x="200" y="540"></text><text fill="#eeeeee" stroke="none" font-family="Arial" font-size="24px" font-style="normal" font-weight="normal" text-decoration="none" x="200" y="570"></text><text fill="#eeeeee" stroke="none" font-family="Arial" font-size="24px" font-style="normal" font-weight="normal" text-decoration="none" x="200" y="600"></text><text fill="#eeeeee" stroke="none" font-family="Arial" font-size="24px" font-style="normal" font-weight="normal" text-decoration="none" x="200" y="630"></text><text fill="#eeeeee" stroke="none" font-family="Arial" font-size="24px" font-style="normal" font-weight="normal" text-decoration="none" x="200" y="660"></text><text fill="#eeeeee" stroke="none" font-family="Arial" font-size="24px" font-style="normal" font-weight="normal" text-decoration="none" x="200" y="690"></text><text fill="#eeeeee" stroke="none" font-family="Arial" font-size="24px" font-style="normal" font-weight="normal" text-decoration="none" x="200" y="720"></text><text fill="#eeeeee" stroke="none" font-family="Arial" font-size="24px" font-style="normal" font-weight="normal" text-decoration="none" x="200" y="750"></text><text fill="#eeeeee" stroke="none" font-family="Arial" font-size="24px" font-style="normal" font-weight="normal" text-decoration="none" x="200" y="780"></text><text fill="#eeeeee" stroke="none" font-family="Arial" font-size="24px" font-style="normal" font-weight="normal" text-decoration="none" x="200" y="810"></text><text fill="#eeeeee" stroke="none" font-family="Arial" font-size="24px" font-style="normal" font-weight="normal" text-decoration="none" x="400" y="0"></text><text fill="#eeeeee" stroke="none" font-family="Arial" font-size="24px" font-style="normal" font-weight="normal" text-decoration="none" x="400" y="30"></text><text fill="#eeeeee" stroke="none" font-family="Arial" font-size="24px" font-style="normal" font-weight="normal" text-decoration="none" x="400" y="60"></text><text fill="#eeeeee" stroke="none" font-family="Arial" font-size="24px" font-style="normal" font-weight="normal" text-decoration="none" x="400" y="90"></text><text fill="#eeeeee" stroke="none" font-family="Arial" font-size="24px" font-style="normal" font-weight="normal" text-decoration="none" x="400" y="120"></text><text fill="#eeeeee" stroke="none" font-family="Arial" font-size="24px" font-style="normal" font-weight="normal" text-decoration="none" x="400" y="150"></text><text fill="#eeeeee" stroke="none" font-family="Arial" font-size="24px" font-style="normal" font-weight="normal" text-decoration="none" x="400" y="180"></text><text fill="#eeeeee" stroke="none" font-family="Arial" font-size="24px" font-style="normal" font-weight="normal" text-decoration="none" x="400" y="210"></text><text fill="#eeeeee" stroke="none" font-family="Arial" font-size="24px" font-style="normal" font-weight="normal" text-decoration="none" x="400" y="240"></text><text fill="#eeeeee" stroke="none" font-family="Arial" font-size="24px" font-style="normal" font-weight="normal" text-decoration="none" x="400" y="270"></text><text fill="#eeeeee" stroke="none" font-family="Arial" font-size="24px" font-style="normal" font-weight="normal" text-decoration="none" x="400" y="300"></text><text fill="#eeeeee" stroke="none" font-family="Arial" font-size="24px" font-style="normal" font-weight="normal" text-decoration="none" x="400" y="330"></text><text fill="#eeeeee" stroke="none" font-family="Arial" font-size="24px" font-style="normal" font-weight="normal" text-decoration="none" x="400" y="360"></text><text fill="#eeeeee" stroke="none" font-family="Arial" font-size="24px" font-style="normal" font-weight="normal" text-decoration="none" x="400" y="390"></text><text fill="#eeeeee" stroke="none" font-family="Arial" font-size="24px" font-style="normal" font-weight="normal" text-decoration="none" x="400" y="420"></text><text fill="#eeeeee" stroke="none" font-family="Arial" font-size="24px" font-style="normal" font-weight="normal" text-decoration="none" x="400" y="450"></text><text fill="#eeeeee" stroke="none" font-family="Arial" font-size="24px" font-style="normal" font-weight="normal" text-decoration="none" x="400" y="480"></text><text fill="#eeeeee" stroke="none" font-family="Arial" font-size="24px" font-style="normal" font-weight="normal" text-decoration="none" x="400" y="510"></text><text fill="#eeeeee" stroke="none" font-family="Arial" font-size="24px" font-style="normal" font-weight="normal" text-decoration="none" x="400" y="540"></text><text fill="#eeeeee" stroke="none" font-family="Arial" font-size="24px" font-style="normal" font-weight="normal" text-decoration="none" x="400" y="570"></text><text fill="#eeeeee" stroke="none" font-family="Arial" font-size="24px" font-style="normal" font-weight="normal" text-decoration="none" x="400" y="600"></text><text fill="#eeeeee" stroke="none" font-family="Arial" font-size="24px" font-style="normal" font-weight="normal" text-decoration="none" x="400" y="630"></text><text fill="#eeeeee" stroke="none" font-family="Arial" font-size="24px" font-style="normal" font-weight="normal" text-decoration="none" x="400" y="660"></text><text fill="#eeeeee" stroke="none" font-family="Arial" font-size="24px" font-style="normal" font-weight="normal" text-decoration="none" x="400" y="690"></text><text fill="#eeeeee" stroke="none" font-family="Arial" font-size="24px" font-style="normal" font-weight="normal" text-decoration="none" x="400" y="720"></text><text fill="#eeeeee" stroke="none" font-family="Arial" font-size="24px" font-style="normal" font-weight="normal" text-decoration="none" x="400" y="750"></text><text fill="#eeeeee" stroke="none" font-family="Arial" font-size="24px" font-style="normal" font-weight="normal" text-decoration="none" x="400" y="780"></text><text fill="#eeeeee" stroke="none" font-family="Arial" font-size="24px" font-style="normal" font-weight="normal" text-decoration="none" x="400" y="810"></text><text fill="#eeeeee" stroke="none" font-family="Arial" font-size="24px" font-style="normal" font-weight="normal" text-decoration="none" x="600" y="0"></text><text fill="#eeeeee" stroke="none" font-family="Arial" font-size="24px" font-style="normal" font-weight="normal" text-decoration="none" x="600" y="30"></text><text fill="#eeeeee" stroke="none" font-family="Arial" font-size="24px" font-style="normal" font-weight="normal" text-decoration="none" x="600" y="60"></text><text fill="#eeeeee" stroke="none" font-family="Arial" font-size="24px" font-style="normal" font-weight="normal" text-decoration="none" x="600" y="90"></text><text fill="#eeeeee" stroke="none" font-family="Arial" font-size="24px" font-style="normal" font-weight="normal" text-decoration="none" x="600" y="120"></text><text fill="#eeeeee" stroke="none" font-family="Arial" font-size="24px" font-style="normal" font-weight="normal" text-decoration="none" x="600" y="150"></text><text fill="#eeeeee" stroke="none" font-family="Arial" font-size="24px" font-style="normal" font-weight="normal" text-decoration="none" x="600" y="180"></text><text fill="#eeeeee" stroke="none" font-family="Arial" font-size="24px" font-style="normal" font-weight="normal" text-decoration="none" x="600" y="210"></text><text fill="#eeeeee" stroke="none" font-family="Arial" font-size="24px" font-style="normal" font-weight="normal" text-decoration="none" x="600" y="240"></text><text fill="#eeeeee" stroke="none" font-family="Arial" font-size="24px" font-style="normal" font-weight="normal" text-decoration="none" x="600" y="270"></text><text fill="#eeeeee" stroke="none" font-family="Arial" font-size="24px" font-style="normal" font-weight="normal" text-decoration="none" x="600" y="300"></text><text fill="#eeeeee" stroke="none" font-family="Arial" font-size="24px" font-style="normal" font-weight="normal" text-decoration="none" x="600" y="330"></text><text fill="#eeeeee" stroke="none" font-family="Arial" font-size="24px" font-style="normal" font-weight="normal" text-decoration="none" x="600" y="360"></text><text fill="#eeeeee" stroke="none" font-family="Arial" font-size="24px" font-style="normal" font-weight="normal" text-decoration="none" x="600" y="390"></text><text fill="#eeeeee" stroke="none" font-family="Arial" font-size="24px" font-style="normal" font-weight="normal" text-decoration="none" x="600" y="420"></text><text fill="#eeeeee" stroke="none" font-family="Arial" font-size="24px" font-style="normal" font-weight="normal" text-decoration="none" x="600" y="450"></text><text fill="#eeeeee" stroke="none" font-family="Arial" font-size="24px" font-style="normal" font-weight="normal" text-decoration="none" x="600" y="480"></text><text fill="#eeeeee" stroke="none" font-family="Arial" font-size="24px" font-style="normal" font-weight="normal" text-decoration="none" x="600" y="510"></text><text fill="#eeeeee" stroke="none" font-family="Arial" font-size="24px" font-style="normal" font-weight="normal" text-decoration="none" x="600" y="540"></text><text fill="#eeeeee" stroke="none" font-family="Arial" font-size="24px" font-style="normal" font-weight="normal" text-decoration="none" x="600" y="570"></text><text fill="#eeeeee" stroke="none" font-family="Arial" font-size="24px" font-style="normal" font-weight="normal" text-decoration="none" x="600" y="600"></text><text fill="#eeeeee" stroke="none" font-family="Arial" font-size="24px" font-style="normal" font-weight="normal" text-decoration="none" x="600" y="630"></text><text fill="#eeeeee" stroke="none" font-family="Arial" font-size="24px" font-style="normal" font-weight="normal" text-decoration="none" x="600" y="660"></text><text fill="#eeeeee" stroke="none" font-family="Arial" font-size="24px" font-style="normal" font-weight="normal" text-decoration="none" x="600" y="690"></text><text fill="#eeeeee" stroke="none" font-family="Arial" font-size="24px" font-style="normal" font-weight="normal" text-decoration="none" x="600" y="720"></text><text fill="#eeeeee" stroke="none" font-family="Arial" font-size="24px" font-style="normal" font-weight="normal" text-decoration="none" x="600" y="750"></text><text fill="#eeeeee" stroke="none" font-family="Arial" font-size="24px" font-style="normal" font-weight="normal" text-decoration="none" x="600" y="780"></text><text fill="#eeeeee" stroke="none" font-family="Arial" font-size="24px" font-style="normal" font-weight="normal" text-decoration="none" x="600" y="810"></text><text fill="#eeeeee" stroke="none" font-family="Arial" font-size="24px" font-style="normal" font-weight="normal" text-decoration="none" x="800" y="0"></text><text fill="#eeeeee" stroke="none" font-family="Arial" font-size="24px" font-style="normal" font-weight="normal" text-decoration="none" x="800" y="30"></text><text fill="#eeeeee" stroke="none" font-family="Arial" font-size="24px" font-style="normal" font-weight="normal" text-decoration="none" x="800" y="60"></text><text fill="#eeeeee" stroke="none" font-family="Arial" font-size="24px" font-style="normal" font-weight="normal" text-decoration="none" x="800" y="90"></text><text fill="#eeeeee" stroke="none" font-family="Arial" font-size="24px" font-style="normal" font-weight="normal" text-decoration="none" x="800" y="120"></text><text fill="#eeeeee" stroke="none" font-family="Arial" font-size="24px" font-style="normal" font-weight="normal" text-decoration="none" x="800" y="150"></text><text fill="#eeeeee" stroke="none" font-family="Arial" font-size="24px" font-style="normal" font-weight="normal" text-decoration="none" x="800" y="180"></text><text fill="#eeeeee" stroke="none" font-family="Arial" font-size="24px" font-style="normal" font-weight="normal" text-decoration="none" x="800" y="210"></text><text fill="#eeeeee" stroke="none" font-family="Arial" font-size="24px" font-style="normal" font-weight="normal" text-decoration="none" x="800" y="240"></text><text fill="#eeeeee" stroke="none" font-family="Arial" font-size="24px" font-style="normal" font-weight="normal" text-decoration="none" x="800" y="270"></text><text fill="#eeeeee" stroke="none" font-family="Arial" font-size="24px" font-style="normal" font-weight="normal" text-decoration="none" x="800" y="300"></text><text fill="#eeeeee" stroke="none" font-family="Arial" font-size="24px" font-style="normal" font-weight="normal" text-decoration="none" x="800" y="330"></text><text fill="#eeeeee" stroke="none" font-family="Arial" font-size="24px" font-style="normal" font-weight="normal" text-decoration="none" x="800" y="360"></text><text fill="#eeeeee" stroke="none" font-family="Arial" font-size="24px" font-style="normal" font-weight="normal" text-decoration="none" x="800" y="390"></text><text fill="#eeeeee" stroke="none" font-family="Arial" font-size="24px" font-style="normal" font-weight="normal" text-decoration="none" x="800" y="420"></text><text fill="#eeeeee" stroke="none" font-family="Arial" font-size="24px" font-style="normal" font-weight="normal" text-decoration="none" x="800" y="450"></text><text fill="#eeeeee" stroke="none" font-family="Arial" font-size="24px" font-style="normal" font-weight="normal" text-decoration="none" x="800" y="480"></text><text fill="#eeeeee" stroke="none" font-family="Arial" font-size="24px" font-style="normal" font-weight="normal" text-decoration="none" x="800" y="510"></text><text fill="#eeeeee" stroke="none" font-family="Arial" font-size="24px" font-style="normal" font-weight="normal" text-decoration="none" x="800" y="540"></text><text fill="#eeeeee" stroke="none" font-family="Arial" font-size="24px" font-style="normal" font-weight="normal" text-decoration="none" x="800" y="570"></text><text fill="#eeeeee" stroke="none" font-family="Arial" font-size="24px" font-style="normal" font-weight="normal" text-decoration="none" x="800" y="600"></text><text fill="#eeeeee" stroke="none" font-family="Arial" font-size="24px" font-style="normal" font-weight="normal" text-decoration="none" x="800" y="630"></text><text fill="#eeeeee" stroke="none" font-family="Arial" font-size="24px" font-style="normal" font-weight="normal" text-decoration="none" x="800" y="660"></text><text fill="#eeeeee" stroke="none" font-family="Arial" font-size="24px" font-style="normal" font-weight="normal" text-decoration="none" x="800" y="690"></text><text fill="#eeeeee" stroke="none" font-family="Arial" font-size="24px" font-style="normal" font-weight="normal" text-decoration="none" x="800" y="720"></text><text fill="#eeeeee" stroke="none" font-family="Arial" font-size="24px" font-style="normal" font-weight="normal" text-decoration="none" x="800" y="750"></text><text fill="#eeeeee" stroke="none" font-family="Arial" font-size="24px" font-style="normal" font-weight="normal" text-decoration="none" x="800" y="780"></text><text fill="#eeeeee" stroke="none" font-family="Arial" font-size="24px" font-style="normal" font-weight="normal" text-decoration="none" x="800" y="810"></text><g transform="translate(-318,-182) scale(1,1)"><rect fill="#ffffff" stroke="none" x="616" y="192" width="304" height="21"/></g><g transform="translate(-318,-182) scale(1,1)"><path fill="none" stroke="#000000" d="M 616 192 L 920 192 L 920 213 L 616 213 L 616 192 Z Z" stroke-miterlimit="10" stroke-width="2"/></g><g transform="translate(-318,-182) scale(1,1)"><path fill="none" stroke="#000000" d="M 616 1000 L 616 192 L 920 192 L 920 1000" stroke-miterlimit="10" stroke-width="2"/></g><g transform="translate(-318,-182) scale(1,1)"><g><path fill="none" stroke="none"/><text fill="#000000" stroke="none" font-family="Arial" font-size="13px" font-style="normal" font-weight="normal" text-decoration="none" x="748.128662109375" y="205">Optour</text></g></g><g transform="translate(-318,-182) scale(1,1)"><path fill="#C0C0C0" stroke="none" d="M 721 407 L 811.8671875 407 Q 821.8671875 407 821.8671875 417 L 821.8671875 437 Q 821.8671875 447 811.8671875 447 L 721 447 Q 711 447 711 437 L 711 417 Q 711 407 721 407 Z" opacity="0.2"/></g><g transform="translate(-318,-182) scale(1,1)"><path fill="#ffffff" stroke="none" d="M 714 400 L 804.8671875 400 Q 814.8671875 400 814.8671875 410 L 814.8671875 430 Q 814.8671875 440 804.8671875 440 L 714 440 Q 704 440 704 430 L 704 410 Q 704 400 714 400 Z"/></g><g transform="translate(-318,-182) scale(1,1)"><path fill="none" stroke="#000000" d="M 714 400 L 804.8671875 400 Q 814.8671875 400 814.8671875 410 L 814.8671875 430 Q 814.8671875 440 804.8671875 440 L 714 440 Q 704 440 704 430 L 704 410 Q 704 400 714 400 Z" stroke-miterlimit="10"/></g><g transform="translate(-318,-182) scale(1,1)"><g><path fill="none" stroke="none"/><text fill="#000000" stroke="none" font-family="Arial" font-size="13px" font-style="normal" font-weight="bold" text-decoration="none" x="708.5" y="417.5">Display user trip</text></g></g><g transform="translate(-318,-182) scale(1,1)"><rect fill="#ffffff" stroke="none" x="328" y="192" width="288" height="21"/></g><g transform="translate(-318,-182) scale(1,1)"><path fill="none" stroke="#000000" d="M 328 192 L 616 192 L 616 213 L 328 213 L 328 192 Z Z" stroke-miterlimit="10" stroke-width="2"/></g><g transform="translate(-318,-182) scale(1,1)"><path fill="none" stroke="#000000" d="M 328 1000 L 328 192 L 616 192 L 616 1000" stroke-miterlimit="10" stroke-width="2"/></g><g transform="translate(-318,-182) scale(1,1)"><g><path fill="none" stroke="none"/><text fill="#000000" stroke="none" font-family="Arial" font-size="13px" font-style="normal" font-weight="normal" text-decoration="none" x="458.2763671875" y="205">User</text></g></g><g transform="translate(-318,-182) scale(1,1)"><rect fill="#ffffff" stroke="none" x="920" y="192" width="312" height="21"/></g><g transform="translate(-318,-182) scale(1,1)"><path fill="none" stroke="#000000" d="M 920 192 L 1232 192 L 1232 213 L 920 213 L 920 192 Z Z" stroke-miterlimit="10" stroke-width="2"/></g><g transform="translate(-318,-182) scale(1,1)"><path fill="none" stroke="#000000" d="M 920 1000 L 920 192 L 1232 192 L 1232 1000" stroke-miterlimit="10" stroke-width="2"/></g><g transform="translate(-318,-182) scale(1,1)"><g><path fill="none" stroke="none"/><text fill="#000000" stroke="none" font-family="Arial" font-size="13px" font-style="normal" font-weight="normal" text-decoration="none" x="1046.3818359375" y="205">REST API</text></g></g><g transform="translate(-318,-182) scale(1,1)"><path fill="#C0C0C0" stroke="none" d="M 751 264.5 C 751 259.2532944 755.2532944 255 760.5 255 C 765.7467056 255 770 259.2532944 770 264.5 C 770 269.7467056 765.7467056 274 760.5 274 C 755.2532944 274 751 269.7467056 751 264.5 Z" opacity="0.2"/></g><g transform="translate(-318,-182) scale(1,1)"><path fill="#000000" stroke="none" d="M 744 257.5 C 744 252.2532944 748.2532944 248 753.5 248 C 758.7467056 248 763 252.2532944 763 257.5 C 763 262.7467056 758.7467056 267 753.5 267 C 748.2532944 267 744 262.7467056 744 257.5 Z"/></g><g transform="translate(-318,-182) scale(1,1)"><path fill="none" stroke="#000000" d="M 764 257 L 1039 260" stroke-miterlimit="10"/></g><g transform="translate(-318,-182) scale(1,1)"><path fill="none" stroke="#000000" d="M 1028.7920105299763 264.0984083471377 L 1039 260 L 1028.8838490891328 255.67987375779805" stroke-miterlimit="10"/></g><g transform="translate(-318,-182) scale(1,1)"><path fill="#C0C0C0" stroke="none" d="M 1057 247 L 1130.525390625 247 Q 1140.525390625 247 1140.525390625 257 L 1140.525390625 277 Q 1140.525390625 287 1130.525390625 287 L 1057 287 Q 1047 287 1047 277 L 1047 257 Q 1047 247 1057 247 Z" opacity="0.2"/></g><g transform="translate(-318,-182) scale(1,1)"><path fill="#ffffff" stroke="none" d="M 1050 240 L 1123.525390625 240 Q 1133.525390625 240 1133.525390625 250 L 1133.525390625 270 Q 1133.525390625 280 1123.525390625 280 L 1050 280 Q 1040 280 1040 270 L 1040 250 Q 1040 240 1050 240 Z"/></g><g transform="translate(-318,-182) scale(1,1)"><path fill="none" stroke="#000000" d="M 1050 240 L 1123.525390625 240 Q 1133.525390625 240 1133.525390625 250 L 1133.525390625 270 Q 1133.525390625 280 1123.525390625 280 L 1050 280 Q 1040 280 1040 270 L 1040 250 Q 1040 240 1050 240 Z" stroke-miterlimit="10"/></g><g transform="translate(-318,-182) scale(1,1)"><g><path fill="none" stroke="none"/><text fill="#000000" stroke="none" font-family="Arial" font-size="13px" font-style="normal" font-weight="bold" text-decoration="none" x="1044.5" y="257.5">Get user trips</text></g></g><g transform="translate(-318,-182) scale(1,1)"><path fill="none" stroke="#000000" d="M 1086 280 L 1086 416 L 1088 416 L 1088 419 L 815 419" stroke-miterlimit="10"/></g><g transform="translate(-318,-182) scale(1,1)"><path fill="none" stroke="#000000" d="M 825.1626748576241 414.790482243984 L 815 419 L 825.1626748576241 423.209517756016" stroke-miterlimit="10"/></g><g transform="translate(-318,-182) scale(1,1)"><path fill="#C0C0C0" stroke="none" d="M 743 587.5 C 743 580.59644 748.59644 575 755.5 575 C 762.40356 575 768 580.59644 768 587.5 C 768 594.40356 762.40356 600 755.5 600 C 748.59644 600 743 594.40356 743 587.5 Z" opacity="0.2"/></g><g transform="translate(-318,-182) scale(1,1)"><path fill="none" stroke="#000000" d="M 736 580.5 C 736 573.59644 741.59644 568 748.5 568 C 755.40356 568 761 573.59644 761 580.5 C 761 587.40356 755.40356 593 748.5 593 C 741.59644 593 736 587.40356 736 580.5 Z" stroke-miterlimit="10"/></g><g transform="translate(-318,-182) scale(1,1)"><path fill="#000000" stroke="none" d="M 741 580.5 C 741 576.357864 744.357864 573 748.5 573 C 752.642136 573 756 576.357864 756 580.5 C 756 584.642136 752.642136 588 748.5 588 C 744.357864 588 741 584.642136 741 580.5 Z"/></g><g transform="translate(-318,-182) scale(1,1)"><path fill="none" stroke="#000000" d="M 471 408 L 735 572" stroke-miterlimit="10"/></g><g transform="translate(-318,-182) scale(1,1)"><path fill="none" stroke="#000000" d="M 724.1461129492321 570.2130652252607 L 735 572 L 728.5886965609254 563.0615891674129" stroke-miterlimit="10"/></g><g transform="translate(-318,-182) scale(1,1)"><g><path fill="none" stroke="none"/><text fill="#000000" stroke="none" font-family="Arial" font-size="13px" font-style="normal" font-weight="normal" text-decoration="none" x="662.5" y="498.5">trips ok</text></g></g><g transform="translate(-318,-182) scale(1,1)"><path fill="none" stroke="#000000" d="M 704 401 L 470 401" stroke-miterlimit="10"/></g><g transform="translate(-318,-182) scale(1,1)"><path fill="none" stroke="#000000" d="M 480.16267485762415 396.790482243984 L 470 401 L 480.16267485762415 405.209517756016" stroke-miterlimit="10"/></g><g transform="translate(-318,-182) scale(1,1)"><path fill="#C0C0C0" stroke="none" d="M 441 495 L 497.91357421875 495 Q 507.91357421875 495 507.91357421875 505 L 507.91357421875 525 Q 507.91357421875 535 497.91357421875 535 L 441 535 Q 431 535 431 525 L 431 505 Q 431 495 441 495 Z" opacity="0.2"/></g><g transform="translate(-318,-182) scale(1,1)"><path fill="#ffffff" stroke="none" d="M 434 488 L 490.91357421875 488 Q 500.91357421875 488 500.91357421875 498 L 500.91357421875 518 Q 500.91357421875 528 490.91357421875 528 L 434 528 Q 424 528 424 518 L 424 498 Q 424 488 434 488 Z"/></g><g transform="translate(-318,-182) scale(1,1)"><path fill="none" stroke="#000000" d="M 434 488 L 490.91357421875 488 Q 500.91357421875 488 500.91357421875 498 L 500.91357421875 518 Q 500.91357421875 528 490.91357421875 528 L 434 528 Q 424 528 424 518 L 424 498 Q 424 488 434 488 Z" stroke-miterlimit="10"/></g><g transform="translate(-318,-182) scale(1,1)"><g><path fill="none" stroke="none"/><text fill="#000000" stroke="none" font-family="Arial" font-size="13px" font-style="normal" font-weight="bold" text-decoration="none" x="428.5" y="505.5">Search trip</text></g></g><g transform="translate(-318,-182) scale(1,1)"><path fill="none" stroke="#000000" d="M 464 410 L 464 488" stroke-miterlimit="10"/></g><g transform="translate(-318,-182) scale(1,1)"><path fill="none" stroke="#000000" d="M 459.790482243984 477.83732514237585 L 464 488 L 468.209517756016 477.83732514237585" stroke-miterlimit="10"/></g><g transform="translate(-318,-182) scale(1,1)"><g><path fill="none" stroke="none"/><text fill="#000000" stroke="none" font-family="Arial" font-size="13px" font-style="normal" font-weight="normal" text-decoration="none" x="389.009521484375" y="441.5">trips not ok</text></g></g><g transform="translate(-318,-182) scale(1,1)"><path fill="#C0C0C0" stroke="none" d="M 1033 639 L 1153.4853515625 639 Q 1163.4853515625 639 1163.4853515625 649 L 1163.4853515625 669 Q 1163.4853515625 679 1153.4853515625 679 L 1033 679 Q 1023 679 1023 669 L 1023 649 Q 1023 639 1033 639 Z" opacity="0.2"/></g><g transform="translate(-318,-182) scale(1,1)"><path fill="#ffffff" stroke="none" d="M 1026 632 L 1146.4853515625 632 Q 1156.4853515625 632 1156.4853515625 642 L 1156.4853515625 662 Q 1156.4853515625 672 1146.4853515625 672 L 1026 672 Q 1016 672 1016 662 L 1016 642 Q 1016 632 1026 632 Z"/></g><g transform="translate(-318,-182) scale(1,1)"><path fill="none" stroke="#000000" d="M 1026 632 L 1146.4853515625 632 Q 1156.4853515625 632 1156.4853515625 642 L 1156.4853515625 662 Q 1156.4853515625 672 1146.4853515625 672 L 1026 672 Q 1016 672 1016 662 L 1016 642 Q 1016 632 1026 632 Z" stroke-miterlimit="10"/></g><g transform="translate(-318,-182) scale(1,1)"><g><path fill="none" stroke="none"/><text fill="#000000" stroke="none" font-family="Arial" font-size="13px" font-style="normal" font-weight="bold" text-decoration="none" x="1020.5" y="649.5">Get trips from search</text></g></g><g transform="translate(-318,-182) scale(1,1)"><path fill="none" stroke="#000000" d="M 462 529 L 464 648 L 1015 652" stroke-miterlimit="10"/></g><g transform="translate(-318,-182) scale(1,1)"><path fill="none" stroke="#000000" d="M 1004.8070346147244 656.1356325579738 L 1015 652 L 1004.8681512294327 647.7168188819111" stroke-miterlimit="10"/></g><g transform="translate(-318,-182) scale(1,1)"><path fill="#C0C0C0" stroke="none" d="M 729 743 L 841.55712890625 743 Q 851.55712890625 743 851.55712890625 753 L 851.55712890625 773 Q 851.55712890625 783 841.55712890625 783 L 729 783 Q 719 783 719 773 L 719 753 Q 719 743 729 743 Z" opacity="0.2"/></g><g transform="translate(-318,-182) scale(1,1)"><path fill="#ffffff" stroke="none" d="M 722 736 L 834.55712890625 736 Q 844.55712890625 736 844.55712890625 746 L 844.55712890625 766 Q 844.55712890625 776 834.55712890625 776 L 722 776 Q 712 776 712 766 L 712 746 Q 712 736 722 736 Z"/></g><g transform="translate(-318,-182) scale(1,1)"><path fill="none" stroke="#000000" d="M 722 736 L 834.55712890625 736 Q 844.55712890625 736 844.55712890625 746 L 844.55712890625 766 Q 844.55712890625 776 834.55712890625 776 L 722 776 Q 712 776 712 766 L 712 746 Q 712 736 722 736 Z" stroke-miterlimit="10"/></g><g transform="translate(-318,-182) scale(1,1)"><g><path fill="none" stroke="none"/><text fill="#000000" stroke="none" font-family="Arial" font-size="13px" font-style="normal" font-weight="bold" text-decoration="none" x="716.5" y="753.5">Display search trips</text></g></g><g transform="translate(-318,-182) scale(1,1)"><path fill="none" stroke="#000000" d="M 1086 672 L 1086 752 L 1088 752 L 1088 755 L 845 755" stroke-miterlimit="10"/></g><g transform="translate(-318,-182) scale(1,1)"><path fill="none" stroke="#000000" d="M 855.1626748576241 750.790482243984 L 845 755 L 855.1626748576241 759.209517756016" stroke-miterlimit="10"/></g><g transform="translate(-318,-182) scale(1,1)"><path fill="#C0C0C0" stroke="none" d="M 767 939.5 C 767 932.59644 772.59644 927 779.5 927 C 786.40356 927 792 932.59644 792 939.5 C 792 946.40356 786.40356 952 779.5 952 C 772.59644 952 767 946.40356 767 939.5 Z" opacity="0.2"/></g><g transform="translate(-318,-182) scale(1,1)"><path fill="none" stroke="#000000" d="M 760 932.5 C 760 925.59644 765.59644 920 772.5 920 C 779.40356 920 785 925.59644 785 932.5 C 785 939.40356 779.40356 945 772.5 945 C 765.59644 945 760 939.40356 760 932.5 Z" stroke-miterlimit="10"/></g><g transform="translate(-318,-182) scale(1,1)"><path fill="#000000" stroke="none" d="M 765 932.5 C 765 928.357864 768.357864 925 772.5 925 C 776.642136 925 780 928.357864 780 932.5 C 780 936.642136 776.642136 940 772.5 940 C 768.357864 940 765 936.642136 765 932.5 Z"/></g><g transform="translate(-318,-182) scale(1,1)"><path fill="#C0C0C0" stroke="none" d="M 495 848.5 L 506.5 839 L 517 848.5 L 506.5 857 L 495 848.5" opacity="0.2"/></g><g transform="translate(-318,-182) scale(1,1)"><path fill="#ffffff" stroke="none" d="M 488 841 L 499 832 L 510 841 L 499 850 L 488 841"/></g><g transform="translate(-318,-182) scale(1,1)"><path fill="none" stroke="#000000" d="M 488 841 L 499 832 L 510 841 L 499 850 L 488 841 L 488 841" stroke-miterlimit="10"/></g><g transform="translate(-318,-182) scale(1,1)"><path fill="#C0C0C0" stroke="none" d="M 455 408.5 L 466.5 399 L 477 408.5 L 466.5 417 L 455 408.5" opacity="0.2"/></g><g transform="translate(-318,-182) scale(1,1)"><path fill="#ffffff" stroke="none" d="M 448 401 L 459 392 L 470 401 L 459 410 L 448 401"/></g><g transform="translate(-318,-182) scale(1,1)"><path fill="none" stroke="#000000" d="M 448 401 L 459 392 L 470 401 L 459 410 L 448 401 L 448 401" stroke-miterlimit="10"/></g><g transform="translate(-318,-182) scale(1,1)"><path fill="none" stroke="#000000" d="M 778 777 L 776 840 L 511 841" stroke-miterlimit="10"/></g><g transform="translate(-318,-182) scale(1,1)"><path fill="none" stroke="#000000" d="M 521.1467176408765 836.7521627719126 L 511 841 L 521.1784873600062 845.1711383412917" stroke-miterlimit="10"/></g><g transform="translate(-318,-182) scale(1,1)"><path fill="none" stroke="#000000" d="M 499 850 L 499 928 L 496 928 L 496 932 L 760 932" stroke-miterlimit="10"/></g><g transform="translate(-318,-182) scale(1,1)"><path fill="none" stroke="#000000" d="M 749.8373251423759 936.209517756016 L 760 932 L 749.8373251423758 927.790482243984" stroke-miterlimit="10"/></g><g transform="translate(-318,-182) scale(1,1)"><g><path fill="none" stroke="none"/><text fill="#000000" stroke="none" font-family="Arial" font-size="13px" font-style="normal" font-weight="normal" text-decoration="none" x="511.5" y="914.5">trips ok</text></g></g><g transform="translate(-318,-182) scale(1,1)"><path fill="none" stroke="#000000" d="M 488 841 L 376 841 L 376 506 L 424 506" stroke-miterlimit="10"/></g><g transform="translate(-318,-182) scale(1,1)"><path fill="none" stroke="#000000" d="M 413.83732514237585 510.209517756016 L 424 506 L 413.83732514237585 501.790482243984" stroke-miterlimit="10"/></g><g transform="translate(-318,-182) scale(1,1)"><g><path fill="none" stroke="none"/><text fill="#000000" stroke="none" font-family="Arial" font-size="13px" font-style="normal" font-weight="normal" text-decoration="none" x="383.5" y="745.5">trips not ok</text></g></g></g></svg>