<svg version="1.1" xmlns="http://www.w3.org/2000/svg" xmlns:xlink="http://www.w3.org/1999/xlink" width="413" height="661"><defs/><g><text fill="#eeeeee" stroke="none" font-family="Arial" font-size="24px" font-style="normal" font-weight="normal" text-decoration="none" x="0" y="0"></text><text fill="#eeeeee" stroke="none" font-family="Arial" font-size="24px" font-style="normal" font-weight="normal" text-decoration="none" x="0" y="30"></text><text fill="#eeeeee" stroke="none" font-family="Arial" font-size="24px" font-style="normal" font-weight="normal" text-decoration="none" x="0" y="60"></text><text fill="#eeeeee" stroke="none" font-family="Arial" font-size="24px" font-style="normal" font-weight="normal" text-decoration="none" x="0" y="90"></text><text fill="#eeeeee" stroke="none" font-family="Arial" font-size="24px" font-style="normal" font-weight="normal" text-decoration="none" x="0" y="120"></text><text fill="#eeeeee" stroke="none" font-family="Arial" font-size="24px" font-style="normal" font-weight="normal" text-decoration="none" x="0" y="150"></text><text fill="#eeeeee" stroke="none" font-family="Arial" font-size="24px" font-style="normal" font-weight="normal" text-decoration="none" x="0" y="180"></text><text fill="#eeeeee" stroke="none" font-family="Arial" font-size="24px" font-style="normal" font-weight="normal" text-decoration="none" x="0" y="210"></text><text fill="#eeeeee" stroke="none" font-family="Arial" font-size="24px" font-style="normal" font-weight="normal" text-decoration="none" x="0" y="240"></text><text fill="#eeeeee" stroke="none" font-family="Arial" font-size="24px" font-style="normal" font-weight="normal" text-decoration="none" x="0" y="270"></text><text fill="#eeeeee" stroke="none" font-family="Arial" font-size="24px" font-style="normal" font-weight="normal" text-decoration="none" x="0" y="300"></text><text fill="#eeeeee" stroke="none" font-family="Arial" font-size="24px" font-style="normal" font-weight="normal" text-decoration="none" x="0" y="330"></text><text fill="#eeeeee" stroke="none" font-family="Arial" font-size="24px" font-style="normal" font-weight="normal" text-decoration="none" x="0" y="360"></text><text fill="#eeeeee" stroke="none" font-family="Arial" font-size="24px" font-style="normal" font-weight="normal" text-decoration="none" x="0" y="390"></text><text fill="#eeeeee" stroke="none" font-family="Arial" font-size="24px" font-style="normal" font-weight="normal" text-decoration="none" x="0" y="420"></text><text fill="#eeeeee" stroke="none" font-family="Arial" font-size="24px" font-style="normal" font-weight="normal" text-decoration="none" x="0" y="450"></text><text fill="#eeeeee" stroke="none" font-family="Arial" font-size="24px" font-style="normal" font-weight="normal" text-decoration="none" x="0" y="480"></text><text fill="#eeeeee" stroke="none" font-family="Arial" font-size="24px" font-style="normal" font-weight="normal" text-decoration="none" x="0" y="510"></text><text fill="#eeeeee" stroke="none" font-family="Arial" font-size="24px" font-style="normal" font-weight="normal" text-decoration="none" x="0" y="540"></text><text fill="#eeeeee" stroke="none" font-family="Arial" font-size="24px" font-style="normal" font-weight="normal" text-decoration="none" x="0" y="570"></text><text fill="#eeeeee" stroke="none" font-family="Arial" font-size="24px" font-style="normal" font-weight="normal" text-decoration="none" x="0" y="600"></text><text fill="#eeeeee" stroke="none" font-family="Arial" font-size="24px" font-style="normal" font-weight="normal" text-decoration="none" x="0" y="630"></text><text fill="#eeeeee" stroke="none" font-family="Arial" font-size="24px" font-style="normal" font-weight="normal" text-decoration="none" x="0" y="660"></text><text fill="#eeeeee" stroke="none" font-family="Arial" font-size="24px" font-style="normal" font-weight="normal" text-decoration="none" x="200" y="0"></text><text fill="#eeeeee" stroke="none" font-family="Arial" font-size="24px" font-style="normal" font-weight="normal" text-decoration="none" x="200" y="30"></text><text fill="#eeeeee" stroke="none" font-family="Arial" font-size="24px" font-style="normal" font-weight="normal" text-decoration="none" x="200" y="60"></text><text fill="#eeeeee" stroke="none" font-family="Arial" font-size="24px" font-style="normal" font-weight="normal" text-decoration="none" x="200" y="90"></text><text fill="#eeeeee" stroke="none" font-family="Arial" font-size="24px" font-style="normal" font-weight="normal" text-decoration="none" x="200" y="120"></text><text fill="#eeeeee" stroke="none" font-family="Arial" font-size="24px" font-style="normal" font-weight="normal" text-decoration="none" x="200" y="150"></text><text fill="#eeeeee" stroke="none" font-family="Arial" font-size="24px" font-style="normal" font-weight="normal" text-decoration="none" x="200" y="180"></text><text fill="#eeeeee" stroke="none" font-family="Arial" font-size="24px" font-style="normal" font-weight="normal" text-decoration="none" x="200" y="210"></text><text fill="#eeeeee" stroke="none" font-family="Arial" font-size="24px" font-style="normal" font-weight="normal" text-decoration="none" x="200" y="240"></text><text fill="#eeeeee" stroke="none" font-family="Arial" font-size="24px" font-style="normal" font-weight="normal" text-decoration="none" x="200" y="270"></text><text fill="#eeeeee" stroke="none" font-family="Arial" font-size="24px" font-style="normal" font-weight="normal" text-decoration="none" x="200" y="300"></text><text fill="#eeeeee" stroke="none" font-family="Arial" font-size="24px" font-style="normal" font-weight="normal" text-decoration="none" x="200" y="330"></text><text fill="#eeeeee" stroke="none" font-family="Arial" font-size="24px" font-style="normal" font-weight="normal" text-decoration="none" x="200" y="360"></text><text fill="#eeeeee" stroke="none" font-family="Arial" font-size="24px" font-style="normal" font-weight="normal" text-decoration="none" x="200" y="390"></text><text fill="#eeeeee" stroke="none" font-family="Arial" font-size="24px" font-style="normal" font-weight="normal" text-decoration="none" x="200" y="420"></text><text fill="#eeeeee" stroke="none" font-family="Arial" font-size="24px" font-style="normal" font-weight="normal" text-decoration="none" x="200" y="450"></text><text fill="#eeeeee" stroke="none" font-family="Arial" font-size="24px" font-style="normal" font-weight="normal" text-decoration="none" x="200" y="480"></text><text fill="#eeeeee" stroke="none" font-family="Arial" font-size="24px" font-style="normal" font-weight="normal" text-decoration="none" x="200" y="510"></text><text fill="#eeeeee" stroke="none" font-family="Arial" font-size="24px" font-style="normal" font-weight="normal" text-decoration="none" x="200" y="540"></text><text fill="#eeeeee" stroke="none" font-family="Arial" font-size="24px" font-style="normal" font-weight="normal" text-decoration="none" x="200" y="570"></text><text fill="#eeeeee" stroke="none" font-family="Arial" font-size="24px" font-style="normal" font-weight="normal" text-decoration="none" x="200" y="600"></text><text fill="#eeeeee" stroke="none" font-family="Arial" font-size="24px" font-style="normal" font-weight="normal" text-decoration="none" x="200" y="630"></text><text fill="#eeeeee" stroke="none" font-family="Arial" font-size="24px" font-style="normal" font-weight="normal" text-decoration="none" x="200" y="660"></text><text fill="#eeeeee" stroke="none" font-family="Arial" font-size="24px" font-style="normal" font-weight="normal" text-decoration="none" x="400" y="0"></text><text fill="#eeeeee" stroke="none" font-family="Arial" font-size="24px" font-style="normal" font-weight="normal" text-decoration="none" x="400" y="30"></text><text fill="#eeeeee" stroke="none" font-family="Arial" font-size="24px" font-style="normal" font-weight="normal" text-decoration="none" x="400" y="60"></text><text fill="#eeeeee" stroke="none" font-family="Arial" font-size="24px" font-style="normal" font-weight="normal" text-decoration="none" x="400" y="90"></text><text fill="#eeeeee" stroke="none" font-family="Arial" font-size="24px" font-style="normal" font-weight="normal" text-decoration="none" x="400" y="120"></text><text fill="#eeeeee" stroke="none" font-family="Arial" font-size="24px" font-style="normal" font-weight="normal" text-decoration="none" x="400" y="150"></text><text fill="#eeeeee" stroke="none" font-family="Arial" font-size="24px" font-style="normal" font-weight="normal" text-decoration="none" x="400" y="180"></text><text fill="#eeeeee" stroke="none" font-family="Arial" font-size="24px" font-style="normal" font-weight="normal" text-decoration="none" x="400" y="210"></text><text fill="#eeeeee" stroke="none" font-family="Arial" font-size="24px" font-style="normal" font-weight="normal" text-decoration="none" x="400" y="240"></text><text fill="#eeeeee" stroke="none" font-family="Arial" font-size="24px" font-style="normal" font-weight="normal" text-decoration="none" x="400" y="270"></text><text fill="#eeeeee" stroke="none" font-family="Arial" font-size="24px" font-style="normal" font-weight="normal" text-decoration="none" x="400" y="300"></text><text fill="#eeeeee" stroke="none" font-family="Arial" font-size="24px" font-style="normal" font-weight="normal" text-decoration="none" x="400" y="330"></text><text fill="#eeeeee" stroke="none" font-family="Arial" font-size="24px" font-style="normal" font-weight="normal" text-decoration="none" x="400" y="360"></text><text fill="#eeeeee" stroke="none" font-family="Arial" font-size="24px" font-style="normal" font-weight="normal" text-decoration="none" x="400" y="390"></text><text fill="#eeeeee" stroke="none" font-family="Arial" font-size="24px" font-style="normal" font-weight="normal" text-decoration="none" x="400" y="420"></text><text fill="#eeeeee" stroke="none" font-family="Arial" font-size="24px" font-style="normal" font-weight="normal" text-decoration="none" x="400" y="450"></text><text fill="#eeeeee" stroke="none" font-family="Arial" font-size="24px" font-style="normal" font-weight="normal" text-decoration="none" x="400" y="480"></text><text fill="#eeeeee" stroke="none" font-family="Arial" font-size="24px" font-style="normal" font-weight="normal" text-decoration="none" x="400" y="510"></text><text fill="#eeeeee" stroke="none" font-family="Arial" font-size="24px" font-style="normal" font-weight="normal" text-decoration="none" x="400" y="540"></text><text fill="#eeeeee" stroke="none" font-family="Arial" font-size="24px" font-style="normal" font-weight="normal" text-decoration="none" x="400" y="570"></text><text fill="#eeeeee" stroke="none" font-family="Arial" font-size="24px" font-style="normal" font-weight="normal" text-decoration="none" x="400" y="600"></text><text fill="#eeeeee" stroke="none" font-family="Arial" font-size="24px" font-style="normal" font-weight="normal" text-decoration="none" x="400" y="630"></text><text fill="#eeeeee" stroke="none" font-family="Arial" font-size="24px" font-style="normal" font-weight="normal" text-decoration="none" x="400" y="660"></text><g transform="translate(-670,-222) scale(1,1)"><path fill="#C0C0C0" stroke="none" d="M 751 248.5 C 751 243.2532944 755.2532944 239 760.5 239 C 765.7467056 239 770 243.2532944 770 248.5 C 770 253.7467056 765.7467056 258 760.5 258 C 755.2532944 258 751 253.7467056 751 248.5 Z" opacity="0.2"/></g><g transform="translate(-670,-222) scale(1,1)"><path fill="#000000" stroke="none" d="M 744 241.5 C 744 236.2532944 748.2532944 232 753.5 232 C 758.7467056 232 763 236.2532944 763 241.5 C 763 246.7467056 758.7467056 251 753.5 251 C 748.2532944 251 744 246.7467056 744 241.5 Z"/></g><g transform="translate(-670,-222) scale(1,1)"><path fill="#C0C0C0" stroke="none" d="M 751 867.5 C 751 860.59644 756.59644 855 763.5 855 C 770.40356 855 776 860.59644 776 867.5 C 776 874.40356 770.40356 880 763.5 880 C 756.59644 880 751 874.40356 751 867.5 Z" opacity="0.2"/></g><g transform="translate(-670,-222) scale(1,1)"><path fill="none" stroke="#000000" d="M 744 860.5 C 744 853.59644 749.59644 848 756.5 848 C 763.40356 848 769 853.59644 769 860.5 C 769 867.40356 763.40356 873 756.5 873 C 749.59644 873 744 867.40356 744 860.5 Z" stroke-miterlimit="10"/></g><g transform="translate(-670,-222) scale(1,1)"><path fill="#000000" stroke="none" d="M 749 860.5 C 749 856.357864 752.357864 853 756.5 853 C 760.642136 853 764 856.357864 764 860.5 C 764 864.642136 760.642136 868 756.5 868 C 752.357864 868 749 864.642136 749 860.5 Z"/></g><g transform="translate(-670,-222) scale(1,1)"><path fill="#C0C0C0" stroke="none" d="M 713 335 L 810.33544921875 335 Q 820.33544921875 335 820.33544921875 345 L 820.33544921875 365 Q 820.33544921875 375 810.33544921875 375 L 713 375 Q 703 375 703 365 L 703 345 Q 703 335 713 335 Z" opacity="0.2"/></g><g transform="translate(-670,-222) scale(1,1)"><path fill="#ffffff" stroke="none" d="M 706 328 L 803.33544921875 328 Q 813.33544921875 328 813.33544921875 338 L 813.33544921875 358 Q 813.33544921875 368 803.33544921875 368 L 706 368 Q 696 368 696 358 L 696 338 Q 696 328 706 328 Z"/></g><g transform="translate(-670,-222) scale(1,1)"><path fill="none" stroke="#000000" d="M 706 328 L 803.33544921875 328 Q 813.33544921875 328 813.33544921875 338 L 813.33544921875 358 Q 813.33544921875 368 803.33544921875 368 L 706 368 Q 696 368 696 358 L 696 338 Q 696 328 706 328 Z" stroke-miterlimit="10"/></g><g transform="translate(-670,-222) scale(1,1)"><g><path fill="none" stroke="none"/><text fill="#000000" stroke="none" font-family="Arial" font-size="13px" font-style="normal" font-weight="bold" text-decoration="none" x="729.029541015625" y="345.5">Fill form</text></g></g><g transform="translate(-670,-222) scale(1,1)"><path fill="#C0C0C0" stroke="none" d="M 697 471 L 817.447265625 471 Q 827.447265625 471 827.447265625 481 L 827.447265625 501 Q 827.447265625 511 817.447265625 511 L 697 511 Q 687 511 687 501 L 687 481 Q 687 471 697 471 Z" opacity="0.2"/></g><g transform="translate(-670,-222) scale(1,1)"><path fill="#ffffff" stroke="none" d="M 690 464 L 810.447265625 464 Q 820.447265625 464 820.447265625 474 L 820.447265625 494 Q 820.447265625 504 810.447265625 504 L 690 504 Q 680 504 680 494 L 680 474 Q 680 464 690 464 Z"/></g><g transform="translate(-670,-222) scale(1,1)"><path fill="none" stroke="#000000" d="M 690 464 L 810.447265625 464 Q 820.447265625 464 820.447265625 474 L 820.447265625 494 Q 820.447265625 504 810.447265625 504 L 690 504 Q 680 504 680 494 L 680 474 Q 680 464 690 464 Z" stroke-miterlimit="10"/></g><g transform="translate(-670,-222) scale(1,1)"><g><path fill="none" stroke="none"/><text fill="#000000" stroke="none" font-family="Arial" font-size="13px" font-style="normal" font-weight="bold" text-decoration="none" x="684.5" y="481.5">Push Register button</text></g></g><g transform="translate(-670,-222) scale(1,1)"><path fill="#C0C0C0" stroke="none" d="M 729 687 L 789.5126953125 687 Q 799.5126953125 687 799.5126953125 697 L 799.5126953125 717 Q 799.5126953125 727 789.5126953125 727 L 729 727 Q 719 727 719 717 L 719 697 Q 719 687 729 687 Z" opacity="0.2"/></g><g transform="translate(-670,-222) scale(1,1)"><path fill="#ffffff" stroke="none" d="M 722 680 L 782.5126953125 680 Q 792.5126953125 680 792.5126953125 690 L 792.5126953125 710 Q 792.5126953125 720 782.5126953125 720 L 722 720 Q 712 720 712 710 L 712 690 Q 712 680 722 680 Z"/></g><g transform="translate(-670,-222) scale(1,1)"><path fill="none" stroke="#000000" d="M 722 680 L 782.5126953125 680 Q 792.5126953125 680 792.5126953125 690 L 792.5126953125 710 Q 792.5126953125 720 782.5126953125 720 L 722 720 Q 712 720 712 710 L 712 690 Q 712 680 722 680 Z" stroke-miterlimit="10"/></g><g transform="translate(-670,-222) scale(1,1)"><g><path fill="none" stroke="none"/><text fill="#000000" stroke="none" font-family="Arial" font-size="13px" font-style="normal" font-weight="bold" text-decoration="none" x="718.66455078125" y="697.5">Enter code</text></g></g><g transform="translate(-670,-222) scale(1,1)"><path fill="#C0C0C0" stroke="none" d="M 751 600.5 L 762.5 591 L 773 600.5 L 762.5 609 L 751 600.5" opacity="0.2"/></g><g transform="translate(-670,-222) scale(1,1)"><path fill="#ffffff" stroke="none" d="M 744 593 L 755 584 L 766 593 L 755 602 L 744 593"/></g><g transform="translate(-670,-222) scale(1,1)"><path fill="none" stroke="#000000" d="M 744 593 L 755 584 L 766 593 L 755 602 L 744 593 L 744 593" stroke-miterlimit="10"/></g><g transform="translate(-670,-222) scale(1,1)"><path fill="none" stroke="#000000" d="M 752 251 L 752 328" stroke-miterlimit="10"/></g><g transform="translate(-670,-222) scale(1,1)"><path fill="none" stroke="#000000" d="M 747.790482243984 317.83732514237585 L 752 328 L 756.209517756016 317.83732514237585" stroke-miterlimit="10"/></g><g transform="translate(-670,-222) scale(1,1)"><path fill="none" stroke="#000000" d="M 753 368 L 753 464" stroke-miterlimit="10"/></g><g transform="translate(-670,-222) scale(1,1)"><path fill="none" stroke="#000000" d="M 748.790482243984 453.83732514237585 L 753 464 L 757.209517756016 453.83732514237585" stroke-miterlimit="10"/></g><g transform="translate(-670,-222) scale(1,1)"><path fill="none" stroke="#000000" d="M 752 504 L 752 584" stroke-miterlimit="10"/></g><g transform="translate(-670,-222) scale(1,1)"><path fill="none" stroke="#000000" d="M 747.790482243984 573.8373251423759 L 752 584 L 756.209517756016 573.8373251423759" stroke-miterlimit="10"/></g><g transform="translate(-670,-222) scale(1,1)"><path fill="none" stroke="#000000" d="M 766 593 L 1072 593 L 1072 347 L 813 347" stroke-miterlimit="10"/></g><g transform="translate(-670,-222) scale(1,1)"><path fill="none" stroke="#000000" d="M 823.1626748576241 342.790482243984 L 813 347 L 823.1626748576241 351.209517756016" stroke-miterlimit="10"/></g><g transform="translate(-670,-222) scale(1,1)"><g><path fill="none" stroke="none"/><text fill="#000000" stroke="none" font-family="Arial" font-size="13px" font-style="normal" font-weight="normal" text-decoration="none" x="775.5" y="578.5">form wrong</text></g></g><g transform="translate(-670,-222) scale(1,1)"><path fill="none" stroke="#000000" d="M 755 602 L 755 680" stroke-miterlimit="10"/></g><g transform="translate(-670,-222) scale(1,1)"><path fill="none" stroke="#000000" d="M 750.790482243984 669.8373251423759 L 755 680 L 759.209517756016 669.8373251423759" stroke-miterlimit="10"/></g><g transform="translate(-670,-222) scale(1,1)"><g><path fill="none" stroke="none"/><text fill="#000000" stroke="none" font-family="Arial" font-size="13px" font-style="normal" font-weight="normal" text-decoration="none" x="766.5" y="643.5">form valid</text></g></g><g transform="translate(-670,-222) scale(1,1)"><path fill="#C0C0C0" stroke="none" d="M 751 784.5 L 762.5 775 L 773 784.5 L 762.5 793 L 751 784.5" opacity="0.2"/></g><g transform="translate(-670,-222) scale(1,1)"><path fill="#ffffff" stroke="none" d="M 744 777 L 755 768 L 766 777 L 755 786 L 744 777"/></g><g transform="translate(-670,-222) scale(1,1)"><path fill="none" stroke="#000000" d="M 744 777 L 755 768 L 766 777 L 755 786 L 744 777 L 744 777" stroke-miterlimit="10"/></g><g transform="translate(-670,-222) scale(1,1)"><path fill="none" stroke="#000000" d="M 751 720 L 751 768" stroke-miterlimit="10"/></g><g transform="translate(-670,-222) scale(1,1)"><path fill="none" stroke="#000000" d="M 746.790482243984 757.8373251423759 L 751 768 L 755.209517756016 757.8373251423759" stroke-miterlimit="10"/></g><g transform="translate(-670,-222) scale(1,1)"><path fill="none" stroke="#000000" d="M 766 777 L 1000 777 L 1000 700 L 793 700" stroke-miterlimit="10"/></g><g transform="translate(-670,-222) scale(1,1)"><path fill="none" stroke="#000000" d="M 803.1626748576241 695.790482243984 L 793 700 L 803.1626748576241 704.209517756016" stroke-miterlimit="10"/></g><g transform="translate(-670,-222) scale(1,1)"><g><path fill="none" stroke="none"/><text fill="#000000" stroke="none" font-family="Arial" font-size="13px" font-style="normal" font-weight="normal" text-decoration="none" x="976.5" y="571.5">wrong code</text></g></g><g transform="translate(-670,-222) scale(1,1)"><path fill="none" stroke="#000000" d="M 755 787 L 756 847" stroke-miterlimit="10"/></g><g transform="translate(-670,-222) scale(1,1)"><path fill="none" stroke="#000000" d="M 751.6217123829697 836.9088852180466 L 756 847 L 760.0395788280638 836.7685874439617" stroke-miterlimit="10"/></g><g transform="translate(-670,-222) scale(1,1)"><g><path fill="none" stroke="none"/><text fill="#000000" stroke="none" font-family="Arial" font-size="13px" font-style="normal" font-weight="normal" text-decoration="none" x="767.5" y="820.5">code corect</text></g></g></g></svg>