<svg version="1.1" xmlns="http://www.w3.org/2000/svg" xmlns:xlink="http://www.w3.org/1999/xlink" width="604" height="773"><defs/><g><text fill="#eeeeee" stroke="none" font-family="Arial" font-size="24px" font-style="normal" font-weight="normal" text-decoration="none" x="0" y="0"></text><text fill="#eeeeee" stroke="none" font-family="Arial" font-size="24px" font-style="normal" font-weight="normal" text-decoration="none" x="0" y="30"></text><text fill="#eeeeee" stroke="none" font-family="Arial" font-size="24px" font-style="normal" font-weight="normal" text-decoration="none" x="0" y="60"></text><text fill="#eeeeee" stroke="none" font-family="Arial" font-size="24px" font-style="normal" font-weight="normal" text-decoration="none" x="0" y="90"></text><text fill="#eeeeee" stroke="none" font-family="Arial" font-size="24px" font-style="normal" font-weight="normal" text-decoration="none" x="0" y="120"></text><text fill="#eeeeee" stroke="none" font-family="Arial" font-size="24px" font-style="normal" font-weight="normal" text-decoration="none" x="0" y="150"></text><text fill="#eeeeee" stroke="none" font-family="Arial" font-size="24px" font-style="normal" font-weight="normal" text-decoration="none" x="0" y="180"></text><text fill="#eeeeee" stroke="none" font-family="Arial" font-size="24px" font-style="normal" font-weight="normal" text-decoration="none" x="0" y="210"></text><text fill="#eeeeee" stroke="none" font-family="Arial" font-size="24px" font-style="normal" font-weight="normal" text-decoration="none" x="0" y="240"></text><text fill="#eeeeee" stroke="none" font-family="Arial" font-size="24px" font-style="normal" font-weight="normal" text-decoration="none" x="0" y="270"></text><text fill="#eeeeee" stroke="none" font-family="Arial" font-size="24px" font-style="normal" font-weight="normal" text-decoration="none" x="0" y="300"></text><text fill="#eeeeee" stroke="none" font-family="Arial" font-size="24px" font-style="normal" font-weight="normal" text-decoration="none" x="0" y="330"></text><text fill="#eeeeee" stroke="none" font-family="Arial" font-size="24px" font-style="normal" font-weight="normal" text-decoration="none" x="0" y="360"></text><text fill="#eeeeee" stroke="none" font-family="Arial" font-size="24px" font-style="normal" font-weight="normal" text-decoration="none" x="0" y="390"></text><text fill="#eeeeee" stroke="none" font-family="Arial" font-size="24px" font-style="normal" font-weight="normal" text-decoration="none" x="0" y="420"></text><text fill="#eeeeee" stroke="none" font-family="Arial" font-size="24px" font-style="normal" font-weight="normal" text-decoration="none" x="0" y="450"></text><text fill="#eeeeee" stroke="none" font-family="Arial" font-size="24px" font-style="normal" font-weight="normal" text-decoration="none" x="0" y="480"></text><text fill="#eeeeee" stroke="none" font-family="Arial" font-size="24px" font-style="normal" font-weight="normal" text-decoration="none" x="0" y="510"></text><text fill="#eeeeee" stroke="none" font-family="Arial" font-size="24px" font-style="normal" font-weight="normal" text-decoration="none" x="0" y="540"></text><text fill="#eeeeee" stroke="none" font-family="Arial" font-size="24px" font-style="normal" font-weight="normal" text-decoration="none" x="0" y="570"></text><text fill="#eeeeee" stroke="none" font-family="Arial" font-size="24px" font-style="normal" font-weight="normal" text-decoration="none" x="0" y="600"></text><text fill="#eeeeee" stroke="none" font-family="Arial" font-size="24px" font-style="normal" font-weight="normal" text-decoration="none" x="0" y="630"></text><text fill="#eeeeee" stroke="none" font-family="Arial" font-size="24px" font-style="normal" font-weight="normal" text-decoration="none" x="0" y="660"></text><text fill="#eeeeee" stroke="none" font-family="Arial" font-size="24px" font-style="normal" font-weight="normal" text-decoration="none" x="0" y="690"></text><text fill="#eeeeee" stroke="none" font-family="Arial" font-size="24px" font-style="normal" font-weight="normal" text-decoration="none" x="0" y="720"></text><text fill="#eeeeee" stroke="none" font-family="Arial" font-size="24px" font-style="normal" font-weight="normal" text-decoration="none" x="0" y="750"></text><text fill="#eeeeee" stroke="none" font-family="Arial" font-size="24px" font-style="normal" font-weight="normal" text-decoration="none" x="200" y="0"></text><text fill="#eeeeee" stroke="none" font-family="Arial" font-size="24px" font-style="normal" font-weight="normal" text-decoration="none" x="200" y="30"></text><text fill="#eeeeee" stroke="none" font-family="Arial" font-size="24px" font-style="normal" font-weight="normal" text-decoration="none" x="200" y="60"></text><text fill="#eeeeee" stroke="none" font-family="Arial" font-size="24px" font-style="normal" font-weight="normal" text-decoration="none" x="200" y="90"></text><text fill="#eeeeee" stroke="none" font-family="Arial" font-size="24px" font-style="normal" font-weight="normal" text-decoration="none" x="200" y="120"></text><text fill="#eeeeee" stroke="none" font-family="Arial" font-size="24px" font-style="normal" font-weight="normal" text-decoration="none" x="200" y="150"></text><text fill="#eeeeee" stroke="none" font-family="Arial" font-size="24px" font-style="normal" font-weight="normal" text-decoration="none" x="200" y="180"></text><text fill="#eeeeee" stroke="none" font-family="Arial" font-size="24px" font-style="normal" font-weight="normal" text-decoration="none" x="200" y="210"></text><text fill="#eeeeee" stroke="none" font-family="Arial" font-size="24px" font-style="normal" font-weight="normal" text-decoration="none" x="200" y="240"></text><text fill="#eeeeee" stroke="none" font-family="Arial" font-size="24px" font-style="normal" font-weight="normal" text-decoration="none" x="200" y="270"></text><text fill="#eeeeee" stroke="none" font-family="Arial" font-size="24px" font-style="normal" font-weight="normal" text-decoration="none" x="200" y="300"></text><text fill="#eeeeee" stroke="none" font-family="Arial" font-size="24px" font-style="normal" font-weight="normal" text-decoration="none" x="200" y="330"></text><text fill="#eeeeee" stroke="none" font-family="Arial" font-size="24px" font-style="normal" font-weight="normal" text-decoration="none" x="200" y="360"></text><text fill="#eeeeee" stroke="none" font-family="Arial" font-size="24px" font-style="normal" font-weight="normal" text-decoration="none" x="200" y="390"></text><text fill="#eeeeee" stroke="none" font-family="Arial" font-size="24px" font-style="normal" font-weight="normal" text-decoration="none" x="200" y="420"></text><text fill="#eeeeee" stroke="none" font-family="Arial" font-size="24px" font-style="normal" font-weight="normal" text-decoration="none" x="200" y="450"></text><text fill="#eeeeee" stroke="none" font-family="Arial" font-size="24px" font-style="normal" font-weight="normal" text-decoration="none" x="200" y="480"></text><text fill="#eeeeee" stroke="none" font-family="Arial" font-size="24px" font-style="normal" font-weight="normal" text-decoration="none" x="200" y="510"></text><text fill="#eeeeee" stroke="none" font-family="Arial" font-size="24px" font-style="normal" font-weight="normal" text-decoration="none" x="200" y="540"></text><text fill="#eeeeee" stroke="none" font-family="Arial" font-size="24px" font-style="normal" font-weight="normal" text-decoration="none" x="200" y="570"></text><text fill="#eeeeee" stroke="none" font-family="Arial" font-size="24px" font-style="normal" font-weight="normal" text-decoration="none" x="200" y="600"></text><text fill="#eeeeee" stroke="none" font-family="Arial" font-size="24px" font-style="normal" font-weight="normal" text-decoration="none" x="200" y="630"></text><text fill="#eeeeee" stroke="none" font-family="Arial" font-size="24px" font-style="normal" font-weight="normal" text-decoration="none" x="200" y="660"></text><text fill="#eeeeee" stroke="none" font-family="Arial" font-size="24px" font-style="normal" font-weight="normal" text-decoration="none" x="200" y="690"></text><text fill="#eeeeee" stroke="none" font-family="Arial" font-size="24px" font-style="normal" font-weight="normal" text-decoration="none" x="200" y="720"></text><text fill="#eeeeee" stroke="none" font-family="Arial" font-size="24px" font-style="normal" font-weight="normal" text-decoration="none" x="200" y="750"></text><text fill="#eeeeee" stroke="none" font-family="Arial" font-size="24px" font-style="normal" font-weight="normal" text-decoration="none" x="400" y="0"></text><text fill="#eeeeee" stroke="none" font-family="Arial" font-size="24px" font-style="normal" font-weight="normal" text-decoration="none" x="400" y="30"></text><text fill="#eeeeee" stroke="none" font-family="Arial" font-size="24px" font-style="normal" font-weight="normal" text-decoration="none" x="400" y="60"></text><text fill="#eeeeee" stroke="none" font-family="Arial" font-size="24px" font-style="normal" font-weight="normal" text-decoration="none" x="400" y="90"></text><text fill="#eeeeee" stroke="none" font-family="Arial" font-size="24px" font-style="normal" font-weight="normal" text-decoration="none" x="400" y="120"></text><text fill="#eeeeee" stroke="none" font-family="Arial" font-size="24px" font-style="normal" font-weight="normal" text-decoration="none" x="400" y="150"></text><text fill="#eeeeee" stroke="none" font-family="Arial" font-size="24px" font-style="normal" font-weight="normal" text-decoration="none" x="400" y="180"></text><text fill="#eeeeee" stroke="none" font-family="Arial" font-size="24px" font-style="normal" font-weight="normal" text-decoration="none" x="400" y="210"></text><text fill="#eeeeee" stroke="none" font-family="Arial" font-size="24px" font-style="normal" font-weight="normal" text-decoration="none" x="400" y="240"></text><text fill="#eeeeee" stroke="none" font-family="Arial" font-size="24px" font-style="normal" font-weight="normal" text-decoration="none" x="400" y="270"></text><text fill="#eeeeee" stroke="none" font-family="Arial" font-size="24px" font-style="normal" font-weight="normal" text-decoration="none" x="400" y="300"></text><text fill="#eeeeee" stroke="none" font-family="Arial" font-size="24px" font-style="normal" font-weight="normal" text-decoration="none" x="400" y="330"></text><text fill="#eeeeee" stroke="none" font-family="Arial" font-size="24px" font-style="normal" font-weight="normal" text-decoration="none" x="400" y="360"></text><text fill="#eeeeee" stroke="none" font-family="Arial" font-size="24px" font-style="normal" font-weight="normal" text-decoration="none" x="400" y="390"></text><text fill="#eeeeee" stroke="none" font-family="Arial" font-size="24px" font-style="normal" font-weight="normal" text-decoration="none" x="400" y="420"></text><text fill="#eeeeee" stroke="none" font-family="Arial" font-size="24px" font-style="normal" font-weight="normal" text-decoration="none" x="400" y="450"></text><text fill="#eeeeee" stroke="none" font-family="Arial" font-size="24px" font-style="normal" font-weight="normal" text-decoration="none" x="400" y="480"></text><text fill="#eeeeee" stroke="none" font-family="Arial" font-size="24px" font-style="normal" font-weight="normal" text-decoration="none" x="400" y="510"></text><text fill="#eeeeee" stroke="none" font-family="Arial" font-size="24px" font-style="normal" font-weight="normal" text-decoration="none" x="400" y="540"></text><text fill="#eeeeee" stroke="none" font-family="Arial" font-size="24px" font-style="normal" font-weight="normal" text-decoration="none" x="400" y="570"></text><text fill="#eeeeee" stroke="none" font-family="Arial" font-size="24px" font-style="normal" font-weight="normal" text-decoration="none" x="400" y="600"></text><text fill="#eeeeee" stroke="none" font-family="Arial" font-size="24px" font-style="normal" font-weight="normal" text-decoration="none" x="400" y="630"></text><text fill="#eeeeee" stroke="none" font-family="Arial" font-size="24px" font-style="normal" font-weight="normal" text-decoration="none" x="400" y="660"></text><text fill="#eeeeee" stroke="none" font-family="Arial" font-size="24px" font-style="normal" font-weight="normal" text-decoration="none" x="400" y="690"></text><text fill="#eeeeee" stroke="none" font-family="Arial" font-size="24px" font-style="normal" font-weight="normal" text-decoration="none" x="400" y="720"></text><text fill="#eeeeee" stroke="none" font-family="Arial" font-size="24px" font-style="normal" font-weight="normal" text-decoration="none" x="400" y="750"></text><text fill="#eeeeee" stroke="none" font-family="Arial" font-size="24px" font-style="normal" font-weight="normal" text-decoration="none" x="600" y="0"></text><text fill="#eeeeee" stroke="none" font-family="Arial" font-size="24px" font-style="normal" font-weight="normal" text-decoration="none" x="600" y="30"></text><text fill="#eeeeee" stroke="none" font-family="Arial" font-size="24px" font-style="normal" font-weight="normal" text-decoration="none" x="600" y="60"></text><text fill="#eeeeee" stroke="none" font-family="Arial" font-size="24px" font-style="normal" font-weight="normal" text-decoration="none" x="600" y="90"></text><text fill="#eeeeee" stroke="none" font-family="Arial" font-size="24px" font-style="normal" font-weight="normal" text-decoration="none" x="600" y="120"></text><text fill="#eeeeee" stroke="none" font-family="Arial" font-size="24px" font-style="normal" font-weight="normal" text-decoration="none" x="600" y="150"></text><text fill="#eeeeee" stroke="none" font-family="Arial" font-size="24px" font-style="normal" font-weight="normal" text-decoration="none" x="600" y="180"></text><text fill="#eeeeee" stroke="none" font-family="Arial" font-size="24px" font-style="normal" font-weight="normal" text-decoration="none" x="600" y="210"></text><text fill="#eeeeee" stroke="none" font-family="Arial" font-size="24px" font-style="normal" font-weight="normal" text-decoration="none" x="600" y="240"></text><text fill="#eeeeee" stroke="none" font-family="Arial" font-size="24px" font-style="normal" font-weight="normal" text-decoration="none" x="600" y="270"></text><text fill="#eeeeee" stroke="none" font-family="Arial" font-size="24px" font-style="normal" font-weight="normal" text-decoration="none" x="600" y="300"></text><text fill="#eeeeee" stroke="none" font-family="Arial" font-size="24px" font-style="normal" font-weight="normal" text-decoration="none" x="600" y="330"></text><text fill="#eeeeee" stroke="none" font-family="Arial" font-size="24px" font-style="normal" font-weight="normal" text-decoration="none" x="600" y="360"></text><text fill="#eeeeee" stroke="none" font-family="Arial" font-size="24px" font-style="normal" font-weight="normal" text-decoration="none" x="600" y="390"></text><text fill="#eeeeee" stroke="none" font-family="Arial" font-size="24px" font-style="normal" font-weight="normal" text-decoration="none" x="600" y="420"></text><text fill="#eeeeee" stroke="none" font-family="Arial" font-size="24px" font-style="normal" font-weight="normal" text-decoration="none" x="600" y="450"></text><text fill="#eeeeee" stroke="none" font-family="Arial" font-size="24px" font-style="normal" font-weight="normal" text-decoration="none" x="600" y="480"></text><text fill="#eeeeee" stroke="none" font-family="Arial" font-size="24px" font-style="normal" font-weight="normal" text-decoration="none" x="600" y="510"></text><text fill="#eeeeee" stroke="none" font-family="Arial" font-size="24px" font-style="normal" font-weight="normal" text-decoration="none" x="600" y="540"></text><text fill="#eeeeee" stroke="none" font-family="Arial" font-size="24px" font-style="normal" font-weight="normal" text-decoration="none" x="600" y="570"></text><text fill="#eeeeee" stroke="none" font-family="Arial" font-size="24px" font-style="normal" font-weight="normal" text-decoration="none" x="600" y="600"></text><text fill="#eeeeee" stroke="none" font-family="Arial" font-size="24px" font-style="normal" font-weight="normal" text-decoration="none" x="600" y="630"></text><text fill="#eeeeee" stroke="none" font-family="Arial" font-size="24px" font-style="normal" font-weight="normal" text-decoration="none" x="600" y="660"></text><text fill="#eeeeee" stroke="none" font-family="Arial" font-size="24px" font-style="normal" font-weight="normal" text-decoration="none" x="600" y="690"></text><text fill="#eeeeee" stroke="none" font-family="Arial" font-size="24px" font-style="normal" font-weight="normal" text-decoration="none" x="600" y="720"></text><text fill="#eeeeee" stroke="none" font-family="Arial" font-size="24px" font-style="normal" font-weight="normal" text-decoration="none" x="600" y="750"></text><g transform="translate(-350,-286) scale(1,1)"><rect fill="#ffffff" stroke="none" x="360" y="304" width="200" height="21"/></g><g transform="translate(-350,-286) scale(1,1)"><path fill="none" stroke="#000000" d="M 360 304 L 560 304 L 560 325 L 360 325 L 360 304 Z Z" stroke-miterlimit="10" stroke-width="2"/></g><g transform="translate(-350,-286) scale(1,1)"><path fill="none" stroke="#000000" d="M 360 1048 L 360 304 L 560 304 L 560 1048" stroke-miterlimit="10" stroke-width="2"/></g><g transform="translate(-350,-286) scale(1,1)"><g><path fill="none" stroke="none"/><text fill="#000000" stroke="none" font-family="Arial" font-size="13px" font-style="normal" font-weight="normal" text-decoration="none" x="446.2763671875" y="317">User</text></g></g><g transform="translate(-350,-286) scale(1,1)"><rect fill="#ffffff" stroke="none" x="752" y="296" width="192" height="21"/></g><g transform="translate(-350,-286) scale(1,1)"><path fill="none" stroke="#000000" d="M 752 296 L 944 296 L 944 317 L 752 317 L 752 296 Z Z" stroke-miterlimit="10" stroke-width="2"/></g><g transform="translate(-350,-286) scale(1,1)"><path fill="none" stroke="#000000" d="M 752 1040 L 752 296 L 944 296 L 944 1040" stroke-miterlimit="10" stroke-width="2"/></g><g transform="translate(-350,-286) scale(1,1)"><g><path fill="none" stroke="none"/><text fill="#000000" stroke="none" font-family="Arial" font-size="13px" font-style="normal" font-weight="normal" text-decoration="none" x="822.352294921875" y="309">Rest API</text></g></g><g transform="translate(-350,-286) scale(1,1)"><rect fill="#ffffff" stroke="none" x="560" y="304" width="192" height="21"/></g><g transform="translate(-350,-286) scale(1,1)"><path fill="none" stroke="#000000" d="M 560 304 L 752 304 L 752 325 L 560 325 L 560 304 Z Z" stroke-miterlimit="10" stroke-width="2"/></g><g transform="translate(-350,-286) scale(1,1)"><path fill="none" stroke="#000000" d="M 560 1048 L 560 304 L 752 304 L 752 1048" stroke-miterlimit="10" stroke-width="2"/></g><g transform="translate(-350,-286) scale(1,1)"><g><path fill="none" stroke="none"/><text fill="#000000" stroke="none" font-family="Arial" font-size="13px" font-style="normal" font-weight="normal" text-decoration="none" x="636.128662109375" y="317">Optour</text></g></g><g transform="translate(-350,-286) scale(1,1)"><path fill="#C0C0C0" stroke="none" d="M 463 360.5 C 463 355.2532944 467.2532944 351 472.5 351 C 477.7467056 351 482 355.2532944 482 360.5 C 482 365.7467056 477.7467056 370 472.5 370 C 467.2532944 370 463 365.7467056 463 360.5 Z" opacity="0.2"/></g><g transform="translate(-350,-286) scale(1,1)"><path fill="#000000" stroke="none" d="M 456 353.5 C 456 348.2532944 460.2532944 344 465.5 344 C 470.7467056 344 475 348.2532944 475 353.5 C 475 358.7467056 470.7467056 363 465.5 363 C 460.2532944 363 456 358.7467056 456 353.5 Z"/></g><g transform="translate(-350,-286) scale(1,1)"><path fill="#C0C0C0" stroke="none" d="M 425 519 L 507.18359375 519 Q 517.18359375 519 517.18359375 529 L 517.18359375 549 Q 517.18359375 559 507.18359375 559 L 425 559 Q 415 559 415 549 L 415 529 Q 415 519 425 519 Z" opacity="0.2"/></g><g transform="translate(-350,-286) scale(1,1)"><path fill="#ffffff" stroke="none" d="M 418 512 L 500.18359375 512 Q 510.18359375 512 510.18359375 522 L 510.18359375 542 Q 510.18359375 552 500.18359375 552 L 418 552 Q 408 552 408 542 L 408 522 Q 408 512 418 512 Z"/></g><g transform="translate(-350,-286) scale(1,1)"><path fill="none" stroke="#000000" d="M 418 512 L 500.18359375 512 Q 510.18359375 512 510.18359375 522 L 510.18359375 542 Q 510.18359375 552 500.18359375 552 L 418 552 Q 408 552 408 542 L 408 522 Q 408 512 418 512 Z" stroke-miterlimit="10"/></g><g transform="translate(-350,-286) scale(1,1)"><g><path fill="none" stroke="none"/><text fill="#000000" stroke="none" font-family="Arial" font-size="13px" font-style="normal" font-weight="bold" text-decoration="none" x="412.5" y="529.5">Push comment</text></g></g><g transform="translate(-350,-286) scale(1,1)"><path fill="#C0C0C0" stroke="none" d="M 841 575 L 920.3017578125 575 Q 930.3017578125 575 930.3017578125 585 L 930.3017578125 605 Q 930.3017578125 615 920.3017578125 615 L 841 615 Q 831 615 831 605 L 831 585 Q 831 575 841 575 Z" opacity="0.2"/></g><g transform="translate(-350,-286) scale(1,1)"><path fill="#ffffff" stroke="none" d="M 834 568 L 913.3017578125 568 Q 923.3017578125 568 923.3017578125 578 L 923.3017578125 598 Q 923.3017578125 608 913.3017578125 608 L 834 608 Q 824 608 824 598 L 824 578 Q 824 568 834 568 Z"/></g><g transform="translate(-350,-286) scale(1,1)"><path fill="none" stroke="#000000" d="M 834 568 L 913.3017578125 568 Q 923.3017578125 568 923.3017578125 578 L 923.3017578125 598 Q 923.3017578125 608 913.3017578125 608 L 834 608 Q 824 608 824 598 L 824 578 Q 824 568 834 568 Z" stroke-miterlimit="10"/></g><g transform="translate(-350,-286) scale(1,1)"><g><path fill="none" stroke="none"/><text fill="#000000" stroke="none" font-family="Arial" font-size="13px" font-style="normal" font-weight="bold" text-decoration="none" x="828.5" y="585.5">Get comments</text></g></g><g transform="translate(-350,-286) scale(1,1)"><path fill="#C0C0C0" stroke="none" d="M 625 663 L 723.8017578125 663 Q 733.8017578125 663 733.8017578125 673 L 733.8017578125 693 Q 733.8017578125 703 723.8017578125 703 L 625 703 Q 615 703 615 693 L 615 673 Q 615 663 625 663 Z" opacity="0.2"/></g><g transform="translate(-350,-286) scale(1,1)"><path fill="#ffffff" stroke="none" d="M 618 656 L 716.8017578125 656 Q 726.8017578125 656 726.8017578125 666 L 726.8017578125 686 Q 726.8017578125 696 716.8017578125 696 L 618 696 Q 608 696 608 686 L 608 666 Q 608 656 618 656 Z"/></g><g transform="translate(-350,-286) scale(1,1)"><path fill="none" stroke="#000000" d="M 618 656 L 716.8017578125 656 Q 726.8017578125 656 726.8017578125 666 L 726.8017578125 686 Q 726.8017578125 696 716.8017578125 696 L 618 696 Q 608 696 608 686 L 608 666 Q 608 656 618 656 Z" stroke-miterlimit="10"/></g><g transform="translate(-350,-286) scale(1,1)"><g><path fill="none" stroke="none"/><text fill="#000000" stroke="none" font-family="Arial" font-size="13px" font-style="normal" font-weight="bold" text-decoration="none" x="612.5" y="673.5">Display Comment</text></g></g><g transform="translate(-350,-286) scale(1,1)"><path fill="#C0C0C0" stroke="none" d="M 617 415 L 676.79541015625 415 Q 686.79541015625 415 686.79541015625 425 L 686.79541015625 445 Q 686.79541015625 455 676.79541015625 455 L 617 455 Q 607 455 607 445 L 607 425 Q 607 415 617 415 Z" opacity="0.2"/></g><g transform="translate(-350,-286) scale(1,1)"><path fill="#ffffff" stroke="none" d="M 610 408 L 669.79541015625 408 Q 679.79541015625 408 679.79541015625 418 L 679.79541015625 438 Q 679.79541015625 448 669.79541015625 448 L 610 448 Q 600 448 600 438 L 600 418 Q 600 408 610 408 Z"/></g><g transform="translate(-350,-286) scale(1,1)"><path fill="none" stroke="#000000" d="M 610 408 L 669.79541015625 408 Q 679.79541015625 408 679.79541015625 418 L 679.79541015625 438 Q 679.79541015625 448 669.79541015625 448 L 610 448 Q 600 448 600 438 L 600 418 Q 600 408 610 408 Z" stroke-miterlimit="10"/></g><g transform="translate(-350,-286) scale(1,1)"><g><path fill="none" stroke="none"/><text fill="#000000" stroke="none" font-family="Arial" font-size="13px" font-style="normal" font-weight="bold" text-decoration="none" x="604.5" y="425.5">Display trip</text></g></g><g transform="translate(-350,-286) scale(1,1)"><path fill="none" stroke="#000000" d="M 465 363 L 465 432 L 600 432" stroke-miterlimit="10"/></g><g transform="translate(-350,-286) scale(1,1)"><path fill="none" stroke="#000000" d="M 589.8373251423759 436.209517756016 L 600 432 L 589.8373251423758 427.790482243984" stroke-miterlimit="10"/></g><g transform="translate(-350,-286) scale(1,1)"><path fill="none" stroke="#000000" d="M 639 448 L 639 528 L 640 528 L 640 531 L 510 531" stroke-miterlimit="10"/></g><g transform="translate(-350,-286) scale(1,1)"><path fill="none" stroke="#000000" d="M 520.1626748576241 526.790482243984 L 510 531 L 520.1626748576241 535.209517756016" stroke-miterlimit="10"/></g><g transform="translate(-350,-286) scale(1,1)"><path fill="none" stroke="#000000" d="M 458 552 L 458 592 L 824 592" stroke-miterlimit="10"/></g><g transform="translate(-350,-286) scale(1,1)"><path fill="none" stroke="#000000" d="M 813.8373251423759 596.209517756016 L 824 592 L 813.8373251423758 587.790482243984" stroke-miterlimit="10"/></g><g transform="translate(-350,-286) scale(1,1)"><path fill="none" stroke="#000000" d="M 873 608 L 873 672 L 872 672 L 872 675 L 727 675" stroke-miterlimit="10"/></g><g transform="translate(-350,-286) scale(1,1)"><path fill="none" stroke="#000000" d="M 737.1626748576241 670.790482243984 L 727 675 L 737.1626748576241 679.209517756016" stroke-miterlimit="10"/></g><g transform="translate(-350,-286) scale(1,1)"><path fill="#C0C0C0" stroke="none" d="M 417 743 L 511.47265625 743 Q 521.47265625 743 521.47265625 753 L 521.47265625 773 Q 521.47265625 783 511.47265625 783 L 417 783 Q 407 783 407 773 L 407 753 Q 407 743 417 743 Z" opacity="0.2"/></g><g transform="translate(-350,-286) scale(1,1)"><path fill="#ffffff" stroke="none" d="M 410 736 L 504.47265625 736 Q 514.47265625 736 514.47265625 746 L 514.47265625 766 Q 514.47265625 776 504.47265625 776 L 410 776 Q 400 776 400 766 L 400 746 Q 400 736 410 736 Z"/></g><g transform="translate(-350,-286) scale(1,1)"><path fill="none" stroke="#000000" d="M 410 736 L 504.47265625 736 Q 514.47265625 736 514.47265625 746 L 514.47265625 766 Q 514.47265625 776 504.47265625 776 L 410 776 Q 400 776 400 766 L 400 746 Q 400 736 410 736 Z" stroke-miterlimit="10"/></g><g transform="translate(-350,-286) scale(1,1)"><g><path fill="none" stroke="none"/><text fill="#000000" stroke="none" font-family="Arial" font-size="13px" font-style="normal" font-weight="bold" text-decoration="none" x="404.5" y="753.5">Enter a comment</text></g></g><g transform="translate(-350,-286) scale(1,1)"><path fill="#C0C0C0" stroke="none" d="M 825 815 L 900.6708984375 815 Q 910.6708984375 815 910.6708984375 825 L 910.6708984375 845 Q 910.6708984375 855 900.6708984375 855 L 825 855 Q 815 855 815 845 L 815 825 Q 815 815 825 815 Z" opacity="0.2"/></g><g transform="translate(-350,-286) scale(1,1)"><path fill="#ffffff" stroke="none" d="M 818 808 L 893.6708984375 808 Q 903.6708984375 808 903.6708984375 818 L 903.6708984375 838 Q 903.6708984375 848 893.6708984375 848 L 818 848 Q 808 848 808 838 L 808 818 Q 808 808 818 808 Z"/></g><g transform="translate(-350,-286) scale(1,1)"><path fill="none" stroke="#000000" d="M 818 808 L 893.6708984375 808 Q 903.6708984375 808 903.6708984375 818 L 903.6708984375 838 Q 903.6708984375 848 893.6708984375 848 L 818 848 Q 808 848 808 838 L 808 818 Q 808 808 818 808 Z" stroke-miterlimit="10"/></g><g transform="translate(-350,-286) scale(1,1)"><g><path fill="none" stroke="none"/><text fill="#000000" stroke="none" font-family="Arial" font-size="13px" font-style="normal" font-weight="bold" text-decoration="none" x="812.5" y="825.5">Add comment</text></g></g><g transform="translate(-350,-286) scale(1,1)"><path fill="none" stroke="#000000" d="M 608 675 L 456 675 L 456 736" stroke-miterlimit="10"/></g><g transform="translate(-350,-286) scale(1,1)"><path fill="none" stroke="#000000" d="M 451.790482243984 725.8373251423759 L 456 736 L 460.209517756016 725.8373251423759" stroke-miterlimit="10"/></g><g transform="translate(-350,-286) scale(1,1)"><path fill="none" stroke="#000000" d="M 457 776 L 457 824 L 456 824 L 456 828 L 808 828" stroke-miterlimit="10"/></g><g transform="translate(-350,-286) scale(1,1)"><path fill="none" stroke="#000000" d="M 797.8373251423759 832.209517756016 L 808 828 L 797.8373251423758 823.790482243984" stroke-miterlimit="10"/></g><g transform="translate(-350,-286) scale(1,1)"><path fill="#C0C0C0" stroke="none" d="M 593 911 L 718.5380859375 911 Q 728.5380859375 911 728.5380859375 921 L 728.5380859375 941 Q 728.5380859375 951 718.5380859375 951 L 593 951 Q 583 951 583 941 L 583 921 Q 583 911 593 911 Z" opacity="0.2"/></g><g transform="translate(-350,-286) scale(1,1)"><path fill="#ffffff" stroke="none" d="M 586 904 L 711.5380859375 904 Q 721.5380859375 904 721.5380859375 914 L 721.5380859375 934 Q 721.5380859375 944 711.5380859375 944 L 586 944 Q 576 944 576 934 L 576 914 Q 576 904 586 904 Z"/></g><g transform="translate(-350,-286) scale(1,1)"><path fill="none" stroke="#000000" d="M 586 904 L 711.5380859375 904 Q 721.5380859375 904 721.5380859375 914 L 721.5380859375 934 Q 721.5380859375 944 711.5380859375 944 L 586 944 Q 576 944 576 934 L 576 914 Q 576 904 586 904 Z" stroke-miterlimit="10"/></g><g transform="translate(-350,-286) scale(1,1)"><g><path fill="none" stroke="none"/><text fill="#000000" stroke="none" font-family="Arial" font-size="13px" font-style="normal" font-weight="bold" text-decoration="none" x="580.5" y="921.5">Display new comment</text></g></g><g transform="translate(-350,-286) scale(1,1)"><path fill="#C0C0C0" stroke="none" d="M 639 1043.5 C 639 1036.59644 644.59644 1031 651.5 1031 C 658.40356 1031 664 1036.59644 664 1043.5 C 664 1050.40356 658.40356 1056 651.5 1056 C 644.59644 1056 639 1050.40356 639 1043.5 Z" opacity="0.2"/></g><g transform="translate(-350,-286) scale(1,1)"><path fill="none" stroke="#000000" d="M 632 1036.5 C 632 1029.59644 637.59644 1024 644.5 1024 C 651.40356 1024 657 1029.59644 657 1036.5 C 657 1043.40356 651.40356 1049 644.5 1049 C 637.59644 1049 632 1043.40356 632 1036.5 Z" stroke-miterlimit="10"/></g><g transform="translate(-350,-286) scale(1,1)"><path fill="#000000" stroke="none" d="M 637 1036.5 C 637 1032.357864 640.357864 1029 644.5 1029 C 648.642136 1029 652 1032.357864 652 1036.5 C 652 1040.642136 648.642136 1044 644.5 1044 C 640.357864 1044 637 1040.642136 637 1036.5 Z"/></g><g transform="translate(-350,-286) scale(1,1)"><path fill="none" stroke="#000000" d="M 647 944 L 647 1024" stroke-miterlimit="10"/></g><g transform="translate(-350,-286) scale(1,1)"><path fill="none" stroke="#000000" d="M 642.790482243984 1013.8373251423759 L 647 1024 L 651.209517756016 1013.8373251423759" stroke-miterlimit="10"/></g><g transform="translate(-350,-286) scale(1,1)"><path fill="none" stroke="#000000" d="M 855 848 L 855 928 L 722 928" stroke-miterlimit="10"/></g><g transform="translate(-350,-286) scale(1,1)"><path fill="none" stroke="#000000" d="M 732.1626748576241 923.790482243984 L 722 928 L 732.1626748576241 932.209517756016" stroke-miterlimit="10"/></g></g></svg>