<svg version="1.1" xmlns="http://www.w3.org/2000/svg" xmlns:xlink="http://www.w3.org/1999/xlink" width="612" height="525"><defs/><g><text fill="#eeeeee" stroke="none" font-family="Arial" font-size="24px" font-style="normal" font-weight="normal" text-decoration="none" x="0" y="0"></text><text fill="#eeeeee" stroke="none" font-family="Arial" font-size="24px" font-style="normal" font-weight="normal" text-decoration="none" x="0" y="30"></text><text fill="#eeeeee" stroke="none" font-family="Arial" font-size="24px" font-style="normal" font-weight="normal" text-decoration="none" x="0" y="60"></text><text fill="#eeeeee" stroke="none" font-family="Arial" font-size="24px" font-style="normal" font-weight="normal" text-decoration="none" x="0" y="90"></text><text fill="#eeeeee" stroke="none" font-family="Arial" font-size="24px" font-style="normal" font-weight="normal" text-decoration="none" x="0" y="120"></text><text fill="#eeeeee" stroke="none" font-family="Arial" font-size="24px" font-style="normal" font-weight="normal" text-decoration="none" x="0" y="150"></text><text fill="#eeeeee" stroke="none" font-family="Arial" font-size="24px" font-style="normal" font-weight="normal" text-decoration="none" x="0" y="180"></text><text fill="#eeeeee" stroke="none" font-family="Arial" font-size="24px" font-style="normal" font-weight="normal" text-decoration="none" x="0" y="210"></text><text fill="#eeeeee" stroke="none" font-family="Arial" font-size="24px" font-style="normal" font-weight="normal" text-decoration="none" x="0" y="240"></text><text fill="#eeeeee" stroke="none" font-family="Arial" font-size="24px" font-style="normal" font-weight="normal" text-decoration="none" x="0" y="270"></text><text fill="#eeeeee" stroke="none" font-family="Arial" font-size="24px" font-style="normal" font-weight="normal" text-decoration="none" x="0" y="300"></text><text fill="#eeeeee" stroke="none" font-family="Arial" font-size="24px" font-style="normal" font-weight="normal" text-decoration="none" x="0" y="330"></text><text fill="#eeeeee" stroke="none" font-family="Arial" font-size="24px" font-style="normal" font-weight="normal" text-decoration="none" x="0" y="360"></text><text fill="#eeeeee" stroke="none" font-family="Arial" font-size="24px" font-style="normal" font-weight="normal" text-decoration="none" x="0" y="390"></text><text fill="#eeeeee" stroke="none" font-family="Arial" font-size="24px" font-style="normal" font-weight="normal" text-decoration="none" x="0" y="420"></text><text fill="#eeeeee" stroke="none" font-family="Arial" font-size="24px" font-style="normal" font-weight="normal" text-decoration="none" x="0" y="450"></text><text fill="#eeeeee" stroke="none" font-family="Arial" font-size="24px" font-style="normal" font-weight="normal" text-decoration="none" x="0" y="480"></text><text fill="#eeeeee" stroke="none" font-family="Arial" font-size="24px" font-style="normal" font-weight="normal" text-decoration="none" x="0" y="510"></text><text fill="#eeeeee" stroke="none" font-family="Arial" font-size="24px" font-style="normal" font-weight="normal" text-decoration="none" x="200" y="0"></text><text fill="#eeeeee" stroke="none" font-family="Arial" font-size="24px" font-style="normal" font-weight="normal" text-decoration="none" x="200" y="30"></text><text fill="#eeeeee" stroke="none" font-family="Arial" font-size="24px" font-style="normal" font-weight="normal" text-decoration="none" x="200" y="60"></text><text fill="#eeeeee" stroke="none" font-family="Arial" font-size="24px" font-style="normal" font-weight="normal" text-decoration="none" x="200" y="90"></text><text fill="#eeeeee" stroke="none" font-family="Arial" font-size="24px" font-style="normal" font-weight="normal" text-decoration="none" x="200" y="120"></text><text fill="#eeeeee" stroke="none" font-family="Arial" font-size="24px" font-style="normal" font-weight="normal" text-decoration="none" x="200" y="150"></text><text fill="#eeeeee" stroke="none" font-family="Arial" font-size="24px" font-style="normal" font-weight="normal" text-decoration="none" x="200" y="180"></text><text fill="#eeeeee" stroke="none" font-family="Arial" font-size="24px" font-style="normal" font-weight="normal" text-decoration="none" x="200" y="210"></text><text fill="#eeeeee" stroke="none" font-family="Arial" font-size="24px" font-style="normal" font-weight="normal" text-decoration="none" x="200" y="240"></text><text fill="#eeeeee" stroke="none" font-family="Arial" font-size="24px" font-style="normal" font-weight="normal" text-decoration="none" x="200" y="270"></text><text fill="#eeeeee" stroke="none" font-family="Arial" font-size="24px" font-style="normal" font-weight="normal" text-decoration="none" x="200" y="300"></text><text fill="#eeeeee" stroke="none" font-family="Arial" font-size="24px" font-style="normal" font-weight="normal" text-decoration="none" x="200" y="330"></text><text fill="#eeeeee" stroke="none" font-family="Arial" font-size="24px" font-style="normal" font-weight="normal" text-decoration="none" x="200" y="360"></text><text fill="#eeeeee" stroke="none" font-family="Arial" font-size="24px" font-style="normal" font-weight="normal" text-decoration="none" x="200" y="390"></text><text fill="#eeeeee" stroke="none" font-family="Arial" font-size="24px" font-style="normal" font-weight="normal" text-decoration="none" x="200" y="420"></text><text fill="#eeeeee" stroke="none" font-family="Arial" font-size="24px" font-style="normal" font-weight="normal" text-decoration="none" x="200" y="450"></text><text fill="#eeeeee" stroke="none" font-family="Arial" font-size="24px" font-style="normal" font-weight="normal" text-decoration="none" x="200" y="480"></text><text fill="#eeeeee" stroke="none" font-family="Arial" font-size="24px" font-style="normal" font-weight="normal" text-decoration="none" x="200" y="510"></text><text fill="#eeeeee" stroke="none" font-family="Arial" font-size="24px" font-style="normal" font-weight="normal" text-decoration="none" x="400" y="0"></text><text fill="#eeeeee" stroke="none" font-family="Arial" font-size="24px" font-style="normal" font-weight="normal" text-decoration="none" x="400" y="30"></text><text fill="#eeeeee" stroke="none" font-family="Arial" font-size="24px" font-style="normal" font-weight="normal" text-decoration="none" x="400" y="60"></text><text fill="#eeeeee" stroke="none" font-family="Arial" font-size="24px" font-style="normal" font-weight="normal" text-decoration="none" x="400" y="90"></text><text fill="#eeeeee" stroke="none" font-family="Arial" font-size="24px" font-style="normal" font-weight="normal" text-decoration="none" x="400" y="120"></text><text fill="#eeeeee" stroke="none" font-family="Arial" font-size="24px" font-style="normal" font-weight="normal" text-decoration="none" x="400" y="150"></text><text fill="#eeeeee" stroke="none" font-family="Arial" font-size="24px" font-style="normal" font-weight="normal" text-decoration="none" x="400" y="180"></text><text fill="#eeeeee" stroke="none" font-family="Arial" font-size="24px" font-style="normal" font-weight="normal" text-decoration="none" x="400" y="210"></text><text fill="#eeeeee" stroke="none" font-family="Arial" font-size="24px" font-style="normal" font-weight="normal" text-decoration="none" x="400" y="240"></text><text fill="#eeeeee" stroke="none" font-family="Arial" font-size="24px" font-style="normal" font-weight="normal" text-decoration="none" x="400" y="270"></text><text fill="#eeeeee" stroke="none" font-family="Arial" font-size="24px" font-style="normal" font-weight="normal" text-decoration="none" x="400" y="300"></text><text fill="#eeeeee" stroke="none" font-family="Arial" font-size="24px" font-style="normal" font-weight="normal" text-decoration="none" x="400" y="330"></text><text fill="#eeeeee" stroke="none" font-family="Arial" font-size="24px" font-style="normal" font-weight="normal" text-decoration="none" x="400" y="360"></text><text fill="#eeeeee" stroke="none" font-family="Arial" font-size="24px" font-style="normal" font-weight="normal" text-decoration="none" x="400" y="390"></text><text fill="#eeeeee" stroke="none" font-family="Arial" font-size="24px" font-style="normal" font-weight="normal" text-decoration="none" x="400" y="420"></text><text fill="#eeeeee" stroke="none" font-family="Arial" font-size="24px" font-style="normal" font-weight="normal" text-decoration="none" x="400" y="450"></text><text fill="#eeeeee" stroke="none" font-family="Arial" font-size="24px" font-style="normal" font-weight="normal" text-decoration="none" x="400" y="480"></text><text fill="#eeeeee" stroke="none" font-family="Arial" font-size="24px" font-style="normal" font-weight="normal" text-decoration="none" x="400" y="510"></text><text fill="#eeeeee" stroke="none" font-family="Arial" font-size="24px" font-style="normal" font-weight="normal" text-decoration="none" x="600" y="0"></text><text fill="#eeeeee" stroke="none" font-family="Arial" font-size="24px" font-style="normal" font-weight="normal" text-decoration="none" x="600" y="30"></text><text fill="#eeeeee" stroke="none" font-family="Arial" font-size="24px" font-style="normal" font-weight="normal" text-decoration="none" x="600" y="60"></text><text fill="#eeeeee" stroke="none" font-family="Arial" font-size="24px" font-style="normal" font-weight="normal" text-decoration="none" x="600" y="90"></text><text fill="#eeeeee" stroke="none" font-family="Arial" font-size="24px" font-style="normal" font-weight="normal" text-decoration="none" x="600" y="120"></text><text fill="#eeeeee" stroke="none" font-family="Arial" font-size="24px" font-style="normal" font-weight="normal" text-decoration="none" x="600" y="150"></text><text fill="#eeeeee" stroke="none" font-family="Arial" font-size="24px" font-style="normal" font-weight="normal" text-decoration="none" x="600" y="180"></text><text fill="#eeeeee" stroke="none" font-family="Arial" font-size="24px" font-style="normal" font-weight="normal" text-decoration="none" x="600" y="210"></text><text fill="#eeeeee" stroke="none" font-family="Arial" font-size="24px" font-style="normal" font-weight="normal" text-decoration="none" x="600" y="240"></text><text fill="#eeeeee" stroke="none" font-family="Arial" font-size="24px" font-style="normal" font-weight="normal" text-decoration="none" x="600" y="270"></text><text fill="#eeeeee" stroke="none" font-family="Arial" font-size="24px" font-style="normal" font-weight="normal" text-decoration="none" x="600" y="300"></text><text fill="#eeeeee" stroke="none" font-family="Arial" font-size="24px" font-style="normal" font-weight="normal" text-decoration="none" x="600" y="330"></text><text fill="#eeeeee" stroke="none" font-family="Arial" font-size="24px" font-style="normal" font-weight="normal" text-decoration="none" x="600" y="360"></text><text fill="#eeeeee" stroke="none" font-family="Arial" font-size="24px" font-style="normal" font-weight="normal" text-decoration="none" x="600" y="390"></text><text fill="#eeeeee" stroke="none" font-family="Arial" font-size="24px" font-style="normal" font-weight="normal" text-decoration="none" x="600" y="420"></text><text fill="#eeeeee" stroke="none" font-family="Arial" font-size="24px" font-style="normal" font-weight="normal" text-decoration="none" x="600" y="450"></text><text fill="#eeeeee" stroke="none" font-family="Arial" font-size="24px" font-style="normal" font-weight="normal" text-decoration="none" x="600" y="480"></text><text fill="#eeeeee" stroke="none" font-family="Arial" font-size="24px" font-style="normal" font-weight="normal" text-decoration="none" x="600" y="510"></text><g transform="translate(-374,-182) scale(1,1)"><path fill="#C0C0C0" stroke="none" d="M 695 208.5 C 695 203.2532944 699.2532944 199 704.5 199 C 709.7467056 199 714 203.2532944 714 208.5 C 714 213.7467056 709.7467056 218 704.5 218 C 699.2532944 218 695 213.7467056 695 208.5 Z" opacity="0.2"/></g><g transform="translate(-374,-182) scale(1,1)"><path fill="#000000" stroke="none" d="M 688 201.5 C 688 196.2532944 692.2532944 192 697.5 192 C 702.7467056 192 707 196.2532944 707 201.5 C 707 206.7467056 702.7467056 211 697.5 211 C 692.2532944 211 688 206.7467056 688 201.5 Z"/></g><g transform="translate(-374,-182) scale(1,1)"><path fill="#C0C0C0" stroke="none" d="M 665 351 L 716.8544921875 351 Q 726.8544921875 351 726.8544921875 361 L 726.8544921875 381 Q 726.8544921875 391 716.8544921875 391 L 665 391 Q 655 391 655 381 L 655 361 Q 655 351 665 351 Z" opacity="0.2"/></g><g transform="translate(-374,-182) scale(1,1)"><path fill="#ffffff" stroke="none" d="M 658 344 L 709.8544921875 344 Q 719.8544921875 344 719.8544921875 354 L 719.8544921875 374 Q 719.8544921875 384 709.8544921875 384 L 658 384 Q 648 384 648 374 L 648 354 Q 648 344 658 344 Z"/></g><g transform="translate(-374,-182) scale(1,1)"><path fill="none" stroke="#000000" d="M 658 344 L 709.8544921875 344 Q 719.8544921875 344 719.8544921875 354 L 719.8544921875 374 Q 719.8544921875 384 709.8544921875 384 L 658 384 Q 648 384 648 374 L 648 354 Q 648 344 658 344 Z" stroke-miterlimit="10"/></g><g transform="translate(-374,-182) scale(1,1)"><g><path fill="none" stroke="none"/><text fill="#000000" stroke="none" font-family="Arial" font-size="13px" font-style="normal" font-weight="bold" text-decoration="none" x="652.5" y="361.5">Select trip</text></g></g><g transform="translate(-374,-182) scale(1,1)"><path fill="#C0C0C0" stroke="none" d="M 458 271 L 964 271 Q 967 271 967 274 L 967 273 Q 967 276 964 276 L 458 276 Q 455 276 455 273 L 455 274 Q 455 271 458 271 Z" opacity="0.2"/></g><g transform="translate(-374,-182) scale(1,1)"><path fill="#000000" stroke="none" d="M 451 264 L 957 264 Q 960 264 960 267 L 960 267 Q 960 270 957 270 L 451 270 Q 448 270 448 267 L 448 267 Q 448 264 451 264 Z"/></g><g transform="translate(-374,-182) scale(1,1)"><path fill="#C0C0C0" stroke="none" d="M 857 343 L 914.6435546875 343 Q 924.6435546875 343 924.6435546875 353 L 924.6435546875 373 Q 924.6435546875 383 914.6435546875 383 L 857 383 Q 847 383 847 373 L 847 353 Q 847 343 857 343 Z" opacity="0.2"/></g><g transform="translate(-374,-182) scale(1,1)"><path fill="#ffffff" stroke="none" d="M 850 336 L 907.6435546875 336 Q 917.6435546875 336 917.6435546875 346 L 917.6435546875 366 Q 917.6435546875 376 907.6435546875 376 L 850 376 Q 840 376 840 366 L 840 346 Q 840 336 850 336 Z"/></g><g transform="translate(-374,-182) scale(1,1)"><path fill="none" stroke="#000000" d="M 850 336 L 907.6435546875 336 Q 917.6435546875 336 917.6435546875 346 L 917.6435546875 366 Q 917.6435546875 376 907.6435546875 376 L 850 376 Q 840 376 840 366 L 840 346 Q 840 336 850 336 Z" stroke-miterlimit="10"/></g><g transform="translate(-374,-182) scale(1,1)"><g><path fill="none" stroke="none"/><text fill="#000000" stroke="none" font-family="Arial" font-size="13px" font-style="normal" font-weight="bold" text-decoration="none" x="844.5" y="353.5">Select date</text></g></g><g transform="translate(-374,-182) scale(1,1)"><path fill="#C0C0C0" stroke="none" d="M 409 351 L 600.22998046875 351 Q 610.22998046875 351 610.22998046875 361 L 610.22998046875 381 Q 610.22998046875 391 600.22998046875 391 L 409 391 Q 399 391 399 381 L 399 361 Q 399 351 409 351 Z" opacity="0.2"/></g><g transform="translate(-374,-182) scale(1,1)"><path fill="#ffffff" stroke="none" d="M 402 344 L 593.22998046875 344 Q 603.22998046875 344 603.22998046875 354 L 603.22998046875 374 Q 603.22998046875 384 593.22998046875 384 L 402 384 Q 392 384 392 374 L 392 354 Q 392 344 402 344 Z"/></g><g transform="translate(-374,-182) scale(1,1)"><path fill="none" stroke="#000000" d="M 402 344 L 593.22998046875 344 Q 603.22998046875 344 603.22998046875 354 L 603.22998046875 374 Q 603.22998046875 384 593.22998046875 384 L 402 384 Q 392 384 392 374 L 392 354 Q 392 344 402 344 Z" stroke-miterlimit="10"/></g><g transform="translate(-374,-182) scale(1,1)"><g><path fill="none" stroke="none"/><text fill="#000000" stroke="none" font-family="Arial" font-size="13px" font-style="normal" font-weight="bold" text-decoration="none" x="396.5" y="361.5">Select duration and type of point</text></g></g><g transform="translate(-374,-182) scale(1,1)"><path fill="#C0C0C0" stroke="none" d="M 394 495 L 980 495 Q 983 495 983 498 L 983 497 Q 983 500 980 500 L 394 500 Q 391 500 391 497 L 391 498 Q 391 495 394 495 Z" opacity="0.2"/></g><g transform="translate(-374,-182) scale(1,1)"><path fill="#000000" stroke="none" d="M 387 488 L 973 488 Q 976 488 976 491 L 976 491 Q 976 494 973 494 L 387 494 Q 384 494 384 491 L 384 491 Q 384 488 387 488 Z"/></g><g transform="translate(-374,-182) scale(1,1)"><path fill="none" stroke="#000000" d="M 696 270 L 541 343" stroke-miterlimit="10"/></g><g transform="translate(-374,-182) scale(1,1)"><path fill="none" stroke="#000000" d="M 548.4004502134713 334.86161338851906 L 541 343 L 551.987616890675 342.478200168883" stroke-miterlimit="10"/></g><g transform="translate(-374,-182) scale(1,1)"><path fill="none" stroke="#000000" d="M 703 270 L 688 343" stroke-miterlimit="10"/></g><g transform="translate(-374,-182) scale(1,1)"><path fill="none" stroke="#000000" d="M 685.9221156186937 332.1980373774983 L 688 343 L 694.1688548839513 333.8925728429622" stroke-miterlimit="10"/></g><g transform="translate(-374,-182) scale(1,1)"><path fill="none" stroke="#000000" d="M 712 270 L 839 336" stroke-miterlimit="10"/></g><g transform="translate(-374,-182) scale(1,1)"><path fill="none" stroke="#000000" d="M 828.0411954164497 335.0488942753005 L 839 336 L 831.9234882728338 327.57842165771297" stroke-miterlimit="10"/></g><g transform="translate(-374,-182) scale(1,1)"><path fill="none" stroke="#000000" d="M 698 211 L 698 264" stroke-miterlimit="10"/></g><g transform="translate(-374,-182) scale(1,1)"><path fill="none" stroke="#000000" d="M 693.790482243984 253.83732514237585 L 698 264 L 702.209517756016 253.83732514237585" stroke-miterlimit="10"/></g><g transform="translate(-374,-182) scale(1,1)"><path fill="none" stroke="#000000" d="M 528 385 L 676 487" stroke-miterlimit="10"/></g><g transform="translate(-374,-182) scale(1,1)"><path fill="none" stroke="#000000" d="M 665.2433468517543 484.69904084166296 L 676 487 L 670.0209214400973 477.76687379191037" stroke-miterlimit="10"/></g><g transform="translate(-374,-182) scale(1,1)"><path fill="none" stroke="#000000" d="M 683 385 L 680 487" stroke-miterlimit="10"/></g><g transform="translate(-374,-182) scale(1,1)"><path fill="none" stroke="#000000" d="M 676.0910747917939 476.7179620834851 L 680 487 L 684.5064712133113 476.96547374294147" stroke-miterlimit="10"/></g><g transform="translate(-374,-182) scale(1,1)"><path fill="none" stroke="#000000" d="M 847 377 L 684 487" stroke-miterlimit="10"/></g><g transform="translate(-374,-182) scale(1,1)"><path fill="none" stroke="#000000" d="M 690.0691754154234 477.82584555521214 L 684 487 L 694.7786619120187 484.8044482728944" stroke-miterlimit="10"/></g><g transform="translate(-374,-182) scale(1,1)"><path fill="#C0C0C0" stroke="none" d="M 657 559 L 724.04443359375 559 Q 734.04443359375 559 734.04443359375 569 L 734.04443359375 589 Q 734.04443359375 599 724.04443359375 599 L 657 599 Q 647 599 647 589 L 647 569 Q 647 559 657 559 Z" opacity="0.2"/></g><g transform="translate(-374,-182) scale(1,1)"><path fill="#ffffff" stroke="none" d="M 650 552 L 717.04443359375 552 Q 727.04443359375 552 727.04443359375 562 L 727.04443359375 582 Q 727.04443359375 592 717.04443359375 592 L 650 592 Q 640 592 640 582 L 640 562 Q 640 552 650 552 Z"/></g><g transform="translate(-374,-182) scale(1,1)"><path fill="none" stroke="#000000" d="M 650 552 L 717.04443359375 552 Q 727.04443359375 552 727.04443359375 562 L 727.04443359375 582 Q 727.04443359375 592 717.04443359375 592 L 650 592 Q 640 592 640 582 L 640 562 Q 640 552 650 552 Z" stroke-miterlimit="10"/></g><g transform="translate(-374,-182) scale(1,1)"><g><path fill="none" stroke="none"/><text fill="#000000" stroke="none" font-family="Arial" font-size="13px" font-style="normal" font-weight="bold" text-decoration="none" x="644.5" y="569.5">Generate ics</text></g></g><g transform="translate(-374,-182) scale(1,1)"><path fill="none" stroke="#000000" d="M 680 493 L 680 552" stroke-miterlimit="10"/></g><g transform="translate(-374,-182) scale(1,1)"><path fill="none" stroke="#000000" d="M 675.790482243984 541.8373251423759 L 680 552 L 684.209517756016 541.8373251423759" stroke-miterlimit="10"/></g><g transform="translate(-374,-182) scale(1,1)"><path fill="#C0C0C0" stroke="none" d="M 679 691.5 C 679 684.59644 684.59644 679 691.5 679 C 698.40356 679 704 684.59644 704 691.5 C 704 698.40356 698.40356 704 691.5 704 C 684.59644 704 679 698.40356 679 691.5 Z" opacity="0.2"/></g><g transform="translate(-374,-182) scale(1,1)"><path fill="none" stroke="#000000" d="M 672 684.5 C 672 677.59644 677.59644 672 684.5 672 C 691.40356 672 697 677.59644 697 684.5 C 697 691.40356 691.40356 697 684.5 697 C 677.59644 697 672 691.40356 672 684.5 Z" stroke-miterlimit="10"/></g><g transform="translate(-374,-182) scale(1,1)"><path fill="#000000" stroke="none" d="M 677 684.5 C 677 680.357864 680.357864 677 684.5 677 C 688.642136 677 692 680.357864 692 684.5 C 692 688.642136 688.642136 692 684.5 692 C 680.357864 692 677 688.642136 677 684.5 Z"/></g><g transform="translate(-374,-182) scale(1,1)"><path fill="none" stroke="#000000" d="M 683 593 L 684 671" stroke-miterlimit="10"/></g><g transform="translate(-374,-182) scale(1,1)"><path fill="none" stroke="#000000" d="M 679.6605481542205 660.8921239778992 L 684 671 L 688.0788918518372 660.7841964945964" stroke-miterlimit="10"/></g></g></svg>