<svg version="1.1" xmlns="http://www.w3.org/2000/svg" xmlns:xlink="http://www.w3.org/1999/xlink" width="851.7216796875" height="417"><defs/><g><text fill="#eeeeee" stroke="none" font-family="Arial" font-size="24px" font-style="normal" font-weight="normal" text-decoration="none" x="0" y="0"></text><text fill="#eeeeee" stroke="none" font-family="Arial" font-size="24px" font-style="normal" font-weight="normal" text-decoration="none" x="0" y="30"></text><text fill="#eeeeee" stroke="none" font-family="Arial" font-size="24px" font-style="normal" font-weight="normal" text-decoration="none" x="0" y="60"></text><text fill="#eeeeee" stroke="none" font-family="Arial" font-size="24px" font-style="normal" font-weight="normal" text-decoration="none" x="0" y="90"></text><text fill="#eeeeee" stroke="none" font-family="Arial" font-size="24px" font-style="normal" font-weight="normal" text-decoration="none" x="0" y="120"></text><text fill="#eeeeee" stroke="none" font-family="Arial" font-size="24px" font-style="normal" font-weight="normal" text-decoration="none" x="0" y="150"></text><text fill="#eeeeee" stroke="none" font-family="Arial" font-size="24px" font-style="normal" font-weight="normal" text-decoration="none" x="0" y="180"></text><text fill="#eeeeee" stroke="none" font-family="Arial" font-size="24px" font-style="normal" font-weight="normal" text-decoration="none" x="0" y="210"></text><text fill="#eeeeee" stroke="none" font-family="Arial" font-size="24px" font-style="normal" font-weight="normal" text-decoration="none" x="0" y="240"></text><text fill="#eeeeee" stroke="none" font-family="Arial" font-size="24px" font-style="normal" font-weight="normal" text-decoration="none" x="0" y="270"></text><text fill="#eeeeee" stroke="none" font-family="Arial" font-size="24px" font-style="normal" font-weight="normal" text-decoration="none" x="0" y="300"></text><text fill="#eeeeee" stroke="none" font-family="Arial" font-size="24px" font-style="normal" font-weight="normal" text-decoration="none" x="0" y="330"></text><text fill="#eeeeee" stroke="none" font-family="Arial" font-size="24px" font-style="normal" font-weight="normal" text-decoration="none" x="0" y="360"></text><text fill="#eeeeee" stroke="none" font-family="Arial" font-size="24px" font-style="normal" font-weight="normal" text-decoration="none" x="0" y="390"></text><text fill="#eeeeee" stroke="none" font-family="Arial" font-size="24px" font-style="normal" font-weight="normal" text-decoration="none" x="200" y="0"></text><text fill="#eeeeee" stroke="none" font-family="Arial" font-size="24px" font-style="normal" font-weight="normal" text-decoration="none" x="200" y="30"></text><text fill="#eeeeee" stroke="none" font-family="Arial" font-size="24px" font-style="normal" font-weight="normal" text-decoration="none" x="200" y="60"></text><text fill="#eeeeee" stroke="none" font-family="Arial" font-size="24px" font-style="normal" font-weight="normal" text-decoration="none" x="200" y="90"></text><text fill="#eeeeee" stroke="none" font-family="Arial" font-size="24px" font-style="normal" font-weight="normal" text-decoration="none" x="200" y="120"></text><text fill="#eeeeee" stroke="none" font-family="Arial" font-size="24px" font-style="normal" font-weight="normal" text-decoration="none" x="200" y="150"></text><text fill="#eeeeee" stroke="none" font-family="Arial" font-size="24px" font-style="normal" font-weight="normal" text-decoration="none" x="200" y="180"></text><text fill="#eeeeee" stroke="none" font-family="Arial" font-size="24px" font-style="normal" font-weight="normal" text-decoration="none" x="200" y="210"></text><text fill="#eeeeee" stroke="none" font-family="Arial" font-size="24px" font-style="normal" font-weight="normal" text-decoration="none" x="200" y="240"></text><text fill="#eeeeee" stroke="none" font-family="Arial" font-size="24px" font-style="normal" font-weight="normal" text-decoration="none" x="200" y="270"></text><text fill="#eeeeee" stroke="none" font-family="Arial" font-size="24px" font-style="normal" font-weight="normal" text-decoration="none" x="200" y="300"></text><text fill="#eeeeee" stroke="none" font-family="Arial" font-size="24px" font-style="normal" font-weight="normal" text-decoration="none" x="200" y="330"></text><text fill="#eeeeee" stroke="none" font-family="Arial" font-size="24px" font-style="normal" font-weight="normal" text-decoration="none" x="200" y="360"></text><text fill="#eeeeee" stroke="none" font-family="Arial" font-size="24px" font-style="normal" font-weight="normal" text-decoration="none" x="200" y="390"></text><text fill="#eeeeee" stroke="none" font-family="Arial" font-size="24px" font-style="normal" font-weight="normal" text-decoration="none" x="400" y="0"></text><text fill="#eeeeee" stroke="none" font-family="Arial" font-size="24px" font-style="normal" font-weight="normal" text-decoration="none" x="400" y="30"></text><text fill="#eeeeee" stroke="none" font-family="Arial" font-size="24px" font-style="normal" font-weight="normal" text-decoration="none" x="400" y="60"></text><text fill="#eeeeee" stroke="none" font-family="Arial" font-size="24px" font-style="normal" font-weight="normal" text-decoration="none" x="400" y="90"></text><text fill="#eeeeee" stroke="none" font-family="Arial" font-size="24px" font-style="normal" font-weight="normal" text-decoration="none" x="400" y="120"></text><text fill="#eeeeee" stroke="none" font-family="Arial" font-size="24px" font-style="normal" font-weight="normal" text-decoration="none" x="400" y="150"></text><text fill="#eeeeee" stroke="none" font-family="Arial" font-size="24px" font-style="normal" font-weight="normal" text-decoration="none" x="400" y="180"></text><text fill="#eeeeee" stroke="none" font-family="Arial" font-size="24px" font-style="normal" font-weight="normal" text-decoration="none" x="400" y="210"></text><text fill="#eeeeee" stroke="none" font-family="Arial" font-size="24px" font-style="normal" font-weight="normal" text-decoration="none" x="400" y="240"></text><text fill="#eeeeee" stroke="none" font-family="Arial" font-size="24px" font-style="normal" font-weight="normal" text-decoration="none" x="400" y="270"></text><text fill="#eeeeee" stroke="none" font-family="Arial" font-size="24px" font-style="normal" font-weight="normal" text-decoration="none" x="400" y="300"></text><text fill="#eeeeee" stroke="none" font-family="Arial" font-size="24px" font-style="normal" font-weight="normal" text-decoration="none" x="400" y="330"></text><text fill="#eeeeee" stroke="none" font-family="Arial" font-size="24px" font-style="normal" font-weight="normal" text-decoration="none" x="400" y="360"></text><text fill="#eeeeee" stroke="none" font-family="Arial" font-size="24px" font-style="normal" font-weight="normal" text-decoration="none" x="400" y="390"></text><text fill="#eeeeee" stroke="none" font-family="Arial" font-size="24px" font-style="normal" font-weight="normal" text-decoration="none" x="600" y="0"></text><text fill="#eeeeee" stroke="none" font-family="Arial" font-size="24px" font-style="normal" font-weight="normal" text-decoration="none" x="600" y="30"></text><text fill="#eeeeee" stroke="none" font-family="Arial" font-size="24px" font-style="normal" font-weight="normal" text-decoration="none" x="600" y="60"></text><text fill="#eeeeee" stroke="none" font-family="Arial" font-size="24px" font-style="normal" font-weight="normal" text-decoration="none" x="600" y="90"></text><text fill="#eeeeee" stroke="none" font-family="Arial" font-size="24px" font-style="normal" font-weight="normal" text-decoration="none" x="600" y="120"></text><text fill="#eeeeee" stroke="none" font-family="Arial" font-size="24px" font-style="normal" font-weight="normal" text-decoration="none" x="600" y="150"></text><text fill="#eeeeee" stroke="none" font-family="Arial" font-size="24px" font-style="normal" font-weight="normal" text-decoration="none" x="600" y="180"></text><text fill="#eeeeee" stroke="none" font-family="Arial" font-size="24px" font-style="normal" font-weight="normal" text-decoration="none" x="600" y="210"></text><text fill="#eeeeee" stroke="none" font-family="Arial" font-size="24px" font-style="normal" font-weight="normal" text-decoration="none" x="600" y="240"></text><text fill="#eeeeee" stroke="none" font-family="Arial" font-size="24px" font-style="normal" font-weight="normal" text-decoration="none" x="600" y="270"></text><text fill="#eeeeee" stroke="none" font-family="Arial" font-size="24px" font-style="normal" font-weight="normal" text-decoration="none" x="600" y="300"></text><text fill="#eeeeee" stroke="none" font-family="Arial" font-size="24px" font-style="normal" font-weight="normal" text-decoration="none" x="600" y="330"></text><text fill="#eeeeee" stroke="none" font-family="Arial" font-size="24px" font-style="normal" font-weight="normal" text-decoration="none" x="600" y="360"></text><text fill="#eeeeee" stroke="none" font-family="Arial" font-size="24px" font-style="normal" font-weight="normal" text-decoration="none" x="600" y="390"></text><text fill="#eeeeee" stroke="none" font-family="Arial" font-size="24px" font-style="normal" font-weight="normal" text-decoration="none" x="800" y="0"></text><text fill="#eeeeee" stroke="none" font-family="Arial" font-size="24px" font-style="normal" font-weight="normal" text-decoration="none" x="800" y="30"></text><text fill="#eeeeee" stroke="none" font-family="Arial" font-size="24px" font-style="normal" font-weight="normal" text-decoration="none" x="800" y="60"></text><text fill="#eeeeee" stroke="none" font-family="Arial" font-size="24px" font-style="normal" font-weight="normal" text-decoration="none" x="800" y="90"></text><text fill="#eeeeee" stroke="none" font-family="Arial" font-size="24px" font-style="normal" font-weight="normal" text-decoration="none" x="800" y="120"></text><text fill="#eeeeee" stroke="none" font-family="Arial" font-size="24px" font-style="normal" font-weight="normal" text-decoration="none" x="800" y="150"></text><text fill="#eeeeee" stroke="none" font-family="Arial" font-size="24px" font-style="normal" font-weight="normal" text-decoration="none" x="800" y="180"></text><text fill="#eeeeee" stroke="none" font-family="Arial" font-size="24px" font-style="normal" font-weight="normal" text-decoration="none" x="800" y="210"></text><text fill="#eeeeee" stroke="none" font-family="Arial" font-size="24px" font-style="normal" font-weight="normal" text-decoration="none" x="800" y="240"></text><text fill="#eeeeee" stroke="none" font-family="Arial" font-size="24px" font-style="normal" font-weight="normal" text-decoration="none" x="800" y="270"></text><text fill="#eeeeee" stroke="none" font-family="Arial" font-size="24px" font-style="normal" font-weight="normal" text-decoration="none" x="800" y="300"></text><text fill="#eeeeee" stroke="none" font-family="Arial" font-size="24px" font-style="normal" font-weight="normal" text-decoration="none" x="800" y="330"></text><text fill="#eeeeee" stroke="none" font-family="Arial" font-size="24px" font-style="normal" font-weight="normal" text-decoration="none" x="800" y="360"></text><text fill="#eeeeee" stroke="none" font-family="Arial" font-size="24px" font-style="normal" font-weight="normal" text-decoration="none" x="800" y="390"></text><g transform="translate(-486,-286) scale(1,1)"><rect fill="#C0C0C0" stroke="none" x="575" y="431" width="107.4140625" height="57" opacity="0.2"/></g><g transform="translate(-486,-286) scale(1,1)"><rect fill="#ffffff" stroke="none" x="568" y="424" width="107.4140625" height="57"/></g><g transform="translate(-486,-286) scale(1,1)"><path fill="none" stroke="#000000" d="M 568 424 L 675.4140625 424 L 675.4140625 481 L 568 481 L 568 424 Z Z" stroke-miterlimit="10"/></g><g transform="translate(-486,-286) scale(1,1)"><path fill="none" stroke="#000000" d="M 568 449 L 675.4140625 449" stroke-miterlimit="10"/></g><g transform="translate(-486,-286) scale(1,1)"><path fill="none" stroke="#000000" d="M 568 472 L 675.4140625 472" stroke-miterlimit="10"/></g><g transform="translate(-486,-286) scale(1,1)"><g><path fill="none" stroke="none"/><text fill="#000000" stroke="none" font-family="Arial" font-size="13px" font-style="italic" font-weight="bold" text-decoration="none" x="586.6806640625" y="441.5">FormModel</text></g></g><g transform="translate(-486,-286) scale(1,1)"><g><path fill="none" stroke="none"/><text fill="#000000" stroke="none" font-family="Arial" font-size="13px" font-style="normal" font-weight="normal" text-decoration="none" x="573" y="464.5">+isValid: boolean</text></g></g><g transform="translate(-486,-286) scale(1,1)"><rect fill="#C0C0C0" stroke="none" x="879" y="423" width="264.455078125" height="85" opacity="0.2"/></g><g transform="translate(-486,-286) scale(1,1)"><rect fill="#ffffff" stroke="none" x="872" y="416" width="264.455078125" height="85"/></g><g transform="translate(-486,-286) scale(1,1)"><path fill="none" stroke="#000000" d="M 872 416 L 1136.455078125 416 L 1136.455078125 501 L 872 501 L 872 416 Z Z" stroke-miterlimit="10"/></g><g transform="translate(-486,-286) scale(1,1)"><path fill="none" stroke="#000000" d="M 872 454 L 1136.455078125 454" stroke-miterlimit="10"/></g><g transform="translate(-486,-286) scale(1,1)"><path fill="none" stroke="#000000" d="M 872 492 L 1136.455078125 492" stroke-miterlimit="10"/></g><g transform="translate(-486,-286) scale(1,1)"><g><path fill="none" stroke="none"/><text fill="#000000" stroke="none" font-family="Arial" font-size="13px" font-style="normal" font-weight="normal" text-decoration="none" x="980.017578125" y="431.5">«Enum»</text></g></g><g transform="translate(-486,-286) scale(1,1)"><g><path fill="none" stroke="none"/><text fill="#000000" stroke="none" font-family="Arial" font-size="13px" font-style="normal" font-weight="bold" text-decoration="none" x="949.31396484375" y="446.5">ValidatorResolver</text></g></g><g transform="translate(-486,-286) scale(1,1)"><g><path fill="none" stroke="none"/><text fill="#000000" stroke="none" font-family="Arial" font-size="13px" font-style="normal" font-weight="normal" text-decoration="none" x="877" y="469.5">+annotation: Class&lt;*&gt;</text></g></g><g transform="translate(-486,-286) scale(1,1)"><g><path fill="none" stroke="none"/><text fill="#000000" stroke="none" font-family="Arial" font-size="13px" font-style="normal" font-weight="normal" text-decoration="none" x="877" y="484.5">+validator: BiFunction&lt;wAny Field Boolean&gt;</text></g></g><g transform="translate(-486,-286) scale(1,1)"><rect fill="#C0C0C0" stroke="none" x="503" y="583" width="115.58349609375" height="72" opacity="0.2"/></g><g transform="translate(-486,-286) scale(1,1)"><rect fill="#ffffff" stroke="none" x="496" y="576" width="115.58349609375" height="72"/></g><g transform="translate(-486,-286) scale(1,1)"><path fill="none" stroke="#000000" d="M 496 576 L 611.58349609375 576 L 611.58349609375 648 L 496 648 L 496 576 Z Z" stroke-miterlimit="10"/></g><g transform="translate(-486,-286) scale(1,1)"><path fill="none" stroke="#000000" d="M 496 601 L 611.58349609375 601" stroke-miterlimit="10"/></g><g transform="translate(-486,-286) scale(1,1)"><path fill="none" stroke="#000000" d="M 496 639 L 611.58349609375 639" stroke-miterlimit="10"/></g><g transform="translate(-486,-286) scale(1,1)"><g><path fill="none" stroke="none"/><text fill="#000000" stroke="none" font-family="Arial" font-size="13px" font-style="normal" font-weight="bold" text-decoration="none" x="519.85400390625" y="593.5">LoginForm</text></g></g><g transform="translate(-486,-286) scale(1,1)"><g><path fill="none" stroke="none"/><text fill="#000000" stroke="none" font-family="Arial" font-size="13px" font-style="normal" font-weight="normal" text-decoration="none" x="501" y="616.5">+username: String</text></g></g><g transform="translate(-486,-286) scale(1,1)"><g><path fill="none" stroke="none"/><text fill="#000000" stroke="none" font-family="Arial" font-size="13px" font-style="normal" font-weight="normal" text-decoration="none" x="501" y="631.5">+password: String</text></g></g><g transform="translate(-486,-286) scale(1,1)"><rect fill="#C0C0C0" stroke="none" x="695" y="583" width="115.58349609375" height="117" opacity="0.2"/></g><g transform="translate(-486,-286) scale(1,1)"><rect fill="#ffffff" stroke="none" x="688" y="576" width="115.58349609375" height="117"/></g><g transform="translate(-486,-286) scale(1,1)"><path fill="none" stroke="#000000" d="M 688 576 L 803.58349609375 576 L 803.58349609375 693 L 688 693 L 688 576 Z Z" stroke-miterlimit="10"/></g><g transform="translate(-486,-286) scale(1,1)"><path fill="none" stroke="#000000" d="M 688 601 L 803.58349609375 601" stroke-miterlimit="10"/></g><g transform="translate(-486,-286) scale(1,1)"><path fill="none" stroke="#000000" d="M 688 684 L 803.58349609375 684" stroke-miterlimit="10"/></g><g transform="translate(-486,-286) scale(1,1)"><g><path fill="none" stroke="none"/><text fill="#000000" stroke="none" font-family="Arial" font-size="13px" font-style="normal" font-weight="bold" text-decoration="none" x="703.5322265625" y="593.5">RegisterForm</text></g></g><g transform="translate(-486,-286) scale(1,1)"><g><path fill="none" stroke="none"/><text fill="#000000" stroke="none" font-family="Arial" font-size="13px" font-style="normal" font-weight="normal" text-decoration="none" x="693" y="616.5">+firstName: String</text></g></g><g transform="translate(-486,-286) scale(1,1)"><g><path fill="none" stroke="none"/><text fill="#000000" stroke="none" font-family="Arial" font-size="13px" font-style="normal" font-weight="normal" text-decoration="none" x="693" y="631.5">+lastName: String</text></g></g><g transform="translate(-486,-286) scale(1,1)"><g><path fill="none" stroke="none"/><text fill="#000000" stroke="none" font-family="Arial" font-size="13px" font-style="normal" font-weight="normal" text-decoration="none" x="693" y="646.5">+mail: String</text></g></g><g transform="translate(-486,-286) scale(1,1)"><g><path fill="none" stroke="none"/><text fill="#000000" stroke="none" font-family="Arial" font-size="13px" font-style="normal" font-weight="normal" text-decoration="none" x="693" y="661.5">+username: String</text></g></g><g transform="translate(-486,-286) scale(1,1)"><g><path fill="none" stroke="none"/><text fill="#000000" stroke="none" font-family="Arial" font-size="13px" font-style="normal" font-weight="normal" text-decoration="none" x="693" y="676.5">+password: String</text></g></g><g transform="translate(-486,-286) scale(1,1)"><path fill="none" stroke="#000000" d="M 536 576 L 536 528 L 622 528 L 622 481" stroke-miterlimit="10"/></g><g transform="translate(-486,-286) scale(1,1)"><path fill="#FFFFFF" stroke="none" d="M 630.419035512032 501.3253497152483 L 622 481 L 613.580964487968 501.3253497152483"/></g><g transform="translate(-486,-286) scale(1,1)"><path fill="none" stroke="#000000" d="M 630.419035512032 501.3253497152483 L 622 481 L 613.580964487968 501.3253497152483 L 630.419035512032 501.3253497152483" stroke-miterlimit="10"/></g><g transform="translate(-486,-286) scale(1,1)"><path fill="none" stroke="#000000" d="M 736 576 L 736 528 L 624 528 L 624 481" stroke-miterlimit="10"/></g><g transform="translate(-486,-286) scale(1,1)"><path fill="#FFFFFF" stroke="none" d="M 632.419035512032 501.3253497152483 L 624 481 L 615.580964487968 501.3253497152483"/></g><g transform="translate(-486,-286) scale(1,1)"><path fill="none" stroke="#000000" d="M 632.419035512032 501.3253497152483 L 624 481 L 615.580964487968 501.3253497152483 L 632.419035512032 501.3253497152483" stroke-miterlimit="10"/></g><g transform="translate(-486,-286) scale(1,1)"><path fill="none" stroke="#000000" d="M 675 456 L 872 456" stroke-miterlimit="10"/></g><g transform="translate(-486,-286) scale(1,1)"><path fill="#ffffff" stroke="none" d="M 1248 296 L 1316.7216796875 296 L 1326.7216796875 306 L 1326.7216796875 371 L 1248 371 L 1248 296"/></g><g transform="translate(-486,-286) scale(1,1)"><path fill="none" stroke="#000000" d="M 1248 296 L 1316.7216796875 296 L 1326.7216796875 306 L 1326.7216796875 371 L 1248 371 L 1248 296 L 1248 296" stroke-miterlimit="10"/></g><g transform="translate(-486,-286) scale(1,1)"><path fill="none" stroke="#000000" d="M 1316.7216796875 296 L 1316.7216796875 306 L 1326.7216796875 306 L 1316.7216796875 296" stroke-miterlimit="10"/></g><g transform="translate(-486,-286) scale(1,1)"><g><path fill="none" stroke="none"/><text fill="#000000" stroke="none" font-family="Arial" font-size="13px" font-style="normal" font-weight="normal" text-decoration="none" x="1253" y="310">Example</text><text fill="#000000" stroke="none" font-family="Arial" font-size="13px" font-style="normal" font-weight="normal" text-decoration="none" x="1253" y="323">annotation :</text><text fill="#000000" stroke="none" font-family="Arial" font-size="13px" font-style="normal" font-weight="normal" text-decoration="none" x="1253" y="336">required,</text><text fill="#000000" stroke="none" font-family="Arial" font-size="13px" font-style="normal" font-weight="normal" text-decoration="none" x="1253" y="349">mail,...</text></g></g><g transform="translate(-486,-286) scale(1,1)"><path fill="none" stroke="#000000" d="M 1287 372 L 1287 458 L 1136 458" stroke-miterlimit="10" stroke-dasharray="3"/></g></g></svg>